SplineFontDB: 3.0
FontName: Boon-Bold-Italic
FullName: Boon Bold Italic
FamilyName: Boon
Weight: Bold
Copyright: Copyright (C) 2013 Sungsit Sawaiwan <http://sungsit.com/> \n\nThis font is free software: you can redistribute it and/or modify it under the terms of the GNU General Public License as published by the Free Software Foundation, either version 3 of the License, or (at your option) any later version. \n\nThis font is distributed in the hope that it will be useful, but WITHOUT ANY WARRANTY; without even the implied warranty of MERCHANTABILITY or FITNESS FOR A PARTICULAR PURPOSE. See the GNU General Public License for more details. \n\nYou should have received a copy of the GNU General Public License along with this program. If not, see <http://www.gnu.org/licenses/>. \n\nAs a special exception, if you create a document which uses this font, and embed this font or unaltered portions of this font into the document, this font does not by itself cause the resulting document to be covered by the GNU General Public License. This exception does not however invalidate any other reasons why the document might be covered by the GNU General Public License. If you modify this font, you may extend this exception to your version of the font, but you are not obligated to do so. If you do not wish to do so, delete this exception statement from your version.
UComments: "Created with FontForge 2.0 <http://fontforge.org/>" 
Version: 0.4
ItalicAngle: -12
UnderlinePosition: -60
UnderlineWidth: 20
Ascent: 860
Descent: 340
woffMajor: 0
woffMinor: 4
LayerCount: 2
Layer: 0 0 "Back"  1
Layer: 1 0 "Fore"  0
FSType: 8
OS2Version: 0
OS2_WeightWidthSlopeOnly: 0
OS2_UseTypoMetrics: 1
CreationTime: 1369324892
ModificationTime: 1373847944
PfmFamily: 33
TTFWeight: 700
TTFWidth: 5
LineGap: 108
VLineGap: 0
Panose: 2 0 8 3 0 0 0 0 0 0
OS2TypoAscent: 0
OS2TypoAOffset: 1
OS2TypoDescent: 0
OS2TypoDOffset: 1
OS2TypoLinegap: 108
OS2WinAscent: 0
OS2WinAOffset: 1
OS2WinDescent: 0
OS2WinDOffset: 1

StartChar: uni0E04
Encoding: 3588 3588 0
Width: 593
VWidth: 0
Flags: W
HStem: 0 21G<64 209.5 413 561.261> 227 55<315.345 391.018> 372 55<322.937 398.169> 502 110<318.338 470.829>
VStem: 400 52<292.708 371.033> 494 145<315.941 476.224>
LayerCount: 2
Fore
SplineSet
422 612 m 0
 562 612 639 538 639 419 c 0
 639 398 637 376 632 352 c 2
 557 0 l 1
 413 0 l 1
 488 352 l 2
 492 372 494 390 494 405 c 0
 494 472 458 502 399 502 c 0
 326 502 262 451 241 352 c 0
 235 324 229 284 226 251 c 1
 243 293 258 347 284 377 c 0
 309 407 343 427 378 427 c 0
 422 427 452 394 452 349 c 0
 452 342 452 335 450 327 c 0
 438 272 387 227 336 227 c 0
 312 227 292 237 279 253 c 1
 239 171 218 79 201 0 c 1
 64 0 l 1
 77 38 85 69 91 96 c 0
 116 213 93 227 120 352 c 0
 150 495 267 612 422 612 c 0
366 372 m 0
 343 372 320 352 315 327 c 0
 314 324 314 320 314 317 c 0
 314 297 327 282 347 282 c 0
 370 282 394 302 399 327 c 0
 400 330 400 333 400 336 c 0
 400 357 386 372 366 372 c 0
EndSplineSet
EndChar

StartChar: uni0E05
Encoding: 3589 3589 2
Width: 593
VWidth: 0
Flags: W
HStem: 0 21G<73 218.5 422 561.241> 227 55<324.481 400.114> 372 55<332.033 407.305>
VStem: 112 118<240 410.043> 409 52<290.897 371.033> 511 133<345.946 511.228>
LayerCount: 2
Fore
SplineSet
112 227 m 0
 112 251 114 321 127 382 c 0
 148 482 248 581 348 612 c 1
 417 543 l 1
 525 615 l 1
 593 592 644 524 644 434 c 0
 644 418 642 400 638 382 c 2
 557 0 l 1
 422 0 l 1
 503 382 l 2
 508 407 511 430 511 449 c 0
 511 476 506 497 499 513 c 1
 396 448 l 1
 322 513 l 1
 279 479 261 441 248 382 c 0
 238 333 231 279 230 240 c 1
 248 283 265 344 293 377 c 0
 318 407 352 427 387 427 c 0
 431 427 461 394 461 349 c 0
 461 342 461 335 459 327 c 0
 447 272 396 227 345 227 c 0
 321 227 301 237 288 253 c 1
 248 171 227 79 210 0 c 1
 73 0 l 1
 86 38 94 69 100 96 c 0
 112 227 l 0
376 372 m 0
 353 372 329 352 324 327 c 0
 323 324 323 321 323 318 c 0
 323 297 337 282 357 282 c 0
 380 282 403 302 408 327 c 0
 409 330 409 334 409 337 c 0
 409 357 396 372 376 372 c 0
EndSplineSet
EndChar

StartChar: uni0E14
Encoding: 3604 3604 3
Width: 593
VWidth: 0
Flags: W
HStem: 0 21G<64 213.5 413 561.261> 372 55<322.886 398.169> 502 110<318.338 470.829>
VStem: 261 53<283.104 363.573> 400 52<291.936 371.033> 494 145<315.941 476.224>
LayerCount: 2
Fore
SplineSet
422 612 m 0
 562 612 639 538 639 419 c 0
 639 398 637 376 632 352 c 2
 557 0 l 1
 413 0 l 1
 488 352 l 2
 492 372 494 390 494 405 c 0
 494 472 458 502 399 502 c 0
 326 502 262 451 241 352 c 0
 224 272 225 190 224 142 c 1
 258 168 293 198 320 228 c 1
 285 235 261 265 261 304 c 0
 261 311 262 319 264 327 c 0
 276 382 327 427 378 427 c 0
 422 427 452 394 452 349 c 0
 452 342 452 335 450 327 c 0
 417 172 223 88 204 0 c 1
 64 0 l 1
 77 38 85 69 91 96 c 0
 116 213 93 227 120 352 c 0
 150 495 267 612 422 612 c 0
366 372 m 0
 343 372 320 352 315 327 c 0
 314 324 314 320 314 317 c 0
 314 297 327 282 347 282 c 0
 370 282 394 302 399 327 c 0
 400 330 400 333 400 336 c 0
 400 357 386 372 366 372 c 0
EndSplineSet
EndChar

StartChar: uni0E15
Encoding: 3605 3605 4
Width: 593
VWidth: 0
Flags: W
HStem: 0 21G<73 222.5 422 561.241> 372 55<331.982 407.305>
VStem: 112 113<135.3 395.452> 270 53<283.104 361.292> 409 52<291.936 371.033> 511 133<345.946 511.228>
LayerCount: 2
Fore
SplineSet
112 227 m 0
 112 251 114 321 127 382 c 0
 148 482 248 581 348 612 c 1
 417 543 l 1
 525 615 l 1
 593 592 644 524 644 434 c 0
 644 418 642 400 638 382 c 2
 557 0 l 1
 422 0 l 1
 503 382 l 2
 508 407 511 430 511 449 c 0
 511 476 506 497 499 513 c 1
 396 448 l 1
 322 513 l 1
 279 479 261 441 248 382 c 0
 227 282 229 217 225 135 c 1
 260 162 300 196 329 228 c 1
 294 235 270 265 270 304 c 0
 270 311 271 319 273 327 c 0
 285 382 336 427 387 427 c 0
 431 427 461 394 461 349 c 0
 461 342 461 335 459 327 c 0
 426 172 232 88 213 0 c 1
 73 0 l 1
 86 38 94 69 100 96 c 0
 112 227 l 0
376 372 m 0
 353 372 329 352 324 327 c 0
 323 324 323 321 323 318 c 0
 323 297 337 282 357 282 c 0
 380 282 403 302 408 327 c 0
 409 330 409 334 409 337 c 0
 409 357 396 372 376 372 c 0
EndSplineSet
EndChar

StartChar: uni0E01
Encoding: 3585 3585 5
Width: 565
VWidth: 0
Flags: W
HStem: 0 21G<74 227.207 381 533.301> 502 110<311.288 444.992>
VStem: 465 151<336.083 480.935>
LayerCount: 2
Fore
SplineSet
408 612 m 0
 516 612 616 558 616 432 c 0
 616 414 614 394 609 372 c 2
 529 0 l 1
 381 0 l 1
 460 372 l 2
 464 389 465 404 465 417 c 0
 465 481 426 502 385 502 c 0
 348 502 302 480 279 440 c 1
 367 415 l 1
 367 415 301 371 284 290 c 1
 223 0 l 1
 74 0 l 1
 131 270 l 2
 149 354 203 390 203 390 c 1
 114 410 l 1
 159 500 286 612 408 612 c 0
EndSplineSet
EndChar

StartChar: uni0E16
Encoding: 3606 3606 6
Width: 565
VWidth: 0
Flags: W
HStem: -6 80<171.617 240.792> 502 110<311.288 444.992>
VStem: 95 76<75.6125 147.676> 248 76<81.2455 152.055> 465 151<336.083 480.935>
LayerCount: 2
Fore
SplineSet
131 270 m 2
 149 354 203 390 203 390 c 1
 114 410 l 1
 159 500 286 612 408 612 c 0
 516 612 616 558 616 432 c 0
 616 414 614 394 609 372 c 2
 529 0 l 1
 381 0 l 1
 460 372 l 2
 464 389 465 404 465 417 c 0
 465 481 426 502 385 502 c 0
 348 502 302 480 279 440 c 1
 367 415 l 1
 367 415 301 371 284 290 c 1
 271 227 l 1
 304 214 324 181 324 141 c 0
 324 132 323 123 321 114 c 0
 307 48 245 -6 184 -6 c 0
 131 -6 95 34 95 88 c 0
 95 96 96 105 98 114 c 2
 131 270 l 2
218 154 m 0
 198 154 177 136 172 114 c 0
 171 111 171 108 171 105 c 0
 171 87 184 74 201 74 c 0
 221 74 242 92 247 114 c 0
 248 117 248 120 248 123 c 0
 248 141 235 154 218 154 c 0
EndSplineSet
EndChar

StartChar: uni0E28
Encoding: 3624 3624 7
Width: 603
VWidth: 0
Flags: W
HStem: 0 21G<64 209.5 413 561.261> 227 55<315.345 391.018> 372 55<322.937 398.169> 502 110<318.338 470.215>
VStem: 400 52<292.708 371.033> 494 145<315.941 478.625> 599 140<613.536 680>
LayerCount: 2
Fore
SplineSet
599 680 m 1xfa
 739 680 l 1xfa
 721 597 670 543 619 510 c 1
 632 483 639 452 639 417 c 0
 639 396 637 375 632 352 c 2
 557 0 l 1
 413 0 l 1
 488 352 l 2
 492 372 494 390 494 405 c 0xfc
 494 472 458 502 399 502 c 0
 326 502 262 451 241 352 c 0
 235 324 229 284 226 251 c 1
 243 293 258 347 284 377 c 0
 309 407 343 427 378 427 c 0
 422 427 452 394 452 349 c 0
 452 342 452 335 450 327 c 0
 438 272 387 227 336 227 c 0
 312 227 292 237 279 253 c 1
 239 171 218 79 201 0 c 1
 64 0 l 1
 77 38 85 69 91 96 c 0
 116 213 93 227 120 352 c 0
 150 495 267 612 422 612 c 0
 475 612 515 601 551 582 c 1
 574 607 590 639 599 680 c 1xfa
366 372 m 0
 343 372 320 352 315 327 c 0
 314 324 314 320 314 317 c 0
 314 297 327 282 347 282 c 0
 370 282 394 302 399 327 c 0
 400 330 400 333 400 336 c 0
 400 357 386 372 366 372 c 0
EndSplineSet
Substitution2: "Ascent Substitute" uni0E28.alt
EndChar

StartChar: uni0E20
Encoding: 3616 3616 8
Width: 584
VWidth: 0
Flags: W
HStem: -6 80<125.617 194.354> 502 110<330.288 463.668>
VStem: 49 76<75.6125 146.89> 483 151<335.665 481.569>
LayerCount: 2
Fore
SplineSet
275 114 m 2
 261 48 199 -6 138 -6 c 0
 85 -6 49 34 49 88 c 0
 49 96 50 105 52 114 c 0
 63 166 103 211 150 227 c 1
 159 270 l 2
 177 354 240 390 240 390 c 1
 133 410 l 1
 178 500 305 612 427 612 c 0
 535 612 634 558 634 433 c 0
 634 414 632 394 627 372 c 2
 548 0 l 1
 399 0 l 1
 478 372 l 2
 482 389 483 404 483 417 c 0
 483 481 445 502 404 502 c 0
 367 502 321 480 298 440 c 1
 404 415 l 1
 404 415 329 371 312 290 c 1
 275 114 l 2
172 154 m 0
 152 154 131 136 126 114 c 0
 125 111 125 108 125 105 c 0
 125 87 138 74 155 74 c 0
 175 74 195 92 200 114 c 0
 201 117 201 120 201 123 c 0
 201 141 189 154 172 154 c 0
EndSplineSet
EndChar

StartChar: uni0E48
Encoding: 3656 3656 9
Width: 2
VWidth: 0
Flags: W
HStem: 950 230
VStem: 15 152
LayerCount: 2
Fore
SplineSet
55 1180 m 1
 167 1180 l 1
 118 950 l 1
 15 990 l 1
 55 1180 l 1
EndSplineSet
Position2: "Nikhahit & Tone High-Left" dx=-180 dy=0 dh=0 dv=0
Position2: "Mai Han-Akat & Tone High-Left" dx=-220 dy=0 dh=0 dv=0
Position2: "Tone High-Left" dx=-140 dy=0 dh=0 dv=0
MultipleSubs2: "Tone High-Low" uni0E48.low
EndChar

StartChar: uni0E34
Encoding: 3636 3636 10
Width: 8
VWidth: 0
Flags: W
HStem: 745 45<-180 -71.6274> 825 85<-171.05 -44.4479>
VStem: -315 391
LayerCount: 2
Fore
SplineSet
-98 910 m 0
 28 910 75 808 76 660 c 1
 -67 741 -128 745 -315 745 c 1
 -273 829 -203 910 -98 910 c 0
-116 825 m 0
 -145 825 -165 807 -180 790 c 1
 -113 790 -71 782 -8 745 c 1
 -40 814 -77 825 -116 825 c 0
EndSplineSet
Position2: "Vowel Above-Left" dx=-140 dy=0 dh=0 dv=0
EndChar

StartChar: uni0E38
Encoding: 3640 3640 11
Width: 3
VWidth: 0
Flags: W
HStem: -340 140<-216.993 -153.847> -130 60<-212.348 -150.903>
VStem: -274 57<-199.417 -134.11> -150 57<-195.785 -130.308>
LayerCount: 2
Fore
SplineSet
-163 -70 m 0
 -122 -70 -93 -102 -93 -144 c 0
 -93 -151 -93 -158 -95 -165 c 2
 -132 -340 l 1
 -234 -340 l 1
 -217 -259 l 1
 -251 -253 -274 -223 -274 -185 c 0
 -274 -179 -273 -172 -272 -165 c 0
 -261 -113 -211 -70 -163 -70 c 0
-176 -130 m 0
 -194 -130 -212 -146 -216 -165 c 0
 -217 -168 -217 -170 -217 -173 c 0
 -217 -188 -207 -200 -191 -200 c 0
 -173 -200 -155 -184 -151 -165 c 0
 -150 -162 -150 -160 -150 -157 c 0
 -150 -142 -160 -130 -176 -130 c 0
EndSplineSet
Position2: "Vowel Below-Low" dx=0 dy=-200 dh=0 dv=0
EndChar

StartChar: uni0E35
Encoding: 3637 3637 12
Width: 8
VWidth: 0
Flags: W
HStem: 810 80<-192.18 -74.3974>
LayerCount: 2
Fore
SplineSet
11 920 m 1
 107 890 l 1
 54 640 l 1
 -89 721 -149 730 -336 730 c 1
 -294 814 -230 890 -130 890 c 0
 -30 890 -12 825 12 750 c 1
 5 783 -0 814 -0 844 c 0
 -0 856 1 868 3 880 c 2
 11 920 l 1
-133 810 m 0
 -169 810 -186 794 -201 775 c 1
 -139 770 -90 756 -35 730 c 1
 -65 786 -95 810 -133 810 c 0
EndSplineSet
Position2: "Vowel Above-Left" dx=-140 dy=0 dh=0 dv=0
EndChar

StartChar: uni0E48.low
Encoding: 63237 63237 13
Width: 2
VWidth: 0
Flags: W
HStem: 690 240<-3 67>
VStem: -54 172
LayerCount: 2
Fore
SplineSet
-3 930 m 1
 118 930 l 1
 67 690 l 1
 -54 690 l 1
 -3 930 l 1
EndSplineSet
Position2: "Tone Low-Left" dx=-160 dy=0 dh=0 dv=0
Substitution2: "Tone Low-High" uni0E48
EndChar

StartChar: uni0E49.low
Encoding: 63238 63238 14
Width: 7
VWidth: 0
Flags: W
HStem: 700 70<-86 -14.7445> 700 55<-217.901 -176> 890 50<-132.192 -78.8858>
VStem: 57 108<847.552 910>
LayerCount: 2
Fore
SplineSet
-89 940 m 0x70
 -54 940 -30 913 -30 878 c 0
 -30 872 -31 866 -32 860 c 0
 -44 803 -86 770 -86 770 c 1xb0
 -31 770 37 816 57 910 c 1
 165 910 l 1
 137 780 38 700 -111 700 c 2
 -189 700 l 2
 -220 700 -222 744 -222 753 c 0
 -222 754 -222 755 -222 755 c 1
 -176 761 l 2
 -159 763 -144 774 -138 782 c 1
 -165 788 -183 812 -183 843 c 0
 -183 848 -182 854 -181 860 c 0
 -172 904 -130 940 -89 940 c 0x70
-100 890 m 0
 -117 890 -130 877 -134 860 c 0
 -138 843 -130 830 -113 830 c 0
 -98 830 -83 843 -79 860 c 0
 -75 877 -85 890 -100 890 c 0
EndSplineSet
Position2: "Tone Low-Left" dx=-180 dy=0 dh=0 dv=0
Substitution2: "Tone Low-High" uni0E49
EndChar

StartChar: uni0E4A.low
Encoding: 63239 63239 15
Width: 8
VWidth: 0
Flags: W
HStem: 700 46<-205.211 -151.951 -72 -66.25> 806 44<-182.765 -148.768> 880 56<-180.181 -114.991>
VStem: -259 154<734 776 793 839.23> -46 76<767.02 879.32> 71 90<849.377 930>
LayerCount: 2
Fore
SplineSet
-141 936 m 0
 -111 936 -92 922 -84 900 c 1
 -50 936 l 1
 -13 936 l 1
 13 925 30 894 30 855 c 0
 30 846 29 836 27 826 c 0
 19 788 3 766 3 766 c 1
 30 786 45 808 71 930 c 1
 161 930 l 1
 139 834 88 704 -72 704 c 1
 -82 750 l 1
 -71 750 -61 776 -52 816 c 0
 -48 834 -46 847 -46 856 c 0
 -46 867 -49 873 -53 880 c 1
 -82 846 l 1
 -114 846 l 1
 -114 847 -114 847 -114 848 c 0
 -114 858 -125 880 -144 880 c 0
 -167 880 -178 863 -183 846 c 1
 -175 848 -170 850 -161 850 c 0
 -128 850 -105 825 -105 793 c 0
 -105 787 -106 782 -107 776 c 0
 -116 734 -154 700 -193 700 c 0
 -224 700 -259 718 -259 775 c 0
 -259 786 -258 798 -255 812 c 0
 -241 878 -191 936 -141 936 c 0
-171 806 m 0
 -186 806 -202 792 -205 776 c 0
 -209 758 -199 746 -184 746 c 0
 -167 746 -153 758 -149 776 c 0
 -146 792 -154 806 -171 806 c 0
EndSplineSet
Position2: "Tone Low-Left" dx=-180 dy=0 dh=0 dv=0
Substitution2: "Tone Low-High" uni0E4A
EndChar

StartChar: uni0E4B.low
Encoding: 63240 63240 16
Width: 6
VWidth: 0
Flags: W
HStem: 775 70<-93 -29 107 171>
VStem: -108 294
LayerCount: 2
Fore
SplineSet
4 930 m 1
 125 930 l 1
 107 845 l 1
 186 845 l 1
 171 775 l 1
 92 775 l 1
 74 690 l 1
 -47 690 l 1
 -29 775 l 1
 -108 775 l 1
 -93 845 l 1
 -14 845 l 1
 4 930 l 1
EndSplineSet
Position2: "Tone Low-Left" dx=-210 dy=0 dh=0 dv=0
Substitution2: "Tone Low-High" uni0E4B
EndChar

StartChar: uni0E4C.low
Encoding: 63241 63241 17
Width: 5
VWidth: 0
Flags: W
HStem: 690 64<-63.0289 -8.70422>
VStem: 45 112<923.634 970>
LayerCount: 2
Fore
SplineSet
45 970 m 1
 157 970 l 1
 138 919 98 872 40 838 c 1
 46 827 49 815 49 801 c 0
 49 794 49 787 47 780 c 0
 36 730 -9 690 -55 690 c 0
 -95 690 -123 720 -123 760 c 0
 -123 766 -123 773 -121 780 c 0
 -97 894 17 870 45 970 c 1
-29 814 m 0
 -45 814 -59 801 -63 784 c 0
 -67 767 -58 754 -42 754 c 0
 -27 754 -11 767 -7 784 c 0
 -3 801 -14 814 -29 814 c 0
EndSplineSet
Position2: "Tone Low-Left" dx=-120 dy=0 dh=0 dv=0
Substitution2: "Tone Low-High" uni0E4C
EndChar

StartChar: uni0E10.descless
Encoding: 63232 63232 18
Width: 528
VWidth: 0
Flags: W
HStem: 130 60<145.749 214.143> 270 60<152.134 219.916> 505 95<561.903 609> 527 85<292.714 453.677>
VStem: 88 57<191.729 264.188> 368 148<211.797 369.979>
LayerCount: 2
Fore
SplineSet
458 60 m 2xdc
 445 -2 258 -6 258 -6 c 1
 268 40 l 2
 274 65 278 92 278 118 c 0
 278 143 274 168 259 189 c 1
 238 154 200 130 162 130 c 0
 118 130 88 163 88 208 c 0
 88 215 88 222 90 230 c 0
 102 285 153 330 204 330 c 0
 270 330 320 276 336 185 c 1
 367 330 l 2
 368 332 368 335 368 337 c 0
 368 396 198 402 124 410 c 1
 150 534 278 612 390 612 c 0xdc
 461 612 504 575 524 544 c 1
 548 571 600 600 629 600 c 1
 609 505 l 1xec
 580 505 527 476 504 449 c 1
 464 505 422 527 372 527 c 0
 312 527 274 493 255 459 c 1
 401 442 516 421 516 338 c 0
 516 331 515 323 513 315 c 2
 458 60 l 2xdc
191 270 m 0
 171 270 151 252 146 230 c 0
 145 227 145 224 145 221 c 0
 145 203 157 190 174 190 c 0
 194 190 215 208 220 230 c 0
 221 233 221 236 221 239 c 0
 221 257 208 270 191 270 c 0
EndSplineSet
EndChar

StartChar: uni0E0D.descless
Encoding: 63247 63247 19
Width: 789
VWidth: 0
Flags: W
HStem: -12 104<557.488 624.689> -6 80<171.617 240.792> 502 110<311.288 444.992>
VStem: 95 76<75.6125 147.676> 248 76<81.2455 152.055> 406 151<93.9683 167.644> 465 151<285.156 482.827>
LayerCount: 2
Fore
SplineSet
561 150 m 2x7a
 559 140 557 129 557 120 c 0
 557 104 563 92 586 92 c 0
 622 92 630 122 636 150 c 2
 729 590 l 1
 878 590 l 1
 780 130 l 2
 772 92 717 -12 564 -12 c 0
 433 -12 406 64 406 110 c 0xbc
 406 118 407 125 408 130 c 2
 460 372 l 2
 464 389 465 404 465 417 c 0
 465 481 426 502 385 502 c 0
 348 502 302 480 279 440 c 1
 367 415 l 1
 367 415 301 371 284 290 c 1
 271 227 l 1
 304 214 324 181 324 141 c 0
 324 132 323 123 321 114 c 0
 307 48 245 -6 184 -6 c 0
 131 -6 95 34 95 88 c 0
 95 96 96 105 98 114 c 2
 131 270 l 2
 149 354 203 390 203 390 c 1
 114 410 l 1
 159 500 286 612 408 612 c 0
 516 612 616 558 616 432 c 0
 616 414 614 394 609 372 c 2
 561 150 l 2x7a
218 154 m 0
 198 154 177 136 172 114 c 0
 171 111 171 108 171 105 c 0
 171 87 184 74 201 74 c 0x78
 221 74 242 92 247 114 c 0
 248 117 248 120 248 123 c 0
 248 141 235 154 218 154 c 0
EndSplineSet
EndChar

StartChar: uni0E36
Encoding: 3638 3638 20
Width: 9
VWidth: 0
Flags: W
HStem: 725 45<-201 -93.3335> 805 85<-192.8 -66.0865> 855 55<16.8016 79.5126>
VStem: 80 51<789.333 854.314>
LayerCount: 2
Fore
SplineSet
65 910 m 0xb0
 104 910 131 881 131 841 c 0
 131 834 131 827 129 820 c 0
 120 777 85 741 45 732 c 1
 50 707 54 679 54 650 c 0
 54 647 54 643 54 640 c 1
 -89 721 -149 725 -337 725 c 1
 -295 809 -226 890 -120 890 c 0xd0
 -77 890 -51 878 -23 855 c 1
 -4 888 31 910 65 910 c 0xb0
53 855 m 0xb0
 35 855 18 839 14 820 c 0
 13 817 13 814 13 812 c 0
 13 797 23 785 38 785 c 0
 57 785 75 801 79 820 c 0
 80 823 80 825 80 828 c 0
 80 843 69 855 53 855 c 0xb0
-138 805 m 0xd0
 -167 805 -186 787 -201 770 c 1
 -134 770 -93 762 -30 725 c 1
 -62 794 -99 805 -138 805 c 0xd0
EndSplineSet
Position2: "Vowel Above-Left" dx=-140 dy=0 dh=0 dv=0
EndChar

StartChar: uni0E37
Encoding: 3639 3639 21
Width: 8
VWidth: 0
Flags: W
HStem: 810 80<-191.738 -88.8627> 940 20G<-96.5 -40.6667>
LayerCount: 2
Fore
SplineSet
-92 960 m 1
 -15 930 l 1
 -32 850 l 1
 -6 824 -1 790 12 750 c 1
 9 763 8 776 8 788 c 0
 8 821 16 852 21 880 c 2
 30 920 l 1
 107 890 l 1
 54 640 l 1
 -89 721 -148 730 -336 730 c 1
 -294 814 -239 890 -139 890 c 0
 -114 890 -95 877 -88 871 c 1
 -94 880 -102 897 -102 912 c 0
 -102 915 -102 917 -101 920 c 2
 -92 960 l 1
-133 810 m 0
 -168 810 -185 794 -200 775 c 1
 -138 770 -89 756 -35 730 c 1
 -64 786 -94 810 -133 810 c 0
EndSplineSet
Position2: "Vowel Above-Left" dx=-140 dy=0 dh=0 dv=0
EndChar

StartChar: uni0E2D
Encoding: 3629 3629 22
Width: 565
VWidth: 0
Flags: W
HStem: -12 100<245.691 377.686> 320 80<207.708 288.38> 512 100<319.895 442.884>
VStem: 97 145<97.1801 152.026> 290 76<231.687 317.456> 459 150<365.314 495.674>
LayerCount: 2
Fore
SplineSet
408 612 m 0
 533 612 609 535 609 441 c 0
 609 428 608 415 605 402 c 2
 560 188 l 2
 526 26 409 -12 285 -12 c 0
 179 -12 97 16 97 126 c 0
 97 144 99 165 104 188 c 1
 121 270 l 2
 136 342 203 400 270 400 c 0
 328 400 366 357 366 299 c 0
 366 290 365 280 363 270 c 0
 350 209 300 158 244 144 c 1
 243 139 242 134 242 130 c 0
 242 95 277 88 306 88 c 0
 341 88 391 100 405 160 c 2
 456 402 l 2
 458 413 459 423 459 433 c 0
 459 483 431 512 387 512 c 0
 335 512 300 475 291 434 c 1
 138 434 l 1
 155 515 266 612 408 612 c 0
253 320 m 0
 227 320 202 298 196 270 c 0
 195 266 195 262 195 258 c 0
 195 236 210 220 232 220 c 0
 258 220 283 242 289 270 c 0
 290 274 290 278 290 282 c 0
 290 304 275 320 253 320 c 0
EndSplineSet
EndChar

StartChar: uni0E4D
Encoding: 3661 3661 23
Width: 5
VWidth: 0
Flags: W
HStem: 670 80<-38.517 35.7846> 840 80<-30.7451 44.205>
VStem: -116 76<751.667 829.208> 46 76<760.792 839.077>
LayerCount: 2
Fore
SplineSet
31 920 m 0
 85 920 122 879 122 824 c 0
 122 814 121 805 119 795 c 0
 104 726 40 670 -23 670 c 0
 -79 670 -116 711 -116 767 c 0
 -116 776 -115 785 -113 795 c 0
 -98 864 -34 920 31 920 c 0
14 840 m 0
 -9 840 -34 820 -39 795 c 0
 -40 792 -40 789 -40 786 c 0
 -40 765 -26 750 -6 750 c 0
 16 750 40 770 45 795 c 0
 46 798 46 802 46 805 c 0
 46 825 33 840 14 840 c 0
EndSplineSet
Position2: "Vowel Above-Left" dx=-180 dy=0 dh=0 dv=0
EndChar

StartChar: uni0E33
Encoding: 3635 3635 24
Width: 479
VWidth: 0
Flags: W
HStem: 0 21G<304 457.241> 502 110<294.136 387.065> 670 80<-38.517 35.7846> 840 80<-30.7451 44.205>
VStem: -116 76<751.667 829.208> 46 76<760.792 839.077> 393 149<298.438 496.632>
LayerCount: 2
Fore
SplineSet
31 920 m 0
 85 920 122 879 122 824 c 0
 122 814 121 805 119 795 c 0
 104 726 40 670 -23 670 c 0
 -79 670 -116 711 -116 767 c 0
 -116 776 -115 785 -113 795 c 0
 -98 864 -34 920 31 920 c 0
14 840 m 0
 -9 840 -34 820 -39 795 c 0
 -40 792 -40 789 -40 786 c 0
 -40 765 -26 750 -6 750 c 0
 16 750 40 770 45 795 c 0
 46 798 46 802 46 805 c 0
 46 825 33 840 14 840 c 0
304 0 m 1
 385 382 l 2
 391 408 393 429 393 446 c 0
 393 486 377 502 345 502 c 0
 300 502 277 465 266 414 c 1
 113 414 l 1
 134 515 217 612 369 612 c 0
 492 612 542 547 542 453 c 0
 542 431 539 407 534 382 c 2
 453 0 l 1
 304 0 l 1
EndSplineSet
MultipleSubs2: "Sara Am Decomposite" uni0E4D uni0E32
EndChar

StartChar: uni0E32
Encoding: 3634 3634 25
Width: 473
VWidth: 0
Flags: W
HStem: 0 21G<297 450.241> 502 110<287.636 380.794>
VStem: 387 148<304.406 496.642>
LayerCount: 2
Fore
SplineSet
297 0 m 1
 378 382 l 2
 384 409 387 430 387 447 c 0
 387 486 371 502 339 502 c 0
 294 502 271 465 260 414 c 1
 106 414 l 1
 127 515 210 612 362 612 c 0
 485 612 535 547 535 453 c 0
 535 431 532 407 527 382 c 2
 446 0 l 1
 297 0 l 1
EndSplineSet
Substitution2: "Sara AA Substitute" uni0E45
EndChar

StartChar: uni0E25
Encoding: 3621 3621 26
Width: 565
VWidth: 0
Flags: W
HStem: -6 70<209.141 283.199> 154 70<220.692 291.103> 310 95<262.52 383.177> 517 95<332.104 450.915>
VStem: 80 127<65.0461 145.103> 293 67<74.6216 152.202> 461 149<370.691 505.69>
LayerCount: 2
Fore
SplineSet
417 612 m 0
 541 612 610 537 610 444 c 0
 610 431 608 416 605 402 c 2
 533 60 l 2
 519 -4 370 -6 370 -6 c 1
 403 150 l 2
 406 162 407 177 407 194 c 0
 407 246 391 310 335 310 c 0
 283 310 241 282 220 210 c 1
 237 219 255 224 274 224 c 0
 325 224 360 187 360 136 c 0
 360 127 359 118 357 109 c 0
 343 45 286 -6 226 -6 c 0
 141 -6 80 48 80 139 c 0
 80 155 82 172 86 190 c 0
 112 314 208 405 327 405 c 0
 411 405 439 347 439 320 c 1
 456 402 l 2
 459 418 461 433 461 447 c 0
 461 490 443 517 397 517 c 0
 337 517 309 475 300 434 c 1
 147 434 l 1
 164 515 275 612 417 612 c 0
260 154 m 0
 237 154 213 134 208 109 c 0
 207 106 207 102 207 99 c 0
 207 79 220 64 240 64 c 0
 263 64 287 84 292 109 c 0
 293 112 293 116 293 119 c 0
 293 139 280 154 260 154 c 0
EndSplineSet
EndChar

StartChar: uni0E40
Encoding: 3648 3648 27
Width: 296
VWidth: 0
Flags: W
HStem: -6 80<143.617 212.792>
VStem: 67 76<75.6125 147.676> 220 76<81.2455 152.055>
LayerCount: 2
Fore
SplineSet
171 590 m 1
 320 590 l 1
 243 227 l 1
 276 214 296 181 296 141 c 0
 296 132 295 123 293 114 c 0
 279 48 217 -6 156 -6 c 0
 103 -6 67 34 67 88 c 0
 67 96 68 105 70 114 c 2
 171 590 l 1
190 154 m 0
 170 154 149 136 144 114 c 0
 143 111 143 108 143 105 c 0
 143 87 156 74 173 74 c 0
 193 74 214 92 219 114 c 0
 220 117 220 120 220 123 c 0
 220 141 207 154 190 154 c 0
EndSplineSet
EndChar

StartChar: uni0E41
Encoding: 3649 3649 28
Width: 528
VWidth: 0
Flags: W
HStem: -6 80<152.617 221.792 403.617 472.792>
VStem: 76 76<75.6125 147.676> 229 76<81.2455 152.055> 327 76<75.6125 147.676> 480 76<81.2455 152.055>
LayerCount: 2
Fore
SplineSet
180 590 m 1
 329 590 l 1
 252 227 l 1
 285 214 305 181 305 141 c 0
 305 132 304 123 302 114 c 0
 288 48 226 -6 165 -6 c 0
 112 -6 76 34 76 88 c 0
 76 96 77 105 79 114 c 2
 180 590 l 1
199 154 m 0
 179 154 158 136 153 114 c 0
 152 111 152 108 152 105 c 0
 152 87 165 74 182 74 c 0
 202 74 223 92 228 114 c 0
 229 117 229 120 229 123 c 0
 229 141 216 154 199 154 c 0
431 590 m 1
 580 590 l 1
 503 227 l 1
 536 214 556 181 556 141 c 0
 556 132 555 123 553 114 c 0
 539 48 477 -6 416 -6 c 0
 363 -6 327 34 327 88 c 0
 327 96 328 105 330 114 c 2
 431 590 l 1
450 154 m 0
 430 154 409 136 404 114 c 0
 403 111 403 108 403 105 c 0
 403 87 416 74 433 74 c 0
 453 74 474 92 479 114 c 0
 480 117 480 120 480 123 c 0
 480 141 467 154 450 154 c 0
EndSplineSet
EndChar

StartChar: uni0E2A
Encoding: 3626 3626 29
Width: 575
VWidth: 0
Flags: W
HStem: -6 70<209.141 283.199> 154 70<220.692 291.103> 310 95<262.52 383.177> 517 95<332.104 451.347>
VStem: 80 127<65.0461 145.103> 293 67<74.6216 152.202> 461 149<370.691 507.475> 562 140<612.066 680>
LayerCount: 2
Fore
SplineSet
562 680 m 1xfd
 702 680 l 1xfd
 686 603 640 551 594 518 c 1
 604 496 610 471 610 445 c 0
 610 431 608 417 605 402 c 2
 533 60 l 2
 519 -4 370 -6 370 -6 c 1
 403 150 l 2
 406 162 407 177 407 194 c 0
 407 246 391 310 335 310 c 0
 283 310 241 282 220 210 c 1
 237 219 255 224 274 224 c 0
 325 224 360 187 360 136 c 0
 360 127 359 118 357 109 c 0
 343 45 286 -6 226 -6 c 0
 141 -6 80 48 80 139 c 0
 80 155 82 172 86 190 c 0
 112 314 208 405 327 405 c 0
 411 405 439 347 439 320 c 1
 456 402 l 2
 459 418 461 433 461 447 c 0xfe
 461 490 443 517 397 517 c 0
 337 517 309 475 300 434 c 1
 147 434 l 1
 164 515 275 612 417 612 c 0
 457 612 492 604 521 590 c 1
 540 614 554 643 562 680 c 1xfd
260 154 m 0
 237 154 213 134 208 109 c 0
 207 106 207 102 207 99 c 0
 207 79 220 64 240 64 c 0
 263 64 287 84 292 109 c 0
 293 112 293 116 293 119 c 0
 293 139 280 154 260 154 c 0
EndSplineSet
Substitution2: "Ascent Substitute" uni0E2A.alt
EndChar

StartChar: uni0E2E
Encoding: 3630 3630 30
Width: 575
VWidth: 0
Flags: W
HStem: -12 100<245.691 377.686> 320 80<207.708 288.38> 512 100<319.895 443.102>
VStem: 97 145<97.1801 152.026> 290 76<231.687 317.456> 459 151<366.048 496.557> 562 140<612.066 680>
LayerCount: 2
Fore
SplineSet
562 680 m 1xfa
 702 680 l 1xfa
 686 603 640 551 594 518 c 1
 604 496 610 471 610 445 c 0
 610 431 608 417 605 402 c 2
 560 188 l 2
 526 26 409 -12 285 -12 c 0
 179 -12 97 16 97 126 c 0
 97 144 99 165 104 188 c 1
 121 270 l 2
 136 342 203 400 270 400 c 0
 328 400 366 357 366 299 c 0
 366 290 365 280 363 270 c 0
 350 209 300 158 244 144 c 1
 243 139 242 134 242 130 c 0
 242 95 277 88 306 88 c 0
 341 88 391 100 405 160 c 1
 456 402 l 2
 458 413 459 423 459 433 c 0xfc
 459 483 431 512 387 512 c 0
 335 512 300 475 291 434 c 1
 138 434 l 1
 155 515 266 612 408 612 c 0
 448 612 492 604 521 590 c 1
 540 614 554 643 562 680 c 1xfa
253 320 m 0
 227 320 202 298 196 270 c 0
 195 266 195 262 195 258 c 0
 195 236 210 220 232 220 c 0
 258 220 283 242 289 270 c 0
 290 274 290 278 290 282 c 0
 290 304 275 320 253 320 c 0
EndSplineSet
Substitution2: "Ascent Substitute" uni0E2E.alt
EndChar

StartChar: uni0E1D
Encoding: 3613 3613 31
Width: 649
VWidth: 0
Flags: W
HStem: 526 80<228.708 309.38> 840 20G<642.735 796>
VStem: 73 153<117.055 273.672> 311 76<438.063 523.456>
LayerCount: 2
Fore
SplineSet
647 860 m 1
 796 860 l 1
 651 180 l 2
 620 36 540 -6 412 -6 c 1
 381 220 l 1
 263 -6 l 1
 156 -6 73 26 73 128 c 0
 73 143 75 161 79 180 c 2
 142 476 l 2
 157 548 224 606 291 606 c 0
 349 606 387 563 387 505 c 0
 387 496 386 486 384 476 c 0
 371 415 320 363 264 350 c 1
 237 220 l 2
 231 189 226 167 226 150 c 0
 226 136 230 125 237 115 c 1
 385 370 l 1
 440 370 l 1
 486 105 l 1
 647 860 l 1
274 526 m 0
 248 526 223 504 217 476 c 0
 216 472 216 468 216 464 c 0
 216 442 230 426 252 426 c 0
 278 426 304 448 310 476 c 0
 311 480 311 484 311 488 c 0
 311 510 296 526 274 526 c 0
EndSplineSet
EndChar

StartChar: uni0E1A
Encoding: 3610 3610 32
Width: 621
VWidth: 0
Flags: W
HStem: -12 105<306.247 438.264> 526 80<205.708 286.38>
VStem: 116 77<428.337 514.707> 145 151<105.811 221.19> 288 76<438.462 523.456>
LayerCount: 2
Fore
SplineSet
268 606 m 0xe0
 326 606 364 563 364 505 c 0xe8
 364 496 363 486 361 476 c 2
 300 190 l 1
 298 178 296 167 296 158 c 0
 296 107 331 93 368 93 c 0
 412 93 459 112 477 190 c 1
 562 590 l 1
 711 590 l 1
 625 188 l 2
 591 26 470 -12 346 -12 c 0
 238 -12 145 17 145 131 c 0xd0
 145 148 147 167 151 188 c 2
 186 350 l 1
 144 361 116 400 116 448 c 0
 116 457 117 466 119 476 c 0
 134 548 201 606 268 606 c 0xe0
251 526 m 0
 225 526 200 504 194 476 c 0
 193 472 193 468 193 464 c 0
 193 442 208 426 230 426 c 0
 256 426 281 448 287 476 c 0
 288 480 288 484 288 488 c 0
 288 510 273 526 251 526 c 0
EndSplineSet
EndChar

StartChar: uni0E1B
Encoding: 3611 3611 33
Width: 621
VWidth: 0
Flags: W
HStem: -12 105<306.247 438.264> 526 80<205.708 286.38> 840 20G<614.761 768>
VStem: 116 77<428.337 514.707> 145 151<105.811 221.19> 288 76<438.462 523.456>
LayerCount: 2
Fore
SplineSet
268 606 m 0xf0
 326 606 364 563 364 505 c 0xf4
 364 496 363 486 361 476 c 2
 300 190 l 1
 298 178 296 167 296 158 c 0
 296 107 331 93 368 93 c 0
 412 93 459 112 477 190 c 1
 619 860 l 1
 768 860 l 1
 625 188 l 2
 591 26 470 -12 346 -12 c 0
 238 -12 145 17 145 131 c 0xe8
 145 148 147 167 151 188 c 2
 186 350 l 1
 144 361 116 400 116 448 c 0
 116 457 117 466 119 476 c 0
 134 548 201 606 268 606 c 0xf0
251 526 m 0
 225 526 200 504 194 476 c 0
 193 472 193 468 193 464 c 0
 193 442 208 426 230 426 c 0
 256 426 281 448 287 476 c 0
 288 480 288 484 288 488 c 0
 288 510 273 526 251 526 c 0
EndSplineSet
EndChar

StartChar: uni0E49
Encoding: 3657 3657 34
Width: 7
VWidth: 0
Flags: W
HStem: 970 70<16 88.2555> 970 55<-114.901 -73> 1160 50<-28.6762 24.5258>
VStem: 160 108<1117.55 1180>
LayerCount: 2
Fore
SplineSet
13 1210 m 0x70
 49 1210 73 1183 73 1147 c 0
 73 1142 72 1136 71 1130 c 0
 59 1073 16 1040 16 1040 c 1xb0
 71 1040 140 1086 160 1180 c 1
 268 1180 l 1
 240 1050 141 970 -8 970 c 2
 -86 970 l 2
 -117 970 -119 1014 -119 1023 c 0
 -119 1024 -119 1025 -119 1025 c 1
 -73 1031 l 2
 -56 1033 -41 1044 -35 1052 c 1
 -62 1058 -80 1082 -80 1113 c 0
 -80 1118 -79 1124 -78 1130 c 0
 -69 1174 -28 1210 13 1210 c 0x70
3 1160 m 0
 -14 1160 -27 1147 -31 1130 c 0
 -35 1113 -27 1100 -10 1100 c 0
 5 1100 20 1113 24 1130 c 0
 28 1147 18 1160 3 1160 c 0
EndSplineSet
Position2: "Nikhahit & Tone High-Left" dx=-150 dy=0 dh=0 dv=0
Position2: "Mai Han-Akat & Tone High-Left" dx=-180 dy=0 dh=0 dv=0
Position2: "Tone High-Left" dx=-120 dy=0 dh=0 dv=0
MultipleSubs2: "Tone High-Low" uni0E49.low
EndChar

StartChar: uni0E1C
Encoding: 3612 3612 35
Width: 649
VWidth: 0
Flags: W
HStem: 526 80<228.708 309.38>
VStem: 73 153<117.055 273.672> 311 76<438.063 523.456>
LayerCount: 2
Fore
SplineSet
590 590 m 1
 738 590 l 1
 651 180 l 2
 620 36 540 -6 412 -6 c 1
 381 220 l 1
 263 -6 l 1
 156 -6 73 26 73 128 c 0
 73 143 75 161 79 180 c 2
 142 476 l 2
 157 548 224 606 291 606 c 0
 349 606 387 563 387 505 c 0
 387 496 386 486 384 476 c 0
 371 415 320 363 264 350 c 1
 237 220 l 2
 231 189 226 167 226 150 c 0
 226 136 230 125 237 115 c 1
 385 370 l 1
 440 370 l 1
 486 105 l 1
 590 590 l 1
274 526 m 0
 248 526 223 504 217 476 c 0
 216 472 216 468 216 464 c 0
 216 442 230 426 252 426 c 0
 278 426 304 448 310 476 c 0
 311 480 311 484 311 488 c 0
 311 510 296 526 274 526 c 0
EndSplineSet
EndChar

StartChar: uni0E1E
Encoding: 3614 3614 36
Width: 649
VWidth: 0
Flags: W
HStem: 526 80<205.708 286.38>
VStem: 116 77<428.337 514.707> 288 76<438.044 523.456> 421 67<110 298.267> 430 66<110 320>
LayerCount: 2
Fore
SplineSet
186 350 m 1xe8
 144 361 116 400 116 448 c 0
 116 457 117 466 119 476 c 0
 134 548 201 606 268 606 c 0
 326 606 364 563 364 505 c 0
 364 496 363 486 361 476 c 2
 283 110 l 1
 441 500 l 1
 496 500 l 1xe8
 488 110 l 1
 590 590 l 1
 739 590 l 1
 635 100 l 2
 617 15 479 -6 421 -6 c 1xf0
 430 320 l 1
 301 -6 l 1
 247 -6 130 14 130 85 c 0
 130 90 131 95 132 100 c 1
 186 350 l 1xe8
251 526 m 0
 225 526 200 504 194 476 c 0
 193 472 193 468 193 464 c 0
 193 442 208 426 230 426 c 0
 256 426 281 448 287 476 c 0
 288 480 288 484 288 488 c 0
 288 510 273 526 251 526 c 0
EndSplineSet
EndChar

StartChar: uni0E1F
Encoding: 3615 3615 37
Width: 649
VWidth: 0
Flags: W
HStem: 526 80<205.708 286.38> 840 20G<642.76 796>
VStem: 116 77<428.337 514.707> 288 76<438.044 523.456> 421 67<110 298.267> 430 66<110 320>
LayerCount: 2
Fore
SplineSet
186 350 m 1xf4
 144 361 116 400 116 448 c 0
 116 457 117 466 119 476 c 0
 134 548 201 606 268 606 c 0
 326 606 364 563 364 505 c 0
 364 496 363 486 361 476 c 2
 283 110 l 1
 441 500 l 1
 496 500 l 1xf4
 488 110 l 1
 647 860 l 1
 796 860 l 1
 635 100 l 2
 617 15 479 -6 421 -6 c 1xf8
 430 320 l 1
 301 -6 l 1
 247 -6 130 14 130 85 c 0
 130 90 131 95 132 100 c 1
 186 350 l 1xf4
251 526 m 0
 225 526 200 504 194 476 c 0
 193 472 193 468 193 464 c 0
 193 442 208 426 230 426 c 0
 256 426 281 448 287 476 c 0
 288 480 288 484 288 488 c 0
 288 510 273 526 251 526 c 0
EndSplineSet
EndChar

StartChar: uni0E30
Encoding: 3632 3632 38
Width: 491
VWidth: 0
Flags: W
HStem: 30 80<210.261 316.693> 220 60<135.288 197.496> 340 80<276.261 382.567> 530 60<200.788 263.464>
VStem: 72 59<105.5 215.89> 138 58<415.5 525.89> 198 56<153.5 219.692> 264 56<463.5 529.692>
LayerCount: 2
Fore
SplineSet
184 280 m 0
 225 280 254 248 254 206 c 0
 254 199 254 192 252 185 c 0
 247 160 231 133 209 120 c 1
 215 111 230 110 250 110 c 0
 325 110 387 205 399 260 c 1
 510 260 l 1
 489 161 390 30 233 30 c 0
 156 30 72 61 72 150 c 0
 72 160 73 172 76 185 c 0
 87 237 136 280 184 280 c 0
172 220 m 0
 154 220 136 204 132 185 c 0
 131 182 131 180 131 177 c 0
 131 162 141 150 157 150 c 0
 175 150 193 166 197 185 c 0
 198 188 198 190 198 193 c 0
 198 208 188 220 172 220 c 0
250 590 m 0
 291 590 320 558 320 516 c 0
 320 509 320 502 318 495 c 0
 313 470 297 443 275 430 c 1
 281 421 296 420 316 420 c 0
 391 420 452 515 464 570 c 1
 576 570 l 1
 555 471 456 340 299 340 c 0
 222 340 138 371 138 460 c 0
 138 470 139 482 142 495 c 0
 153 547 202 590 250 590 c 0
237 530 m 0
 219 530 201 514 197 495 c 0
 196 493 196 490 196 488 c 0
 196 472 207 460 223 460 c 0
 241 460 259 476 263 495 c 0
 264 497 264 500 264 502 c 0
 264 518 253 530 237 530 c 0
EndSplineSet
EndChar

StartChar: uni0E43
Encoding: 3651 3651 39
Width: 316
VWidth: 0
Flags: W
HStem: -6 80<181.617 250.792> 780 55<243.064 318.676> 925 50<305 324.938> 986 66<305.739 411.905>
VStem: 105 76<75.6125 147.676> 185 57<836.072 915.692> 258 76<81.2455 152.055> 328 52<845.708 922.889> 423 89<832.98 975.22>
LayerCount: 2
Fore
SplineSet
382 1052 m 0xfd80
 467 1052 512 990 512 918 c 0
 512 905 511 893 508 880 c 0
 478 740 387 726 364 620 c 2
 281 227 l 1
 314 214 334 181 334 141 c 0xfe80
 334 132 333 123 331 114 c 0
 317 48 255 -6 194 -6 c 0
 141 -6 105 34 105 88 c 0
 105 96 106 105 108 114 c 2
 215 620 l 2
 240 737 398 777 420 880 c 0
 422 891 423 901 423 911 c 0
 423 952 405 986 368 986 c 0
 348 986 316 983 305 975 c 1
 350 975 380 943 380 900 c 0
 380 894 379 887 378 880 c 0
 366 825 314 780 263 780 c 0
 219 780 185 814 185 861 c 0
 185 869 186 877 188 885 c 0
 212 1000 301 1052 382 1052 c 0xfd80
294 925 m 0
 271 925 248 905 243 880 c 0
 242 877 242 873 242 870 c 0
 242 850 255 835 275 835 c 0
 298 835 322 855 327 880 c 0
 328 883 328 886 328 889 c 0xfd80
 328 910 314 925 294 925 c 0
228 154 m 0
 208 154 187 136 182 114 c 0
 181 111 181 108 181 105 c 0
 181 87 194 74 211 74 c 0
 231 74 252 92 257 114 c 0
 258 117 258 120 258 123 c 0xfe80
 258 141 245 154 228 154 c 0
EndSplineSet
EndChar

StartChar: uni0E44
Encoding: 3652 3652 40
Width: 316
VWidth: 0
Flags: W
HStem: -6 80<182.617 251.354>
VStem: 106 76<75.6125 147.676> 258 77<81.2455 153.15>
LayerCount: 2
Fore
SplineSet
196 1052 m 1
 263 1052 305 950 305 950 c 1
 429 1052 l 1
 467 1052 495 1019 495 980 c 0
 495 974 494 968 493 962 c 0
 465 828 398 773 361 600 c 2
 281 227 l 1
 314 214 335 181 335 140 c 0
 335 132 334 123 332 114 c 0
 318 48 256 -6 195 -6 c 0
 142 -6 106 34 106 88 c 0
 106 96 107 105 109 114 c 2
 212 600 l 1
 257 780 403 862 425 967 c 1
 273 845 l 1
 273 845 232 962 177 962 c 1
 196 1052 l 1
229 154 m 0
 209 154 188 136 183 114 c 0
 182 111 182 108 182 105 c 0
 182 87 195 74 212 74 c 0
 232 74 252 92 257 114 c 0
 258 117 258 120 258 123 c 0
 258 141 246 154 229 154 c 0
EndSplineSet
EndChar

StartChar: uni0E29
Encoding: 3625 3625 41
Width: 669
VWidth: 0
Flags: W
HStem: -12 105<300.555 438.212> 395 45<393.611 453.298> 526 80<196.708 277.38>
VStem: 107 77<427.391 514.707> 136 152<106.536 284.016> 279 76<438.462 523.456> 342 45<325.215 389.259> 454 43<331.188 393.864> 685 84<323.808 380>
LayerCount: 2
Fore
SplineSet
259 606 m 0xf180
 317 606 355 563 355 505 c 0xf580
 355 496 354 486 352 476 c 2
 291 190 l 1
 289 179 288 169 288 160 c 0
 288 107 326 93 364 93 c 0
 408 93 459 112 477 190 c 1
 478 192 l 1
 420 202 342 240 342 326 c 0
 342 337 343 348 346 360 c 0
 355 404 396 440 437 440 c 0
 473 440 497 413 497 377 c 0
 497 372 496 366 495 360 c 0
 489 333 469 309 445 296 c 1
 460 281 476 273 494 270 c 1
 562 590 l 1
 711 590 l 1
 653 315 l 1
 668 330 678 348 685 380 c 1
 769 380 l 1
 755 314 706 257 632 217 c 1
 626 188 l 2
 592 26 465 -12 341 -12 c 0
 233 -12 136 17 136 133 c 0xeb80
 136 149 138 168 142 188 c 2
 176 350 l 1
 134 361 107 399 107 447 c 0
 107 457 108 466 110 476 c 0
 125 548 192 606 259 606 c 0xf180
242 526 m 0
 216 526 191 504 185 476 c 0
 184 472 184 468 184 464 c 0
 184 442 199 426 221 426 c 0
 247 426 272 448 278 476 c 0
 279 480 279 484 279 488 c 0
 279 510 264 526 242 526 c 0
428 395 m 0
 410 395 392 379 388 360 c 0
 387 357 387 355 387 352 c 0xe380
 387 337 397 325 413 325 c 0
 431 325 449 341 453 360 c 0
 454 363 454 365 454 368 c 0
 454 383 444 395 428 395 c 0
EndSplineSet
EndChar

StartChar: uni0E42
Encoding: 3650 3650 42
Width: 317
VWidth: 0
Flags: W
HStem: -6 80<182.617 251.354> 977 75<281.115 410.853>
VStem: 106 76<75.6125 147.676> 248 135<648.969 856.453> 258 77<81.2455 153.15>
LayerCount: 2
Fore
SplineSet
364 1052 m 0xf0
 410 1052 450 1024 465 1005 c 1
 485 1024 530 1042 559 1052 c 1
 540 962 l 1
 504 952 464 930 445 910 c 1
 422 946 391 977 348 977 c 0
 308 977 276 952 263 930 c 1
 328 907 383 856 383 748 c 0xf0
 383 722 380 693 373 660 c 2
 281 227 l 1
 314 214 335 181 335 140 c 0xe8
 335 132 334 123 332 114 c 0
 318 48 256 -6 195 -6 c 0
 142 -6 106 34 106 88 c 0
 106 96 107 105 109 114 c 2
 225 660 l 2
 238 722 248 772 248 809 c 0
 248 867 226 895 163 895 c 1
 180 977 276 1052 364 1052 c 0xf0
229 154 m 0
 209 154 188 136 183 114 c 0
 182 111 182 108 182 105 c 0
 182 87 195 74 212 74 c 0
 232 74 252 92 257 114 c 0
 258 117 258 120 258 123 c 0xe8
 258 141 246 154 229 154 c 0
EndSplineSet
EndChar

StartChar: uni0E21
Encoding: 3617 3617 43
Width: 575
VWidth: 0
Flags: W
HStem: -6 80<137.62 218.815> 526 80<223.824 304.38>
VStem: 60 76<76.5437 162.425> 135 76<427.391 514.707> 306 76<438.06 523.456>
LayerCount: 2
Fore
SplineSet
204 350 m 1xe8
 162 361 135 399 135 447 c 0xd8
 135 457 136 466 138 476 c 0
 153 548 219 606 286 606 c 0
 344 606 382 563 382 505 c 0
 382 496 381 486 379 476 c 2
 322 205 l 1
 379 169 401 116 410 95 c 1
 515 590 l 1
 664 590 l 1
 558 90 l 2
 545 27 427 -6 370 -6 c 1
 352 40 336 82 301 110 c 1
 280 44 218 -6 156 -6 c 0
 98 -6 60 37 60 95 c 0
 60 104 61 114 63 124 c 0
 76 185 127 237 183 250 c 1
 204 350 l 1xe8
269 526 m 0
 243 526 218 504 212 476 c 0
 211 472 211 468 211 464 c 0
 211 442 226 426 248 426 c 0
 274 426 299 448 305 476 c 0
 306 480 306 484 306 488 c 0
 306 510 291 526 269 526 c 0
194 174 m 0
 168 174 143 152 137 124 c 0
 136 120 136 116 136 112 c 0xe8
 136 90 151 74 173 74 c 0
 199 74 224 96 230 124 c 0
 231 128 231 132 231 136 c 0
 231 158 216 174 194 174 c 0
EndSplineSet
EndChar

StartChar: uni0E06
Encoding: 3590 3590 44
Width: 584
VWidth: 0
Flags: W
HStem: -6 80<147.603 228.795> 174 80<159.189 237.693> 298 55<175.726 245.379> 433 50<182.431 251.405> 551 55<204.31 274.969>
VStem: 69 77<76.5437 161.734> 108 67<355.158 426.676> 252 47<361.324 430.941> 388 69<400.957 554.15>
LayerCount: 2
Fore
SplineSet
258 606 m 0xfb80
 314 606 314 543 314 543 c 1
 362 606 l 1
 388 606 l 1
 428 592 457 548 457 487 c 0
 457 474 455 459 452 444 c 0
 424 313 353 288 339 220 c 2
 335 200 l 1
 389 164 411 115 420 95 c 1
 525 590 l 1
 674 590 l 1
 567 90 l 2
 554 27 437 -6 380 -6 c 1
 362 40 345 82 310 110 c 1
 290 45 228 -6 166 -6 c 0
 108 -6 69 37 69 95 c 0xfd80
 69 105 70 114 72 124 c 0
 87 194 150 251 216 254 c 1
 269 318 366 369 382 444 c 0
 386 464 388 481 388 495 c 0
 388 519 382 537 372 556 c 1
 319 484 l 1
 280 484 l 1
 278 507 281 551 244 551 c 0
 209 551 178 492 169 449 c 1
 184 466 206 483 232 483 c 0
 272 483 299 453 299 413 c 0
 299 407 299 400 297 393 c 0
 286 343 239 298 193 298 c 0
 139 298 108 337 108 400 c 0
 108 415 109 431 113 448 c 1
 124 497 176 606 258 606 c 0xfb80
222 433 m 0
 202 433 181 415 176 393 c 0
 175 390 175 387 175 384 c 0xfb80
 175 366 188 353 205 353 c 0
 225 353 246 371 251 393 c 0
 252 396 252 399 252 402 c 0
 252 420 239 433 222 433 c 0
204 174 m 0
 178 174 153 152 147 124 c 0
 146 120 146 116 146 112 c 0xfd80
 146 90 161 74 183 74 c 0
 209 74 234 96 240 124 c 0
 241 128 241 132 241 136 c 0
 241 158 226 174 204 174 c 0
EndSplineSet
EndChar

StartChar: uni0E31
Encoding: 3633 3633 45
Width: 9
VWidth: 0
Flags: W
HStem: 680 80<-70.251 36.5666> 870 60<-145.348 -83.9032>
VStem: -209 59<755.5 865.89> -83 57<803.5 869.692> 118 112<852.012 910>
LayerCount: 2
Fore
SplineSet
-96 930 m 0
 -55 930 -26 898 -26 856 c 0
 -26 849 -26 842 -28 835 c 0
 -33 810 -50 783 -72 770 c 1
 -66 761 -50 760 -30 760 c 0
 45 760 106 855 118 910 c 1
 230 910 l 1
 209 811 110 680 -47 680 c 0
 -124 680 -209 711 -209 800 c 0
 -209 811 -208 822 -205 835 c 0
 -194 887 -144 930 -96 930 c 0
-109 870 m 0
 -127 870 -145 854 -149 835 c 0
 -150 832 -150 830 -150 827 c 0
 -150 812 -140 800 -124 800 c 0
 -106 800 -88 816 -84 835 c 0
 -83 838 -83 840 -83 843 c 0
 -83 858 -93 870 -109 870 c 0
EndSplineSet
Position2: "Vowel Above-Left" dx=-200 dy=0 dh=0 dv=0
EndChar

StartChar: uni0E4C
Encoding: 3660 3660 46
Width: 5
VWidth: 0
Flags: W
HStem: 920 64<20.9854 75.4495>
VStem: -38 285
LayerCount: 2
Fore
SplineSet
135 1180 m 1
 247 1180 l 1
 228 1131 176 1081 127 1063 c 1
 132 1053 134 1042 134 1030 c 0
 134 1023 133 1017 132 1010 c 0
 121 960 75 920 29 920 c 0
 -11 920 -38 950 -38 990 c 0
 -38 996 -38 1003 -36 1010 c 0
 -13 1117 109 1095 135 1180 c 1
55 1044 m 0
 39 1044 25 1031 21 1014 c 0
 17 997 27 984 43 984 c 0
 59 984 73 997 77 1014 c 0
 81 1031 71 1044 55 1044 c 0
EndSplineSet
Position2: "Tone High-Left" dx=-100 dy=0 dh=0 dv=0
MultipleSubs2: "Tone High-Low" uni0E4C.low
EndChar

StartChar: uni0E39
Encoding: 3641 3641 47
Width: 7
VWidth: 0
Flags: W
HStem: -340 70<-273.395 -212.985> -130 60<-376.212 -314.903>
VStem: -437 56<-199.917 -134.11> -314 57<-196.059 -130.308>
LayerCount: 2
Fore
SplineSet
-274 -235 m 2
 -274 -239 -275 -243 -275 -246 c 0
 -275 -259 -270 -270 -249 -270 c 0
 -221 -270 -213 -251 -209 -235 c 2
 -176 -80 l 1
 -73 -80 l 1
 -114 -270 l 2
 -119 -295 -157 -340 -263 -340 c 0
 -359 -340 -384 -303 -384 -277 c 0
 -384 -275 -383 -272 -383 -270 c 2
 -381 -260 l 1
 -415 -254 -437 -224 -437 -186 c 0
 -437 -179 -437 -172 -435 -165 c 0
 -424 -113 -375 -70 -327 -70 c 0
 -286 -70 -257 -102 -257 -144 c 0
 -257 -151 -257 -158 -259 -165 c 2
 -274 -235 l 2
-340 -130 m 0
 -358 -130 -376 -146 -380 -165 c 0
 -381 -168 -381 -170 -381 -173 c 0
 -381 -188 -371 -200 -355 -200 c 0
 -337 -200 -319 -184 -315 -165 c 0
 -314 -162 -314 -160 -314 -157 c 0
 -314 -142 -324 -130 -340 -130 c 0
EndSplineSet
Position2: "Vowel Below-Low" dx=0 dy=-200 dh=0 dv=0
EndChar

StartChar: uni0E03
Encoding: 3587 3587 48
Width: 584
VWidth: 0
Flags: W
HStem: -12 110<322.742 417.239> 298 55<171.714 239.752> 433 50<178.353 245.877> 551 55<199.879 271.492>
VStem: 104 67<355.158 427.188> 168 152<100.782 228.457> 247 47<361.324 431.876> 384 68<401.221 554.15>
LayerCount: 2
Fore
SplineSet
253 606 m 0xfb
 309 606 309 543 309 543 c 1
 357 606 l 1
 383 606 l 1
 423 592 452 548 452 487 c 0
 452 474 450 459 447 444 c 0
 419 313 349 287 335 219 c 2
 323 165 l 2
 321 158 320 150 320 142 c 0
 320 119 330 98 365 98 c 0
 413 98 429 137 435 165 c 2
 525 590 l 1
 674 590 l 1
 578 140 l 2
 570 102 488 -12 341 -12 c 0
 207 -12 168 82 168 128 c 0xf5
 168 133 168 137 169 140 c 2
 180 194 l 2
 201 291 357 347 378 444 c 0
 382 463 384 479 384 493 c 0
 384 519 377 536 367 556 c 1
 315 484 l 1
 276 484 l 1
 274 507 277 551 240 551 c 0
 205 551 174 492 165 449 c 1
 180 466 202 483 228 483 c 0
 267 483 294 454 294 414 c 0
 294 407 294 400 292 393 c 0
 281 343 235 298 189 298 c 0
 135 298 104 337 104 400 c 0
 104 415 105 431 109 448 c 1
 120 497 171 606 253 606 c 0xfb
217 433 m 0
 197 433 177 415 172 393 c 0
 171 390 171 387 171 384 c 0
 171 366 183 353 200 353 c 0
 220 353 241 371 246 393 c 0
 247 396 247 399 247 402 c 0xfb
 247 420 234 433 217 433 c 0
EndSplineSet
EndChar

StartChar: uni0E22
Encoding: 3618 3618 49
Width: 547
VWidth: 0
Flags: W
HStem: -12 105<237.228 376.336> 272 85<299.504 383> 526 80<242.719 323.38>
VStem: 70 151<107.856 222.684> 142 88<427 512.877> 325 76<439.523 523.456>
LayerCount: 2
Fore
SplineSet
305 606 m 0xec
 363 606 401 563 401 505 c 0
 401 496 400 486 398 476 c 0
 386 418 332 369 298 357 c 1
 401 357 l 1
 383 272 l 1
 301 272 235 235 223 180 c 0
 222 174 221 167 221 161 c 0
 221 122 249 93 298 93 c 0
 354 93 390 130 390 130 c 1
 487 590 l 1
 636 590 l 1
 523 60 l 1
 523 60 435 -12 276 -12 c 0
 138 -12 70 46 70 136 c 0xf4
 70 150 72 165 75 180 c 0
 87 235 124 295 194 325 c 1
 166 340 142 372 142 427 c 0
 142 442 143 458 147 476 c 0
 161 543 229 606 305 606 c 0xec
288 526 m 0
 262 526 237 504 231 476 c 0
 230 472 230 468 230 464 c 0xec
 230 442 244 426 266 426 c 0
 292 426 318 448 324 476 c 0
 325 480 325 484 325 488 c 0
 325 510 310 526 288 526 c 0
EndSplineSet
EndChar

StartChar: uni0E46
Encoding: 3654 3654 50
Width: 610
VWidth: 0
Flags: W
HStem: -340 110<201 283.482> 286 50<209.354 276.788> 416 50<215.433 283.098> 533 73<245.721 337.848>
VStem: 142 66<336.33 409.714> 284 48<344.937 413.941> 488 132<343.906 528.655>
LayerCount: 2
Fore
SplineSet
309 606 m 0
 356 606 401 573 404 545 c 1
 467 606 l 1
 518 606 l 1
 561 591 620 531 620 448 c 0
 620 436 619 423 616 410 c 2
 516 -60 l 2
 483 -213 330 -340 178 -340 c 1
 201 -230 l 1
 291 -230 355 -163 377 -60 c 2
 477 410 l 2
 484 444 488 470 488 489 c 0
 488 511 483 525 473 530 c 1
 402 460 l 1
 348 460 l 1
 348 462 349 465 349 468 c 0
 349 492 335 533 296 533 c 0
 253 533 226 492 215 442 c 1
 223 454 239 466 265 466 c 0
 305 466 332 436 332 396 c 0
 332 390 332 383 330 376 c 0
 319 326 273 286 227 286 c 0
 173 286 142 325 142 388 c 0
 142 403 143 419 147 436 c 0
 164 518 231 606 309 606 c 0
255 416 m 0
 235 416 214 398 209 376 c 0
 208 373 208 370 208 367 c 0
 208 349 221 336 238 336 c 0
 258 336 278 354 283 376 c 0
 284 379 284 382 284 385 c 0
 284 403 272 416 255 416 c 0
EndSplineSet
EndChar

StartChar: uni0E47
Encoding: 3655 3655 51
Width: 8
VWidth: 0
Flags: W
HStem: 660 57<-76.2096 -37.2637> 801 45<-13.6608 31.2893> 861 75<-191.359 37.1084>
VStem: -307 95<744.845 842.025> 57 93<956.163 1006>
LayerCount: 2
Fore
SplineSet
57 1006 m 1
 150 1006 l 1
 135 934 56 861 -11 861 c 2
 -132 861 l 2
 -177 861 -203 835 -211 796 c 0
 -212 792 -212 788 -212 784 c 0
 -212 757 -192 744 -192 744 c 1
 -145 800 l 1
 -89 800 l 1
 -89 750 -71 717 -35 717 c 1
 -48 728 -58 745 -58 765 c 0
 -58 768 -58 772 -57 776 c 0
 -49 815 -13 846 23 846 c 0
 54 846 75 823 75 792 c 0
 75 787 74 781 73 776 c 0
 61 719 8 660 -63 660 c 0
 -105 660 -131 688 -143 721 c 1
 -187 666 l 1
 -246 666 -307 698 -307 767 c 0
 -307 776 -306 786 -304 796 c 0
 -289 868 -211 936 -135 936 c 2
 -14 936 l 2
 26 936 49 967 57 1006 c 1
13 801 m 0
 0 801 -12 790 -15 776 c 0
 -18 762 -10 751 3 751 c 0
 16 751 28 762 31 776 c 0
 34 790 26 801 13 801 c 0
EndSplineSet
Position2: "Vowel Above-Left" dx=-120 dy=0 dh=0 dv=0
EndChar

StartChar: uni0E0B
Encoding: 3595 3595 52
Width: 594
VWidth: 0
Flags: W
HStem: -12 110<322.742 417.239> 298 55<171.714 239.752> 433 50<178.353 245.877> 551 55<199.879 271.492>
VStem: 104 67<355.158 427.188> 168 152<100.816 177.8> 247 47<361.324 431.876> 477 149<321.5 415.604> 591 139<612.759 680>
LayerCount: 2
Fore
SplineSet
591 680 m 1xfa80
 730 680 l 1xfa80
 704 557 602 497 542 475 c 1
 542 475 626 423 626 370 c 0
 626 367 626 363 625 360 c 2
 578 140 l 2
 570 102 488 -12 341 -12 c 0
 207 -12 168 82 168 128 c 0xf5
 168 133 168 137 169 140 c 2
 180 194 l 2
 201 291 357 347 378 444 c 0
 382 463 384 479 384 493 c 0
 384 519 377 536 367 556 c 1
 315 484 l 1
 276 484 l 1
 274 507 277 551 240 551 c 0
 205 551 174 492 165 449 c 1
 180 466 202 483 228 483 c 0
 267 483 294 454 294 414 c 0
 294 407 294 400 292 393 c 0
 281 343 235 298 189 298 c 0
 135 298 104 337 104 400 c 0
 104 415 105 431 109 448 c 1
 120 497 171 606 253 606 c 0
 309 606 309 543 309 543 c 1
 357 606 l 1
 383 606 l 1
 416 595 442 564 450 520 c 1
 524 553 573 597 591 680 c 1xfa80
217 433 m 0
 197 433 177 415 172 393 c 0
 171 390 171 387 171 384 c 0
 171 366 183 353 200 353 c 0
 220 353 241 371 246 393 c 0
 247 396 247 399 247 402 c 0
 247 420 234 433 217 433 c 0
442 424 m 1
 412 310 349 283 335 219 c 2
 323 165 l 2
 321 158 320 150 320 142 c 0
 320 119 330 98 365 98 c 0
 413 98 429 137 435 165 c 2
 476 360 l 2
 477 363 477 366 477 368 c 0xf5
 477 388 462 410 442 424 c 1
EndSplineSet
Substitution2: "Ascent Substitute" uni0E0B.alt
EndChar

StartChar: uni0E02
Encoding: 3586 3586 53
Width: 556
VWidth: 0
Flags: W
HStem: -12 110<298.536 388.538> 326 55<165.263 238.957> 471 52<192.247 247.431> 551 55<206.065 325.368>
VStem: 109 55<383.659 459.168> 140 153<100.705 233.535> 249 53<391.708 469.502> 342 71<395.88 535.527>
LayerCount: 2
Fore
SplineSet
290 606 m 0xfb
 368 606 413 547 413 478 c 0
 413 467 411 455 409 444 c 0
 381 313 327 313 307 219 c 2
 295 165 l 2
 294 159 293 152 293 145 c 0
 293 121 303 98 337 98 c 0
 381 98 401 137 407 165 c 2
 497 590 l 1
 646 590 l 1
 550 140 l 2
 542 102 460 -12 313 -12 c 0
 179 -12 140 82 140 128 c 0xf5
 140 133 140 137 141 140 c 2
 152 194 l 2
 178 318 318 347 339 444 c 0
 341 454 342 463 342 472 c 0
 342 518 316 551 271 551 c 0
 237 551 208 532 192 511 c 1
 192 511 211 523 231 523 c 0
 271 523 302 500 302 453 c 0
 302 445 301 436 299 426 c 0
 287 371 236 326 185 326 c 0
 141 326 109 364 109 415 c 0
 109 423 110 432 112 441 c 0
 133 540 214 606 290 606 c 0xfb
216 471 m 0
 194 471 170 450 165 426 c 0
 164 423 164 420 164 417 c 0
 164 397 178 381 197 381 c 0
 219 381 243 402 248 426 c 0
 249 429 249 432 249 435 c 0xfb
 249 455 235 471 216 471 c 0
EndSplineSet
EndChar

StartChar: uni0E0A
Encoding: 3594 3594 54
Width: 566
VWidth: 0
Flags: W
HStem: -12 110<298.536 388.538> 326 55<165.263 238.957> 471 52<192.247 247.431> 551 55<206.065 326.427>
VStem: 109 55<383.659 459.168> 140 153<100.748 177.8> 249 53<391.708 469.502> 449 149<321 415.604> 563 139<612.836 680>
LayerCount: 2
Fore
SplineSet
563 680 m 1xfa80
 702 680 l 1xfa80
 676 557 574 497 514 475 c 1
 514 475 598 423 598 370 c 0
 598 367 598 363 597 360 c 2
 550 140 l 2
 542 102 460 -12 313 -12 c 0
 179 -12 140 82 140 128 c 0xf5
 140 133 140 137 141 140 c 2
 152 194 l 2
 178 318 318 347 339 444 c 0
 341 454 342 463 342 472 c 0
 342 518 316 551 271 551 c 0
 237 551 208 532 192 511 c 1
 192 511 211 523 231 523 c 0
 271 523 302 500 302 453 c 0
 302 445 301 436 299 426 c 0
 287 371 236 326 185 326 c 0
 141 326 109 364 109 415 c 0
 109 423 110 432 112 441 c 0
 133 540 214 606 290 606 c 0
 354 606 396 567 409 515 c 1
 490 548 545 593 563 680 c 1xfa80
216 471 m 0
 194 471 170 450 165 426 c 0
 164 423 164 420 164 417 c 0
 164 397 178 381 197 381 c 0
 219 381 243 402 248 426 c 0
 249 429 249 432 249 435 c 0
 249 455 235 471 216 471 c 0
406 430 m 1
 377 313 326 310 307 219 c 2
 295 165 l 2
 294 159 293 152 293 145 c 0
 293 121 303 98 337 98 c 0
 381 98 401 137 407 165 c 2
 448 360 l 2
 448 362 449 365 449 367 c 0xf5
 449 390 429 416 406 430 c 1
EndSplineSet
Substitution2: "Ascent Substitute" uni0E0A.alt
EndChar

StartChar: uni0E19
Encoding: 3609 3609 55
Width: 603
VWidth: 0
Flags: W
HStem: -6 75<440.03 520.197> 526 80<214.708 295.38>
VStem: 125 77<428.337 514.707> 297 76<437.662 523.456> 533 71<81.842 167.559>
LayerCount: 2
Fore
SplineSet
277 606 m 0
 335 606 373 563 373 505 c 0
 373 496 372 486 370 476 c 2
 295 120 l 1
 337 155 384 186 437 220 c 1
 515 590 l 1
 664 590 l 1
 589 235 l 1
 566 220 l 1
 587 208 604 183 604 147 c 0
 604 138 603 129 601 119 c 0
 586 50 522 -6 458 -6 c 0
 403 -6 366 35 365 90 c 1
 327 62 263 20 240 -6 c 1
 189 -6 140 29 140 81 c 0
 140 87 141 94 142 100 c 2
 195 350 l 1
 153 361 125 400 125 448 c 0
 125 457 126 466 128 476 c 0
 143 548 210 606 277 606 c 0
260 526 m 0
 234 526 209 504 203 476 c 0
 202 472 202 468 202 464 c 0
 202 442 217 426 239 426 c 0
 265 426 290 448 296 476 c 0
 297 480 297 484 297 488 c 0
 297 510 282 526 260 526 c 0
496 169 m 0
 470 169 445 147 439 119 c 0
 438 115 438 111 438 107 c 0
 438 85 452 69 474 69 c 0
 500 69 526 91 532 119 c 0
 533 123 533 127 533 131 c 0
 533 153 518 169 496 169 c 0
EndSplineSet
EndChar

StartChar: uni0E23
Encoding: 3619 3619 56
Width: 510
VWidth: 0
Flags: W
HStem: -6 80<320.617 389.792> 505 95<552.903 600> 527 85<289.445 444.677>
VStem: 244 76<75.6125 146.89> 365 150<278.04 354.207>
LayerCount: 2
Fore
SplineSet
364 315 m 2xb8
 364 317 365 319 365 322 c 0
 365 380 184 382 110 390 c 1
 138 524 269 612 381 612 c 0xb8
 452 612 495 575 515 544 c 1
 539 571 591 600 620 600 c 1
 600 505 l 1xd8
 571 505 518 476 495 449 c 1
 455 505 413 527 363 527 c 0
 303 527 265 486 244 449 c 1
 391 432 515 419 515 336 c 0
 515 330 515 323 513 315 c 2
 470 114 l 2
 456 48 394 -6 333 -6 c 0
 280 -6 244 34 244 88 c 0
 244 96 245 105 247 114 c 0
 258 166 298 211 345 227 c 1
 364 315 l 2xb8
367 154 m 0
 347 154 326 136 321 114 c 0
 320 111 320 108 320 105 c 0
 320 87 333 74 350 74 c 0
 370 74 391 92 396 114 c 0
 397 117 397 120 397 123 c 0
 397 141 384 154 367 154 c 0
EndSplineSet
EndChar

StartChar: uni0E07
Encoding: 3591 3591 57
Width: 529
VWidth: 0
Flags: W
HStem: -12 438<304 462> 526 80<436.879 517.667>
VStem: 349 76<427.391 511.661> 520 77<437.99 523.456>
LayerCount: 2
Fore
SplineSet
418 350 m 1
 376 361 349 399 349 447 c 0
 349 457 350 466 352 476 c 0
 367 548 434 606 501 606 c 0
 559 606 597 563 597 505 c 0
 597 496 596 486 594 476 c 2
 517 114 l 2
 502 45 390 -12 304 -12 c 1
 104 448 l 1
 244 448 l 1
 370 124 l 1
 418 350 l 1
484 526 m 0
 458 526 432 504 426 476 c 0
 425 472 425 468 425 464 c 0
 425 442 440 426 462 426 c 0
 488 426 513 448 519 476 c 0
 520 480 520 484 520 488 c 0
 520 510 506 526 484 526 c 0
EndSplineSet
EndChar

StartChar: uni0E0E
Encoding: 3598 3598 58
Width: 584
VWidth: 0
Flags: W
HStem: -340 65<76.6687 151.604> -185 65<84.3211 159.53> -6 80<125.617 194.354> 502 110<330.288 463.668>
VStem: 13 62<-272.721 -194.624> 49 76<75.6125 146.89> 225 83<-149.028 -100> 483 151<335.665 481.569>
LayerCount: 2
Fore
SplineSet
427 612 m 0xf7
 535 612 634 558 634 433 c 0
 634 414 632 394 627 372 c 2
 548 0 l 1
 493 -260 l 2
 477 -333 308 -340 308 -340 c 1
 308 -340 252 -303 207 -267 c 1
 183 -310 140 -340 95 -340 c 0
 46 -340 13 -304 13 -255 c 0xfb
 13 -247 14 -239 16 -230 c 0
 29 -169 84 -120 141 -120 c 0
 168 -120 191 -131 205 -150 c 1
 213 -136 221 -118 225 -100 c 1
 308 -100 l 1
 301 -134 273 -175 257 -190 c 1
 301 -227 345 -255 345 -255 c 1
 399 0 l 1
 478 372 l 2
 482 389 483 404 483 417 c 0
 483 481 445 502 404 502 c 0
 367 502 321 480 298 440 c 1
 404 415 l 1
 404 415 329 371 312 290 c 1
 275 114 l 2
 261 48 199 -6 138 -6 c 0
 85 -6 49 34 49 88 c 0
 49 96 50 105 52 114 c 0
 63 166 103 211 150 227 c 1
 159 270 l 2
 177 354 240 390 240 390 c 1
 133 410 l 1
 178 500 305 612 427 612 c 0xf7
172 154 m 0
 152 154 131 136 126 114 c 0
 125 111 125 108 125 105 c 0xf7
 125 87 138 74 155 74 c 0
 175 74 195 92 200 114 c 0
 201 117 201 120 201 123 c 0
 201 141 189 154 172 154 c 0
127 -185 m 0
 104 -185 81 -205 76 -230 c 0
 75 -233 75 -237 75 -240 c 0xfb
 75 -260 88 -275 108 -275 c 0
 131 -275 155 -255 160 -230 c 0
 161 -227 161 -224 161 -221 c 0
 161 -200 147 -185 127 -185 c 0
EndSplineSet
Substitution2: "Descent Shorten" uni0E0E.shorten
EndChar

StartChar: uni0E2B
Encoding: 3627 3627 59
Width: 585
VWidth: 0
Flags: W
HStem: 0 21G<111 264.182 390 543.236> 530 70<208.753 284.373 521.686 602.756>
VStem: 116 77<428.337 514.707> 288 76<439.084 523.456> 443 67<431.881 518.381> 605 67<442.306 527.878>
LayerCount: 2
Fore
SplineSet
583 600 m 0
 636 600 672 560 672 506 c 0
 672 498 671 489 669 480 c 0
 660 440 634 404 602 383 c 1
 618 373 l 1
 539 0 l 1
 390 0 l 1
 460 328 l 1
 460 328 312 247 283 110 c 2
 260 0 l 1
 111 0 l 1
 186 350 l 1
 144 361 116 400 116 448 c 0
 116 457 117 466 119 476 c 0
 134 548 201 606 268 606 c 0
 326 606 364 563 364 505 c 0
 364 496 363 486 361 476 c 2
 326 309 l 1
 365 352 414 374 455 405 c 1
 447 418 443 434 443 452 c 0
 443 461 444 470 446 480 c 0
 460 546 522 600 583 600 c 0
568 530 m 0
 542 530 517 508 511 480 c 0
 510 476 510 472 510 468 c 0
 510 446 525 430 547 430 c 0
 573 430 598 452 604 480 c 0
 605 484 605 488 605 492 c 0
 605 514 590 530 568 530 c 0
251 526 m 0
 225 526 200 504 194 476 c 0
 193 472 193 468 193 464 c 0
 193 442 208 426 230 426 c 0
 256 426 281 448 287 476 c 0
 288 480 288 484 288 488 c 0
 288 510 273 526 251 526 c 0
EndSplineSet
EndChar

StartChar: uni0E3A
Encoding: 3642 3642 60
Width: 3
VWidth: 0
Flags: W
HStem: -230 160<-209.748 -122.954>
VStem: -243 153<-196.453 -103.333>
LayerCount: 2
Fore
SplineSet
-92 -150 m 0
 -102 -195 -142 -230 -184 -230 c 0
 -220 -230 -243 -205 -243 -169 c 0
 -243 -163 -242 -157 -241 -150 c 0
 -231 -105 -192 -70 -150 -70 c 0
 -114 -70 -90 -96 -90 -131 c 0
 -90 -137 -91 -143 -92 -150 c 0
EndSplineSet
Position2: "Vowel Below-Low" dx=0 dy=-200 dh=0 dv=0
EndChar

StartChar: uni0E53
Encoding: 3667 3667 61
Width: 742
VWidth: 0
Flags: W
HStem: -6 95<271.26 353.884> 199 95<280.999 366.108> 480 120<321.079 402.701>
VStem: 89 177<92.1782 277.093> 370 92<106.46 196.113> 629 154<258.188 478.71>
LayerCount: 2
Fore
SplineSet
602 606 m 1
 677 606 l 1
 750 577 783 506 783 412 c 0
 783 379 779 344 771 306 c 2
 706 0 l 1
 548 0 l 1
 613 306 l 2
 625 361 629 409 629 444 c 0
 629 458 628 470 627 480 c 1
 509 319 l 1
 419 319 l 1
 421 329 423 344 423 361 c 0
 423 412 409 480 362 480 c 0
 314 480 276 383 258 300 c 0
 256 289 253 274 252 259 c 1
 281 281 316 294 350 294 c 0
 416 294 462 244 462 178 c 0
 462 167 461 156 458 144 c 0
 440 61 363 -6 286 -6 c 0
 152 -6 89 75 89 201 c 0
 89 231 93 265 100 300 c 0
 135 466 275 600 387 600 c 0
 501 600 502 480 502 480 c 1
 602 606 l 1
330 199 m 0
 302 199 273 174 267 144 c 0
 266 140 266 136 266 132 c 0
 266 108 282 89 306 89 c 0
 334 89 363 114 369 144 c 0
 370 148 370 152 370 156 c 0
 370 180 354 199 330 199 c 0
EndSplineSet
EndChar

StartChar: uni0E24
Encoding: 3620 3620 62
Width: 565
VWidth: 0
Flags: W
HStem: -6 80<171.617 240.792> 502 110<311.288 444.992>
VStem: 95 76<75.6125 147.676> 248 76<81.2455 152.055> 465 151<334.385 480.935>
LayerCount: 2
Fore
SplineSet
131 270 m 2
 149 354 203 390 203 390 c 1
 114 410 l 1
 159 500 286 612 408 612 c 0
 516 612 616 558 616 432 c 0
 616 414 614 394 609 372 c 2
 457 -340 l 1
 308 -340 l 1
 460 372 l 2
 464 389 465 404 465 417 c 0
 465 481 426 502 385 502 c 0
 348 502 302 480 279 440 c 1
 367 415 l 1
 367 415 301 371 284 290 c 1
 271 227 l 1
 304 214 324 181 324 141 c 0
 324 132 323 123 321 114 c 0
 307 48 245 -6 184 -6 c 0
 131 -6 95 34 95 88 c 0
 95 96 96 105 98 114 c 2
 131 270 l 2
218 154 m 0
 198 154 177 136 172 114 c 0
 171 111 171 108 171 105 c 0
 171 87 184 74 201 74 c 0
 221 74 242 92 247 114 c 0
 248 117 248 120 248 123 c 0
 248 141 235 154 218 154 c 0
EndSplineSet
EndChar

StartChar: uni0E26
Encoding: 3622 3622 63
Width: 584
VWidth: 0
Flags: W
HStem: -6 80<125.617 194.354> 502 110<330.288 463.668>
VStem: 49 76<75.6125 146.89> 483 151<334.147 481.569>
LayerCount: 2
Fore
SplineSet
275 114 m 2
 261 48 199 -6 138 -6 c 0
 85 -6 49 34 49 88 c 0
 49 96 50 105 52 114 c 0
 63 166 103 211 150 227 c 1
 159 270 l 2
 177 354 240 390 240 390 c 1
 133 410 l 1
 178 500 305 612 427 612 c 0
 535 612 634 558 634 433 c 0
 634 414 632 394 627 372 c 2
 476 -340 l 1
 327 -340 l 1
 478 372 l 2
 482 389 483 404 483 417 c 0
 483 481 445 502 404 502 c 0
 367 502 321 480 298 440 c 1
 404 415 l 1
 404 415 329 371 312 290 c 1
 275 114 l 2
172 154 m 0
 152 154 131 136 126 114 c 0
 125 111 125 108 125 105 c 0
 125 87 138 74 155 74 c 0
 175 74 195 92 200 114 c 0
 201 117 201 120 201 123 c 0
 201 141 189 154 172 154 c 0
EndSplineSet
EndChar

StartChar: uni0E45
Encoding: 3653 3653 64
Width: 254
VWidth: 0
Flags: W
HStem: 502 110<56.2173 158.324>
VStem: -103 130<414 469.778> 167 149<292.75 495.022>
LayerCount: 2
Fore
SplineSet
8 -332 m 1
 160 382 l 2
 165 403 167 422 167 437 c 0
 167 484 146 502 111 502 c 0
 66 502 38 465 27 414 c 1
 -103 414 l 1
 -82 515 -18 612 134 612 c 0
 260 612 316 544 316 447 c 0
 316 426 314 405 309 382 c 2
 157 -332 l 1
 8 -332 l 1
EndSplineSet
EndChar

StartChar: uni0E50
Encoding: 3664 3664 65
Width: 690
VWidth: 0
Flags: W
HStem: -12 110<302 439.144> 502 110<378.856 516>
VStem: 93 159<153.499 355.148> 566 159<244.852 446.501>
LayerCount: 2
Fore
SplineSet
475 612 m 0
 623 612 725 506 725 366 c 0
 725 344 723 323 718 300 c 0
 681 128 513 -12 343 -12 c 0
 195 -12 93 94 93 234 c 0
 93 256 95 277 100 300 c 0
 137 472 305 612 475 612 c 0
452 502 m 0
 374 502 282 412 258 300 c 0
 254 282 252 264 252 247 c 0
 252 161 301 98 366 98 c 0
 444 98 536 188 560 300 c 0
 564 318 566 336 566 353 c 0
 566 439 517 502 452 502 c 0
EndSplineSet
EndChar

StartChar: uni0E27
Encoding: 3623 3623 66
Width: 501
VWidth: 0
Flags: W
HStem: -6 80<339.617 408.354> 502 110<293.349 398.859>
VStem: 263 76<75.6125 146.89> 406 149<365.4 495.482>
LayerCount: 2
Fore
SplineSet
371 612 m 0
 493 612 555 538 555 446 c 0
 555 431 553 416 550 400 c 2
 489 114 l 2
 475 48 413 -6 352 -6 c 0
 299 -6 263 34 263 88 c 0
 263 96 264 105 266 114 c 0
 277 166 317 211 364 227 c 1
 401 400 l 2
 404 415 406 429 406 441 c 0
 406 482 387 502 348 502 c 0
 298 502 269 456 260 415 c 1
 106 415 l 1
 123 496 229 612 371 612 c 0
386 154 m 0
 366 154 345 136 340 114 c 0
 339 111 339 108 339 105 c 0
 339 87 352 74 369 74 c 0
 389 74 409 92 414 114 c 0
 415 117 415 120 415 123 c 0
 415 141 403 154 386 154 c 0
EndSplineSet
EndChar

StartChar: uni0E17
Encoding: 3607 3607 67
Width: 593
VWidth: 0
Flags: W
HStem: 0 21G<120 273.286 409 561.261> 526 80<214.708 295.38>
VStem: 125 77<428.337 514.707> 297 76<440.6 523.456>
LayerCount: 2
Fore
SplineSet
277 606 m 0
 335 606 373 563 373 505 c 0
 373 496 372 486 370 476 c 2
 345 358 l 1
 387 424 448 501 526 596 c 1
 594 596 658 559 658 488 c 0
 658 479 657 470 655 460 c 1
 557 0 l 1
 409 0 l 1
 506 460 l 1
 433 385 309 187 284 70 c 2
 269 0 l 1
 120 0 l 1
 195 350 l 1
 153 361 125 400 125 448 c 0
 125 457 126 466 128 476 c 0
 143 548 210 606 277 606 c 0
260 526 m 0
 234 526 209 504 203 476 c 0
 202 472 202 468 202 464 c 0
 202 442 217 426 239 426 c 0
 265 426 290 448 296 476 c 0
 297 480 297 484 297 488 c 0
 297 510 282 526 260 526 c 0
EndSplineSet
EndChar

StartChar: uni0E2C
Encoding: 3628 3628 68
Width: 650
VWidth: 0
Flags: W
HStem: 526 80<196.708 277.38> 560 70<565.686 646.734>
VStem: 107 77<427.391 514.707> 279 76<438.044 523.456> 487 67<461.324 548.381> 649 66<513 558.513>
LayerCount: 2
Fore
SplineSet
627 630 m 0x7c
 680 630 715 590 715 537 c 0
 715 529 714 521 713 513 c 1
 749 530 779 560 779 560 c 1x7c
 754 440 l 1
 754 440 729 417 690 404 c 1
 626 100 l 2
 608 15 470 -6 412 -6 c 1
 398 210 l 1
 291 -6 l 1
 237 -6 121 14 121 85 c 0
 121 90 122 95 123 100 c 2
 176 350 l 1
 134 361 107 399 107 447 c 0
 107 457 108 466 110 476 c 0
 125 548 192 606 259 606 c 0xbc
 317 606 355 563 355 505 c 0
 355 496 354 486 352 476 c 2
 274 110 l 1
 417 390 l 1
 455 390 l 1
 479 110 l 1
 540 397 l 1
 507 410 487 443 487 483 c 0
 487 492 488 501 490 510 c 0
 504 576 566 630 627 630 c 0x7c
612 560 m 0
 586 560 561 538 555 510 c 0
 554 506 554 502 554 498 c 0
 554 476 568 460 590 460 c 0
 616 460 642 482 648 510 c 0
 649 514 649 518 649 522 c 0
 649 544 634 560 612 560 c 0
242 526 m 0xbc
 216 526 191 504 185 476 c 0
 184 472 184 468 184 464 c 0
 184 442 199 426 221 426 c 0
 247 426 272 448 278 476 c 0
 279 480 279 484 279 488 c 0
 279 510 264 526 242 526 c 0xbc
EndSplineSet
EndChar

StartChar: uni0E18
Encoding: 3608 3608 69
Width: 537
VWidth: 0
Flags: W
HStem: -12 110<258.109 363.314> 505 95<570.903 618> 522 90<305.797 465.659>
VStem: 97 154<103.184 177.579> 415 145<271.818 345.961>
LayerCount: 2
Fore
SplineSet
394 612 m 0xb8
 465 612 513 575 533 544 c 1
 557 571 609 600 638 600 c 1
 618 505 l 1xd8
 589 505 536 476 513 449 c 1
 473 505 425 522 375 522 c 0
 326 522 274 480 256 442 c 1
 405 425 560 405 560 311 c 0
 560 304 560 297 558 290 c 2
 527 140 l 2
 517 92 445 -12 280 -12 c 0
 135 -12 97 69 97 121 c 0
 97 128 98 134 99 140 c 2
 135 310 l 1
 284 310 l 1
 252 160 l 2
 251 156 251 151 251 147 c 0
 251 122 265 98 304 98 c 0
 349 98 376 132 382 160 c 2
 414 310 l 2
 414 312 415 314 415 316 c 0
 415 375 194 382 119 390 c 1
 147 524 282 612 394 612 c 0xb8
EndSplineSet
EndChar

StartChar: uni0E10
Encoding: 3600 3600 70
Width: 538
VWidth: 0
Flags: W
HStem: -340 60<30.9032 93.0765> -210 60<34.6517 96.8944> -110 50<372.34 425.534> 130 60<154.761 224.443> 270 60<160.466 229.916> 505 95<571.564 618> 527 85<301.714 462.813>
VStem: -27 57<-279.692 -214.11> 97 57<191.729 261.984> 151 74<-169.809 -120> 377 148<207.539 369.979>
LayerCount: 2
Fore
SplineSet
468 60 m 2xfba0
 455 -2 268 -6 268 -6 c 1
 278 40 l 2
 283 64 288 90 288 116 c 0
 288 142 283 167 268 189 c 1
 247 154 209 130 171 130 c 0
 127 130 97 163 97 208 c 0
 97 215 97 222 99 230 c 0
 111 285 163 330 214 330 c 0
 280 330 330 276 346 185 c 1
 376 330 l 2
 377 332 377 335 377 337 c 0
 377 396 207 402 133 410 c 1
 159 534 287 612 399 612 c 0xfba0
 470 612 514 575 534 544 c 1
 558 571 609 600 638 600 c 1
 618 505 l 1xfda0
 589 505 536 476 513 449 c 1
 473 505 431 527 381 527 c 0
 321 527 283 493 264 459 c 1
 410 442 525 421 525 338 c 0
 525 331 524 323 522 315 c 2
 468 60 l 2xfba0
201 270 m 0
 181 270 160 252 155 230 c 0
 154 227 154 224 154 221 c 0
 154 203 167 190 184 190 c 0
 204 190 225 208 230 230 c 0
 231 233 231 236 231 239 c 0
 231 257 218 270 201 270 c 0
414 -60 m 0
 450 -60 474 -87 474 -123 c 0
 474 -128 473 -134 472 -140 c 2
 446 -260 l 2
 430 -333 313 -340 313 -340 c 1
 260 -270 l 1
 210 -334 l 1
 148 -334 l 1
 134 -287 l 1
 112 -319 77 -340 43 -340 c 0
 2 -340 -27 -308 -27 -266 c 0
 -27 -259 -27 -252 -25 -245 c 0
 -14 -193 36 -150 84 -150 c 0
 104 -150 122 -158 134 -171 c 1
 141 -155 147 -137 151 -120 c 1
 225 -120 l 1xf960
 215 -166 196 -194 176 -220 c 1
 190 -265 l 1
 253 -185 l 1
 293 -185 l 1
 363 -282 l 1
 376 -220 l 1
 343 -217 321 -192 321 -158 c 0
 321 -152 322 -146 323 -140 c 0
 332 -96 373 -60 414 -60 c 0
404 -110 m 0
 388 -110 374 -123 370 -140 c 0
 366 -157 375 -170 391 -170 c 0
 407 -170 421 -157 425 -140 c 0
 429 -123 420 -110 404 -110 c 0
71 -210 m 0
 53 -210 35 -226 31 -245 c 0
 30 -248 30 -250 30 -253 c 0
 30 -268 40 -280 56 -280 c 0
 74 -280 92 -264 96 -245 c 0
 97 -242 97 -240 97 -237 c 0xf9a0
 97 -222 87 -210 71 -210 c 0
EndSplineSet
Substitution2: "Descent Substitute" uni0E10.descless
EndChar

StartChar: uni0E2F
Encoding: 3631 3631 71
Width: 482
VWidth: 0
Flags: W
HStem: -60 110<177 265.672> 315 85<234.792 361.072> 535 55<188.086 250.678>
VStem: 129 55<406.5 531.278> 251 52<468.89 534.492>
LayerCount: 2
Fore
SplineSet
236 590 m 0
 276 590 303 560 303 520 c 0
 303 514 303 507 301 500 c 0
 293 464 260 427 234 425 c 1
 244 410 269 400 289 400 c 0
 365 400 436 482 455 570 c 1
 567 570 l 1
 488 200 l 2
 455 47 306 -60 154 -60 c 1
 177 50 l 1
 267 50 318 97 340 200 c 2
 371 350 l 1
 371 350 344 315 271 315 c 0
 201 315 129 359 129 454 c 0
 129 468 130 483 134 500 c 0
 145 550 190 590 236 590 c 0
225 535 m 0
 207 535 189 519 185 500 c 0
 184 497 184 495 184 492 c 0
 184 477 194 465 210 465 c 0
 228 465 246 481 250 500 c 0
 251 503 251 505 251 508 c 0
 251 523 241 535 225 535 c 0
EndSplineSet
EndChar

StartChar: uni0E5A
Encoding: 3674 3674 72
Width: 649
VWidth: 0
Flags: W
HStem: -60 110<177 267.495> 315 85<234.792 361.072> 535 55<188.086 250.678>
VStem: 129 55<406.5 531.278> 251 52<468.89 534.492> 455 84<530.658 570>
LayerCount: 2
Fore
SplineSet
236 590 m 0
 276 590 303 560 303 520 c 0
 303 514 303 507 301 500 c 0
 293 464 260 427 234 425 c 1
 244 410 269 400 289 400 c 0
 365 400 436 482 455 570 c 1
 539 570 l 1
 460 200 l 2
 427 47 306 -60 154 -60 c 1
 177 50 l 1
 267 50 318 97 340 200 c 2
 371 350 l 1
 371 350 344 315 271 315 c 0
 201 315 129 359 129 454 c 0
 129 468 130 483 134 500 c 0
 145 550 190 590 236 590 c 0
595 570 m 1
 716 570 l 1
 622 130 l 2
 599 20 472 -32 410 -60 c 1
 393 13 l 1
 435 37 492 87 508 160 c 2
 595 570 l 1
225 535 m 0
 207 535 189 519 185 500 c 0
 184 497 184 495 184 492 c 0
 184 477 194 465 210 465 c 0
 228 465 246 481 250 500 c 0
 251 503 251 505 251 508 c 0
 251 523 241 535 225 535 c 0
EndSplineSet
EndChar

StartChar: uni0E13
Encoding: 3603 3603 73
Width: 808
VWidth: 0
Flags: W
HStem: -6 80<171.617 240.792 651.891 736.614> 502 110<311.288 444.992>
VStem: 95 76<75.6125 147.676> 248 76<81.2455 152.055> 465 151<337.546 480.935> 746 72<81.842 167.559>
LayerCount: 2
Fore
SplineSet
408 612 m 0
 516 612 616 558 616 432 c 0
 616 414 614 394 609 372 c 2
 557 130 l 1
 573 148 602 187 653 230 c 1
 729 590 l 1
 878 590 l 1
 803 235 l 1
 780 220 l 1
 801 208 818 183 818 147 c 0
 818 138 817 129 815 119 c 0
 800 50 736 -6 672 -6 c 0
 617 -6 580 35 579 90 c 1
 547 55 521 21 500 -6 c 1
 449 -6 400 29 400 81 c 0
 400 87 401 94 402 100 c 2
 460 372 l 2
 464 389 465 404 465 417 c 0
 465 481 426 502 385 502 c 0
 348 502 302 480 279 440 c 1
 367 415 l 1
 367 415 301 371 284 290 c 1
 271 227 l 1
 304 214 324 181 324 141 c 0
 324 132 323 123 321 114 c 0
 307 48 245 -6 184 -6 c 0
 131 -6 95 34 95 88 c 0
 95 96 96 105 98 114 c 2
 131 270 l 2
 149 354 203 390 203 390 c 1
 114 410 l 1
 159 500 286 612 408 612 c 0
710 169 m 0
 684 169 658 147 652 119 c 0
 651 115 651 111 651 107 c 0
 651 85 666 69 688 69 c 0
 714 69 739 91 745 119 c 0
 746 123 746 127 746 131 c 0
 746 153 732 169 710 169 c 0
218 154 m 0
 198 154 177 136 172 114 c 0
 171 111 171 108 171 105 c 0
 171 87 184 74 201 74 c 0
 221 74 242 92 247 114 c 0
 248 117 248 120 248 123 c 0
 248 141 235 154 218 154 c 0
EndSplineSet
EndChar

StartChar: uni0E08
Encoding: 3592 3592 74
Width: 537
VWidth: 0
Flags: W
HStem: 180 60<199.708 274.95> 330 60<207.507 282.374> 512 100<304.995 428.156>
VStem: 142 56<240.935 321.103> 442 149<298.938 497.873>
LayerCount: 2
Fore
SplineSet
516 70 m 2
 501 -2 328 -6 328 -6 c 1
 339 46 l 2
 344 70 347 93 347 116 c 0
 347 155 338 193 313 237 c 1
 297 212 263 180 219 180 c 0
 172 180 142 215 142 262 c 0
 142 269 142 277 144 285 c 0
 156 343 210 390 264 390 c 0
 342 390 387 304 400 220 c 1
 438 402 l 2
 440 414 442 425 442 436 c 0
 442 484 416 512 373 512 c 0
 321 512 282 475 273 434 c 1
 120 434 l 1
 137 515 253 612 395 612 c 0
 519 612 591 536 591 443 c 0
 591 430 590 416 587 402 c 2
 516 70 l 2
251 330 m 0
 228 330 204 310 199 285 c 0
 198 282 198 279 198 276 c 0
 198 255 212 240 232 240 c 0
 255 240 278 260 283 285 c 0
 284 288 284 292 284 295 c 0
 284 315 271 330 251 330 c 0
EndSplineSet
EndChar

StartChar: uni0E0D
Encoding: 3597 3597 75
Width: 789
VWidth: 0
Flags: W
HStem: -320 80<452.261 558.693> -130 60<377.288 439.496> -12 104<557.488 624.689> -6 80<171.617 240.792> 502 110<311.288 444.992>
VStem: 95 76<75.6125 147.676> 248 76<81.2455 152.055> 314 59<-244.5 -134.11> 406 151<93.9683 167.644> 440 56<-196.5 -130.308> 465 151<285.156 482.827> 641 111<-147.988 -90>
LayerCount: 2
Fore
SplineSet
561 150 m 2xde30
 559 140 557 129 557 120 c 0
 557 104 563 92 586 92 c 0
 622 92 630 122 636 150 c 2
 729 590 l 1
 878 590 l 1
 780 130 l 2
 772 92 717 -12 564 -12 c 0
 433 -12 406 64 406 110 c 0xec90
 406 118 407 125 408 130 c 2
 460 372 l 2
 464 389 465 404 465 417 c 0
 465 481 426 502 385 502 c 0
 348 502 302 480 279 440 c 1
 367 415 l 1
 367 415 301 371 284 290 c 1
 271 227 l 1
 304 214 324 181 324 141 c 0
 324 132 323 123 321 114 c 0
 307 48 245 -6 184 -6 c 0
 131 -6 95 34 95 88 c 0
 95 96 96 105 98 114 c 2
 131 270 l 2
 149 354 203 390 203 390 c 1
 114 410 l 1
 159 500 286 612 408 612 c 0
 516 612 616 558 616 432 c 0
 616 414 614 394 609 372 c 2
 561 150 l 2xde30
218 154 m 0
 198 154 177 136 172 114 c 0
 171 111 171 108 171 105 c 0
 171 87 184 74 201 74 c 0
 221 74 242 92 247 114 c 0
 248 117 248 120 248 123 c 0xde10
 248 141 235 154 218 154 c 0
426 -70 m 0
 467 -70 496 -102 496 -144 c 0
 496 -151 496 -158 494 -165 c 0
 489 -190 473 -217 451 -230 c 1
 457 -239 472 -240 492 -240 c 0
 567 -240 629 -145 641 -90 c 1
 752 -90 l 1
 731 -189 632 -320 475 -320 c 0
 398 -320 314 -289 314 -200 c 0xcd50
 314 -190 315 -178 318 -165 c 0
 329 -113 378 -70 426 -70 c 0
414 -130 m 0
 396 -130 378 -146 374 -165 c 0
 373 -168 373 -170 373 -173 c 0
 373 -188 383 -200 399 -200 c 0
 417 -200 435 -184 439 -165 c 0
 440 -162 440 -160 440 -157 c 0
 440 -142 430 -130 414 -130 c 0
EndSplineSet
Substitution2: "Descent Substitute" uni0E0D.descless
EndChar

StartChar: uni0E0F
Encoding: 3599 3599 76
Width: 585
VWidth: 0
Flags: W
HStem: -340 65<-6.19585 69.0965> -185 65<1.78091 76.7879> -6 80<126.617 195.354> 502 110<331.288 464.668>
VStem: -70 62<-272.721 -194.624> 50 76<75.6125 146.89> 484 151<335.665 481.569>
LayerCount: 2
Fore
SplineSet
428 612 m 0
 536 612 635 558 635 433 c 0
 635 414 633 394 628 372 c 2
 549 0 l 1
 494 -260 l 2
 478 -333 295 -340 295 -340 c 1
 273 -225 l 1
 199 -334 l 1
 123 -334 l 1
 107 -292 l 1
 82 -321 47 -340 12 -340 c 0
 -37 -340 -70 -304 -70 -255 c 0
 -70 -247 -69 -239 -67 -230 c 0
 -54 -169 2 -120 59 -120 c 0
 89 -120 113 -134 127 -156 c 1
 134 -146 140 -134 143 -120 c 1
 225 -120 l 1
 215 -168 191 -200 162 -225 c 1
 177 -265 l 1
 270 -130 l 1
 317 -130 l 1
 347 -250 l 1
 400 0 l 1
 479 372 l 2
 483 389 484 404 484 417 c 0
 484 481 446 502 405 502 c 0
 368 502 322 480 299 440 c 1
 405 415 l 1
 405 415 330 371 313 290 c 1
 276 114 l 2
 262 48 200 -6 139 -6 c 0
 86 -6 50 34 50 88 c 0
 50 96 51 105 53 114 c 0
 64 166 104 211 151 227 c 1
 160 270 l 2
 178 354 241 390 241 390 c 1
 134 410 l 1
 179 500 306 612 428 612 c 0
173 154 m 0
 153 154 132 136 127 114 c 0
 126 111 126 108 126 105 c 0
 126 87 139 74 156 74 c 0
 176 74 196 92 201 114 c 0
 202 117 202 120 202 123 c 0
 202 141 190 154 173 154 c 0
45 -185 m 0
 22 -185 -2 -205 -7 -230 c 0
 -8 -233 -8 -236 -8 -239 c 0
 -8 -260 6 -275 26 -275 c 0
 49 -275 72 -255 77 -230 c 0
 78 -227 78 -223 78 -220 c 0
 78 -200 65 -185 45 -185 c 0
EndSplineSet
Substitution2: "Descent Shorten" uni0E0F.shorten
EndChar

StartChar: uni0E4B
Encoding: 3659 3659 77
Width: 5
VWidth: 0
Flags: W
HStem: 1045 60<-38 24 148 210>
VStem: -51 273
LayerCount: 2
Fore
SplineSet
52 1180 m 1
 164 1180 l 1
 148 1105 l 1
 222 1105 l 1
 210 1045 l 1
 135 1045 l 1
 115 950 l 1
 12 990 l 1
 24 1045 l 1
 -51 1045 l 1
 -38 1105 l 1
 36 1105 l 1
 52 1180 l 1
EndSplineSet
Position2: "Nikhahit & Tone High-Left" dx=-180 dy=0 dh=0 dv=0
Position2: "Mai Han-Akat & Tone High-Left" dx=-220 dy=0 dh=0 dv=0
Position2: "Tone High-Left" dx=-130 dy=0 dh=0 dv=0
MultipleSubs2: "Tone High-Low" uni0E4B.low
EndChar

StartChar: uni0E0F.shorten
Encoding: 63290 63290 78
Width: 585
VWidth: 0
Flags: W
HStem: -240 65<15.1687 90.0965> -85 65<23.1845 97.7879> -6 80<126.617 195.354> 502 110<331.288 464.668>
VStem: -49 63<-172.721 -94.6236> 50 76<75.6125 146.89> 484 151<335.665 481.569>
LayerCount: 2
Fore
SplineSet
428 612 m 0
 536 612 635 558 635 433 c 0
 635 414 633 394 628 372 c 2
 549 0 l 1
 515 -160 l 2
 499 -233 317 -240 317 -240 c 1
 295 -125 l 1
 220 -234 l 1
 144 -234 l 1
 128 -192 l 1
 103 -221 68 -240 33 -240 c 0
 -16 -240 -49 -204 -49 -155 c 0
 -49 -147 -48 -139 -46 -130 c 0
 -33 -69 23 -20 80 -20 c 0
 110 -20 134 -34 148 -56 c 1
 155 -46 161 -34 164 -20 c 1
 246 -20 l 1
 236 -68 212 -100 183 -125 c 1
 198 -165 l 1
 292 -30 l 1
 338 -30 l 1
 368 -150 l 1
 400 0 l 1
 479 372 l 2
 483 389 484 404 484 417 c 0
 484 481 446 502 405 502 c 0
 368 502 322 480 299 440 c 1
 405 415 l 1
 405 415 333 351 313 290 c 1
 276 114 l 2
 262 48 200 -6 139 -6 c 0
 86 -6 50 34 50 88 c 0
 50 96 51 105 53 114 c 0
 64 166 104 211 151 227 c 1
 160 270 l 2
 178 354 241 390 241 390 c 1
 134 410 l 1
 179 500 306 612 428 612 c 0
173 154 m 0
 153 154 132 136 127 114 c 0
 126 111 126 108 126 105 c 0
 126 87 139 74 156 74 c 0
 176 74 196 92 201 114 c 0
 202 117 202 120 202 123 c 0
 202 141 190 154 173 154 c 0
66 -85 m 0
 43 -85 20 -105 15 -130 c 0
 14 -133 14 -137 14 -140 c 0
 14 -160 27 -175 47 -175 c 0
 70 -175 93 -155 98 -130 c 0
 99 -127 99 -123 99 -120 c 0
 99 -100 86 -85 66 -85 c 0
EndSplineSet
EndChar

StartChar: uni0E0E.shorten
Encoding: 63291 63291 79
Width: 584
VWidth: 0
Flags: W
HStem: -240 65<97.8042 172.7> -85 65<105.781 181.096> -20 20G<244 330> -6 80<125.617 194.354> 502 110<330.288 463.668>
VStem: 34 62<-172.721 -94.6236> 49 76<75.6125 146.89> 246 84<-49.0279 0> 483 151<335.665 481.569>
LayerCount: 2
Fore
SplineSet
427 612 m 0x9b80
 535 612 634 558 634 433 c 0
 634 414 632 394 627 372 c 2
 548 0 l 1xab80
 514 -160 l 2
 498 -233 330 -240 330 -240 c 1
 330 -240 273 -203 228 -167 c 1
 204 -210 161 -240 116 -240 c 0
 67 -240 34 -204 34 -155 c 0
 34 -147 35 -139 37 -130 c 0
 50 -69 106 -20 163 -20 c 0xcd80
 190 -20 212 -31 226 -50 c 1
 234 -36 242 -18 246 0 c 1
 330 0 l 1
 323 -34 294 -75 278 -90 c 1
 322 -127 366 -155 366 -155 c 1
 399 0 l 1xad80
 478 372 l 2
 482 389 483 404 483 417 c 0
 483 481 445 502 404 502 c 0
 367 502 321 480 298 440 c 1
 404 415 l 1
 404 415 332 351 312 290 c 1
 275 114 l 2
 261 48 199 -6 138 -6 c 0
 85 -6 49 34 49 88 c 0
 49 96 50 105 52 114 c 0
 63 166 103 211 150 227 c 1
 159 270 l 2
 177 354 240 390 240 390 c 1
 133 410 l 1
 178 500 305 612 427 612 c 0x9b80
172 154 m 0
 152 154 131 136 126 114 c 0
 125 111 125 108 125 105 c 0
 125 87 138 74 155 74 c 0x9b80
 175 74 195 92 200 114 c 0
 201 117 201 120 201 123 c 0
 201 141 189 154 172 154 c 0
149 -85 m 0xcd80
 126 -85 102 -105 97 -130 c 0
 96 -133 96 -136 96 -139 c 0
 96 -160 110 -175 130 -175 c 0
 153 -175 176 -155 181 -130 c 0
 182 -127 182 -123 182 -120 c 0
 182 -100 169 -85 149 -85 c 0xcd80
EndSplineSet
EndChar

StartChar: uni0E5B
Encoding: 3675 3675 80
Width: 1242
VWidth: 0
Flags: W
HStem: -12 80<257.132 437.174> 139 67<332.746 420.932> 231 90<1004.08 1182> 246 55<328.049 371.348> 391 55<321.807 379.1> 533 79<321.384 463.526>
VStem: 109 86<133.285 358.534> 249 64<242.054 385.213> 380 53<307.875 390.27> 494 84<310.881 503.034> 690 88<469.192 560> 711 68<236 380>
LayerCount: 2
Fore
SplineSet
417 612 m 0xefd0
 523 612 578 536 578 439 c 0
 578 420 576 400 572 380 c 0
 542 237 454 139 358 139 c 0
 280 139 249 189 249 265 c 0
 249 290 252 317 258 346 c 0
 270 401 322 446 368 446 c 0
 407 446 433 414 433 371 c 0
 433 363 432 355 430 346 c 0
 419 292 373 248 328 246 c 1
 332 224 340 206 373 206 c 0
 416 206 466 271 489 380 c 0
 493 397 494 412 494 426 c 0
 494 498 450 533 400 533 c 0
 309 533 233 446 202 300 c 0
 197 277 195 256 195 236 c 0
 195 132 256 68 339 68 c 0
 516 68 615 274 690 560 c 1
 778 560 l 1xdfe0
 779 236 l 1
 900 500 l 1
 975 500 l 1
 975 417 988 321 1044 321 c 2
 1202 321 l 1
 1182 231 l 1
 1024 231 l 2
 934 231 909 346 909 346 c 1
 794 90 l 1
 711 89 l 1
 707 380 l 1
 668 261 569 -12 322 -12 c 0
 170 -12 109 99 109 220 c 0
 109 246 112 273 118 300 c 0
 158 487 277 612 417 612 c 0xefd0
356 391 m 0
 338 391 319 371 314 346 c 0
 313 342 313 337 313 334 c 0
 313 315 322 301 337 301 c 0
 355 301 374 321 379 346 c 0
 380 350 380 355 380 358 c 0
 380 377 371 391 356 391 c 0
EndSplineSet
EndChar

StartChar: uni0E4E
Encoding: 3662 3662 81
Width: 7
VWidth: 0
Flags: W
HStem: 867 21G<-117.5 -97.1875> 1070 70<-64.2951 6.92406>
VStem: -293 85<753.344 869.625> -171 85<948.412 1048.82> 11 85<1000 1067.75>
LayerCount: 2
Fore
SplineSet
-8 1140 m 0
 54 1140 96 1093 96 1031 c 0
 96 1021 95 1010 93 1000 c 1
 9 1000 l 1
 11 1007 11 1015 11 1021 c 0
 11 1050 -2 1070 -23 1070 c 0
 -49 1070 -76 1039 -84 1000 c 0
 -86 992 -86 985 -86 978 c 0
 -86 953 -75 934 -58 931 c 1
 -115 867 l 1
 -120 881 -131 890 -145 890 c 0
 -171 890 -198 859 -206 820 c 0
 -208 813 -208 805 -208 799 c 0
 -208 770 -195 750 -174 750 c 1
 -189 680 l 1
 -251 680 -293 727 -293 789 c 0
 -293 799 -292 810 -290 820 c 0
 -277 883 -227 936 -170 954 c 1
 -171 959 -171 964 -171 970 c 0
 -171 979 -170 990 -168 1000 c 0
 -152 1077 -80 1140 -8 1140 c 0
EndSplineSet
EndChar

StartChar: uni0E4F
Encoding: 3663 3663 82
Width: 703
VWidth: 0
Flags: W
HStem: 0 100<287.525 468.494> 170 85<374.355 448.952> 345 85<382.048 456.645> 500 100<362.71 543.892>
VStem: 130 95<167.333 353.187> 292 81<257.694 335.661> 458 81<264.339 342.306> 607 95<246.813 432.313>
LayerCount: 2
Fore
SplineSet
479 600 m 0
 612 600 702 500 702 367 c 0
 702 345 700 323 695 300 c 0
 660 134 506 0 352 0 c 0
 219 0 130 99 130 233 c 0
 130 254 132 277 137 300 c 0
 172 466 325 600 479 600 c 0
458 500 m 0
 355 500 254 411 230 300 c 0
 227 284 225 269 225 254 c 0
 225 166 285 100 373 100 c 0
 476 100 578 189 602 300 c 0
 605 316 607 331 607 345 c 0
 607 434 547 500 458 500 c 0
443 430 m 0
 501 430 539 387 539 329 c 0
 539 320 538 310 536 300 c 0
 521 228 455 170 388 170 c 0
 330 170 292 213 292 271 c 0
 292 280 293 290 295 300 c 0
 310 372 376 430 443 430 c 0
425 345 m 0
 402 345 379 325 374 300 c 0
 373 297 373 293 373 290 c 0
 373 270 386 255 406 255 c 0
 429 255 452 275 457 300 c 0
 458 303 458 307 458 310 c 0
 458 330 445 345 425 345 c 0
EndSplineSet
EndChar

StartChar: uni0E51
Encoding: 3665 3665 83
Width: 690
VWidth: 0
Flags: W
HStem: -60 100<354 438.308> 75 110<243.807 335.177> 350 75<372.187 452.423> 502 110<347.964 528.449>
VStem: 95 134<200.76 362.442> 288 72<252.616 337.158> 455 71<264.404 348.246> 576 149<237.148 455.429>
LayerCount: 2
Fore
SplineSet
473 612 m 0
 622 612 725 513 725 369 c 0
 725 347 723 324 718 300 c 0
 676 104 538 -60 332 -60 c 1
 354 40 l 1
 449 40 531 120 569 300 c 0
 574 323 576 344 576 364 c 0
 576 449 531 502 450 502 c 0
 350 502 260 435 234 315 c 0
 231 299 229 284 229 270 c 0
 229 217 254 185 290 185 c 0
 306 185 328 185 338 195 c 1
 311 205 288 229 288 271 c 0
 288 280 289 289 291 300 c 0
 306 369 370 425 434 425 c 0
 489 425 526 384 526 328 c 0
 526 319 525 310 523 300 c 0
 500 192 402 75 276 75 c 0
 155 75 95 158 95 252 c 0
 95 268 97 284 100 300 c 0
 137 472 301 612 473 612 c 0
418 350 m 0
 392 350 367 328 361 300 c 0
 360 296 360 292 360 288 c 0
 360 266 374 250 396 250 c 0
 422 250 448 272 454 300 c 0
 455 304 455 308 455 312 c 0
 455 334 440 350 418 350 c 0
EndSplineSet
EndChar

StartChar: uni0E52
Encoding: 3666 3666 84
Width: 817
VWidth: 0
Flags: W
HStem: 0 100<235 663> 139 80<463.471 543.176> 319 80<473.222 554.38> 501 105<477.468 558.914>
VStem: 189 157<562.421 809.948> 324 137<221.492 371.29> 324 111<338 434.874> 556 76<230.293 316.456> 730 161<307.344 497.634>
LayerCount: 2
Fore
SplineSet
713 606 m 1xf580
 752 606 l 1
 812 595 891 557 891 453 c 0
 891 437 889 419 885 400 c 2
 819 90 l 2
 806 31 742 0 688 0 c 2
 167 0 l 2
 117 0 73 24 73 71 c 0
 73 77 74 83 75 90 c 2
 183 600 l 2
 187 620 189 643 189 665 c 0
 189 738 172 810 172 810 c 1
 330 810 l 1
 330 810 346 740 346 666 c 0xf980
 346 644 345 621 341 600 c 1
 235 100 l 1
 663 100 l 1
 720 370 l 2
 727 404 730 428 730 449 c 0
 730 466 728 482 725 499 c 1
 652 419 l 1
 572 419 l 1
 571 448 563 501 520 501 c 0
 477 501 451 437 441 389 c 0
 438 373 435 355 435 345 c 0xf380
 435 342 436 340 436 338 c 1
 455 368 493 399 536 399 c 0
 594 399 632 356 632 298 c 0
 632 289 631 279 629 269 c 0
 614 197 548 139 481 139 c 0
 359 139 324 221 324 306 c 0
 324 333 328 360 333 385 c 0
 356 491 447 606 538 606 c 0
 631 606 642 522 642 522 c 1
 713 606 l 1xf580
519 319 m 0
 493 319 468 297 462 269 c 0
 461 265 461 261 461 257 c 0xf580
 461 235 476 219 498 219 c 0
 524 219 549 241 555 269 c 0
 556 273 556 277 556 281 c 0
 556 303 541 319 519 319 c 0
EndSplineSet
EndChar

StartChar: uni0E54
Encoding: 3668 3668 85
Width: 772
VWidth: 0
Flags: W
HStem: 0 110<269.585 437 534.319 679> 164 75<509.407 572.864> 349 75<499.086 585.183> 484 110<338.227 709.932>
VStem: 65 161<156.303 354.58> 392 92<197.5 328.948> 589 71<255.267 343.992> 804 158<726.421 810>
LayerCount: 2
Fore
SplineSet
804 810 m 1
 962 810 l 1
 917 598 781 484 596 484 c 2
 428 484 l 2
 326 484 255 410 230 294 c 1
 228 282 226 269 226 254 c 0
 226 189 254 110 330 110 c 2
 437 110 l 1
 412 134 392 171 392 224 c 0
 392 240 393 256 397 274 c 0
 415 357 489 424 564 424 c 0
 622 424 660 381 660 323 c 0
 660 314 659 304 657 294 c 0
 642 222 576 164 509 164 c 1
 531 128 571 110 610 110 c 2
 702 110 l 1
 679 0 l 1
 288 0 l 2
 155 0 65 95 65 228 c 0
 65 249 67 271 72 294 c 0
 107 460 279 594 433 594 c 2
 619 594 l 2
 721 594 772 659 804 810 c 1
548 349 m 0
 520 349 491 324 485 294 c 0
 484 290 484 286 484 283 c 0
 484 258 501 239 525 239 c 0
 553 239 582 264 588 294 c 0
 589 298 589 302 589 305 c 0
 589 330 572 349 548 349 c 0
EndSplineSet
EndChar

StartChar: uni0E55
Encoding: 3669 3669 86
Width: 772
VWidth: 0
Flags: W
HStem: 0 110<269.585 437 534.319 679> 164 75<509.407 572.864> 349 75<499.086 585.183> 484 146<523.311 592.6> 484 110<338.227 458> 710 80<529.646 598.383>
VStem: 65 161<156.303 354.58> 392 92<197.5 328.948> 446 77<630.15 702.755> 589 71<255.267 343.992> 599 76<636.324 708.388> 804 158<726.421 810>
LayerCount: 2
Fore
SplineSet
804 810 m 1xeeb0
 962 810 l 1
 917 598 781 484 596 484 c 2
 428 484 l 2
 326 484 255 410 230 294 c 1
 228 282 226 269 226 254 c 0
 226 189 254 110 330 110 c 2
 437 110 l 1
 412 134 392 171 392 224 c 0
 392 240 393 256 397 274 c 0
 415 357 489 424 564 424 c 0
 622 424 660 381 660 323 c 0xef50
 660 314 659 304 657 294 c 0
 642 222 576 164 509 164 c 1
 531 128 571 110 610 110 c 2
 702 110 l 1
 679 0 l 1
 288 0 l 2
 155 0 65 95 65 228 c 0
 65 249 67 271 72 294 c 0
 107 460 279 594 433 594 c 2
 458 594 l 1
 450 608 446 625 446 644 c 0
 446 652 447 661 449 670 c 0
 463 736 525 790 586 790 c 0
 639 790 675 750 675 696 c 0
 675 688 674 679 672 670 c 0
 666 641 651 615 631 594 c 1
 725 599 773 665 804 810 c 1xeeb0
569 710 m 0
 549 710 529 692 524 670 c 0
 523 667 523 664 523 661 c 0
 523 643 535 630 552 630 c 0
 572 630 593 648 598 670 c 0
 599 673 599 676 599 679 c 0xf6b0
 599 697 586 710 569 710 c 0
548 349 m 0
 520 349 491 324 485 294 c 0
 484 290 484 286 484 283 c 0
 484 258 501 239 525 239 c 0
 553 239 582 264 588 294 c 0
 589 298 589 302 589 305 c 0xe750
 589 330 572 349 548 349 c 0
EndSplineSet
EndChar

StartChar: uni0E56
Encoding: 3670 3670 87
Width: 714
VWidth: 0
Flags: W
HStem: -12 110<318.863 464.139> 309 75<267.783 353.205> 484 110<380 520.038>
VStem: 165 88<137.5 286.371> 357 72<214.324 303.992> 570 158<233.191 432.698>
LayerCount: 2
Fore
SplineSet
165 690 m 1
 190 810 l 1
 283 810 375 735 380 594 c 1
 489 594 l 2
 624 594 728 491 728 354 c 0
 728 334 726 314 722 294 c 0
 687 128 553 -12 374 -12 c 0
 222 -12 165 90 165 185 c 0
 165 202 167 218 170 234 c 0
 186 307 257 384 332 384 c 0
 390 384 429 341 429 283 c 0
 429 273 428 264 426 254 c 0
 413 194 365 144 312 129 c 1
 330 105 355 98 388 98 c 0
 482 98 543 195 564 294 c 0
 568 312 570 330 570 346 c 0
 570 432 518 484 456 484 c 2
 275 484 l 1
 275 490 276 496 276 503 c 0
 276 575 253 690 165 690 c 1
316 309 m 0
 288 309 260 284 254 254 c 0
 253 250 253 246 253 242 c 0
 253 218 269 199 293 199 c 0
 321 199 350 224 356 254 c 0
 357 258 357 262 357 265 c 0
 357 290 340 309 316 309 c 0
EndSplineSet
EndChar

StartChar: uni0E57
Encoding: 3671 3671 88
Width: 919
VWidth: 0
Flags: W
HStem: -6 95<253.26 335.778> 0 21G<534.222 607> 199 95<262.999 348.099> 480 120<302.695 381.157>
VStem: 71 177<92.1782 277.093> 352 91<106.46 196.344> 610 155<255.094 478.687>
LayerCount: 2
Fore
SplineSet
584 606 m 1xbe
 659 606 l 1
 732 577 765 506 765 412 c 0
 765 379 761 344 753 306 c 2
 720 150 l 1
 773 183 789 213 809 306 c 2
 869 590 l 1
 1027 590 l 1
 967 306 l 2
 919 78 684 0 530 0 c 1x7e
 549 90 l 1
 595 306 l 2
 606 359 610 405 610 440 c 0
 610 456 609 469 608 480 c 1
 491 319 l 1
 401 319 l 1
 403 329 404 343 404 359 c 0
 404 411 390 480 343 480 c 0
 295 480 258 383 240 300 c 0
 238 289 235 274 234 259 c 1
 263 281 298 294 332 294 c 0
 398 294 443 245 443 178 c 0
 443 167 442 156 439 144 c 0
 421 61 345 -6 268 -6 c 0
 134 -6 71 75 71 201 c 0
 71 231 75 265 82 300 c 0
 117 466 257 600 369 600 c 0
 483 600 484 480 484 480 c 1
 584 606 l 1xbe
312 199 m 0
 284 199 255 174 249 144 c 0
 248 140 248 136 248 132 c 0
 248 108 264 89 288 89 c 0xbe
 316 89 345 114 351 144 c 0
 352 148 352 152 352 156 c 0
 352 180 336 199 312 199 c 0
EndSplineSet
EndChar

StartChar: uni0E58
Encoding: 3672 3672 89
Width: 799
VWidth: 0
Flags: W
HStem: -12 100<488.37 598.15> 144 75<605.18 626> 329 75<616.575 701.588> 474 120<331.497 710.859>
VStem: 64 159<150.51 348.165> 529 72<224.008 312.733> 705 78<235.311 325.78> 814 158<734.695 810>
LayerCount: 2
Fore
SplineSet
814 810 m 1
 972 810 l 1
 927 598 747 474 593 474 c 2
 417 474 l 2
 332 474 255 410 230 294 c 0
 225 270 223 250 223 232 c 0
 223 176 245 147 269 130 c 1
 357 304 l 1
 476 304 l 1
 469 272 465 238 465 207 c 0
 465 142 484 88 542 88 c 0
 582 88 609 122 626 144 c 1
 568 144 529 187 529 245 c 0
 529 255 530 264 532 274 c 0
 547 346 614 404 681 404 c 0
 745 404 783 348 783 287 c 0
 783 276 781 265 779 254 c 0
 751 121 673 -12 516 -12 c 0
 414 -12 370 43 364 127 c 1
 296 -6 l 1
 147 -6 64 91 64 222 c 0
 64 245 67 269 72 294 c 0
 107 460 288 594 442 594 c 2
 619 594 l 2
 721 594 782 659 814 810 c 1
665 329 m 0
 637 329 608 304 602 274 c 0
 601 270 601 266 601 263 c 0
 601 238 618 219 642 219 c 0
 670 219 698 244 704 274 c 0
 705 278 705 282 705 286 c 0
 705 310 689 329 665 329 c 0
EndSplineSet
EndChar

StartChar: uni0E59
Encoding: 3673 3673 90
Width: 809
VWidth: 0
Flags: W
HStem: -6 80<240.937 321.292> 174 80<250.876 332.397> 480 120<279.154 375.969>
VStem: 55 156<199.429 354.165> 334 77<85.293 171.456> 832 168<717.759 810>
LayerCount: 2
Fore
SplineSet
832 810 m 1
 1000 810 l 1
 961 626 853 340 640 340 c 1
 632 395 627 448 600 480 c 1
 551 425 l 1
 623 0 l 1
 474 0 l 1
 401 400 l 1
 401 400 386 480 325 480 c 0
 277 480 247 416 222 300 c 0
 216 270 211 242 211 222 c 0
 211 210 213 201 218 197 c 1
 224 210 264 254 314 254 c 0
 372 254 411 211 411 153 c 0
 411 143 410 134 408 124 c 0
 393 52 326 -6 259 -6 c 0
 131 -6 55 81 55 214 c 0
 55 241 58 270 64 300 c 0
 99 466 239 600 351 600 c 0
 465 600 488 500 488 500 c 1
 575 606 l 1
 640 606 l 1
 679 574 692 530 701 500 c 1
 741 549 796 642 832 810 c 1
297 174 m 0
 271 174 246 152 240 124 c 0
 239 120 239 116 239 112 c 0
 239 90 254 74 276 74 c 0
 302 74 327 96 333 124 c 0
 334 128 334 132 334 136 c 0
 334 158 319 174 297 174 c 0
EndSplineSet
EndChar

StartChar: uni0E4A
Encoding: 3658 3658 91
Width: 8
VWidth: 0
Flags: W
HStem: 970 46<-75.2022 -21.7765 59 64.25> 1076 44<-52.7648 -18.6034> 1150 56<-50.1815 15.0093>
VStem: -129 155<1004 1046 1062 1109.23> 85 75<1037.02 1149.32> 201 90<1119.38 1200>
LayerCount: 2
Fore
SplineSet
-11 1206 m 0
 19 1206 38 1192 46 1170 c 1
 80 1206 l 1
 117 1206 l 1
 143 1195 160 1164 160 1125 c 0
 160 1116 159 1106 157 1096 c 0
 149 1058 133 1036 133 1036 c 1
 160 1056 175 1078 201 1200 c 1
 291 1200 l 1
 269 1104 219 974 59 974 c 1
 48 1020 l 1
 59 1020 70 1046 79 1086 c 0
 83 1103 85 1115 85 1124 c 0
 85 1136 82 1143 77 1150 c 1
 48 1116 l 1
 16 1116 l 1
 16 1117 16 1117 16 1118 c 0
 16 1128 5 1150 -14 1150 c 0
 -37 1150 -48 1133 -53 1116 c 1
 -45 1118 -40 1120 -31 1120 c 0
 3 1120 26 1095 26 1062 c 0
 26 1057 25 1052 24 1046 c 0
 15 1004 -24 970 -63 970 c 0
 -94 970 -129 988 -129 1045 c 0
 -129 1056 -128 1068 -125 1082 c 0
 -111 1148 -61 1206 -11 1206 c 0
-41 1076 m 0
 -56 1076 -72 1062 -75 1046 c 0
 -79 1028 -68 1016 -53 1016 c 0
 -36 1016 -23 1028 -19 1046 c 0
 -16 1062 -24 1076 -41 1076 c 0
EndSplineSet
Position2: "Nikhahit & Tone High-Left" dx=-150 dy=0 dh=0 dv=0
Position2: "Mai Han-Akat & Tone High-Left" dx=-180 dy=0 dh=0 dv=0
Position2: "Tone High-Left" dx=-120 dy=0 dh=0 dv=0
MultipleSubs2: "Tone High-Low" uni0E4A.low
EndChar

StartChar: uni0E3F
Encoding: 3647 3647 92
Width: 593
VWidth: 0
Flags: W
HStem: 0 120<211 213 297 393.921> 390 110<292 433.485> 750 110<345 396>
VStem: 466 160<191.301 356.521> 508 162<574.012 720.61>
LayerCount: 2
Fore
SplineSet
434 1040 m 1xf0
 518 1040 l 1
 479 857 l 1
 609 845 670 793 670 694 c 0xe8
 670 673 667 650 662 625 c 0
 650 569 607 492 532 450 c 1
 604 421 626 367 626 309 c 0
 626 288 623 266 619 245 c 0
 582 70 443 0 316 0 c 2
 297 0 l 1
 259 -180 l 1
 175 -180 l 1
 213 0 l 1
 27 0 l 1
 210 860 l 1
 396 860 l 1
 434 1040 l 1xf0
345 750 m 1
 292 500 l 1
 347 500 l 2
 428 500 487 543 504 625 c 0
 507 638 508 651 508 662 c 0
 508 720 470 750 373 750 c 2
 345 750 l 1
268 390 m 1
 211 120 l 1
 285 120 l 2
 358 120 438 139 461 245 c 0
 465 261 466 276 466 289 c 0xf0
 466 362 414 390 333 390 c 2
 268 390 l 1
EndSplineSet
EndChar

StartChar: uni0E11
Encoding: 3601 3601 93
Width: 630
VWidth: 0
Flags: W
HStem: 0 21G<157 310.267 446 599.217> 298 55<184.873 254.379> 433 50<191.5 259.877> 551 55<213.571 283.969>
VStem: 118 66<354.332 426.676> 261 47<361.324 431.876> 397 70<474.121 554.343>
LayerCount: 2
Fore
SplineSet
267 606 m 0
 323 606 323 543 323 543 c 1
 371 606 l 1
 397 606 l 1
 437 592 467 548 467 488 c 0
 467 483 466 479 466 474 c 1
 494 511 527 552 563 596 c 1
 631 596 695 559 695 488 c 0
 695 479 694 470 692 460 c 2
 595 0 l 1
 446 0 l 1
 544 460 l 1
 471 385 360 252 338 150 c 2
 306 0 l 1
 157 0 l 1
 199 194 l 2
 220 291 370 347 391 444 c 0
 395 464 397 481 397 495 c 0
 397 519 391 537 381 556 c 1
 328 484 l 1
 289 484 l 1
 287 507 290 551 253 551 c 0
 218 551 188 492 179 449 c 1
 194 466 216 483 242 483 c 0
 281 483 308 454 308 414 c 0
 308 407 308 400 306 393 c 0
 295 343 248 298 202 298 c 0
 149 298 118 336 118 399 c 0
 118 414 119 430 123 448 c 1
 134 497 185 606 267 606 c 0
231 433 m 0
 211 433 190 415 185 393 c 0
 184 390 184 387 184 384 c 0
 184 366 197 353 214 353 c 0
 234 353 255 371 260 393 c 0
 261 396 261 399 261 402 c 0
 261 420 248 433 231 433 c 0
EndSplineSet
EndChar

StartChar: uni0E12
Encoding: 3602 3602 94
Width: 821
VWidth: 0
Flags: W
HStem: -6 70<450.414 524.825> 372 55<331.982 407.305>
VStem: 112 113<135.3 395.452> 271 52<282.865 361.292> 382 67<65.7982 145.45> 409 52<291.936 371.033> 515 134<349.377 511.228>
LayerCount: 2
Fore
SplineSet
112 227 m 0xf6
 112 251 114 321 127 382 c 0
 148 482 248 581 348 612 c 1
 417 543 l 1
 530 615 l 1
 598 592 649 524 649 434 c 0
 649 418 647 400 643 382 c 2
 605 205 l 1
 630 180 650 137 660 115 c 1
 761 590 l 1
 910 590 l 1
 802 80 l 2
 789 17 710 -6 653 -6 c 1
 645 23 620 83 599 109 c 1
 585 45 527 -6 467 -6 c 0
 416 -6 382 31 382 82 c 0xfa
 382 91 383 100 385 109 c 0
 395 157 429 198 472 215 c 1
 508 382 l 2
 513 406 515 428 515 447 c 0
 515 474 511 497 503 513 c 1
 396 448 l 1
 322 513 l 1
 279 479 261 441 248 382 c 0
 227 282 229 217 225 135 c 1
 260 162 305 196 334 228 c 1
 298 235 271 266 271 306 c 0
 271 313 271 320 273 327 c 0
 285 382 336 427 387 427 c 0
 431 427 461 394 461 349 c 0
 461 342 461 335 459 327 c 0
 426 172 232 88 213 0 c 1
 73 0 l 1
 86 38 94 69 100 96 c 0
 112 227 l 0xf6
376 372 m 0
 353 372 329 352 324 327 c 0
 323 324 323 321 323 318 c 0
 323 297 337 282 357 282 c 0
 380 282 403 302 408 327 c 0
 409 330 409 334 409 337 c 0xf6
 409 357 396 372 376 372 c 0
501 154 m 0
 478 154 455 134 450 109 c 0
 449 106 449 102 449 99 c 0xfa
 449 79 462 64 482 64 c 0
 505 64 529 84 534 109 c 0
 535 112 535 115 535 118 c 0
 535 139 521 154 501 154 c 0
EndSplineSet
EndChar

StartChar: uni0E0C
Encoding: 3596 3596 95
Width: 789
VWidth: 0
Flags: W
HStem: -6 80<171.617 240.792> -6 70<404.414 478.825> 502 110<311.288 444.992>
VStem: 95 76<75.6125 147.676> 248 76<81.2455 152.055> 336 67<65.7982 145.45> 465 151<338.948 480.935>
LayerCount: 2
Fore
SplineSet
408 612 m 0xbe
 516 612 616 558 616 432 c 0
 616 414 614 394 609 372 c 2
 570 191 l 1
 596 168 617 139 628 115 c 1
 729 590 l 1
 878 590 l 1
 770 80 l 1
 757 17 678 -6 621 -6 c 1
 613 23 574 83 553 109 c 1
 539 45 481 -6 421 -6 c 0x7e
 370 -6 336 31 336 82 c 0
 336 91 337 100 339 109 c 0
 349 157 383 198 426 215 c 1
 460 372 l 2
 464 389 465 404 465 417 c 0
 465 481 426 502 385 502 c 0
 348 502 302 480 279 440 c 1
 367 415 l 1
 367 415 301 371 284 290 c 1
 271 227 l 1
 304 214 324 181 324 141 c 0
 324 132 323 123 321 114 c 0
 307 48 245 -6 184 -6 c 0
 131 -6 95 34 95 88 c 0
 95 96 96 105 98 114 c 2
 131 270 l 2
 149 354 203 390 203 390 c 1
 114 410 l 1
 159 500 286 612 408 612 c 0xbe
218 154 m 0
 198 154 177 136 172 114 c 0
 171 111 171 108 171 105 c 0
 171 87 184 74 201 74 c 0xbe
 221 74 242 92 247 114 c 0
 248 117 248 120 248 123 c 0
 248 141 235 154 218 154 c 0
455 154 m 0
 432 154 409 134 404 109 c 0
 403 106 403 102 403 99 c 0
 403 79 416 64 436 64 c 0x7e
 459 64 483 84 488 109 c 0
 489 112 489 115 489 118 c 0
 489 139 475 154 455 154 c 0
EndSplineSet
EndChar

StartChar: uni0E09
Encoding: 3593 3593 96
Width: 584
VWidth: 0
Flags: W
HStem: -6 75<416.576 496.813> 325 65<179.185 253.831> 512 100<306.209 434.958>
VStem: 107 63<236.186 315.376> 255 63<244 322.721> 455 150<296.664 490.242> 509 72<81.842 167.559>
LayerCount: 2
Fore
SplineSet
399 612 m 0xfc
 525 612 605 534 605 439 c 0xfc
 605 427 604 415 601 402 c 0
 590 349 579 295 566 235 c 1
 543 220 l 1
 564 208 581 183 581 147 c 0xfa
 581 138 580 129 578 119 c 0
 563 50 499 -6 435 -6 c 0
 380 -6 343 35 342 90 c 1
 304 62 249 20 226 -6 c 1
 175 -6 126 29 126 81 c 0
 126 87 127 94 128 100 c 2
 145 182 l 1
 121 196 107 223 107 255 c 0
 107 263 108 271 110 280 c 0
 123 341 179 390 236 390 c 0
 285 390 318 354 318 305 c 0
 318 297 317 289 315 280 c 2
 283 130 l 1
 310 157 390 213 416 230 c 1
 427 281 439 343 452 402 c 0
 454 412 455 421 455 430 c 0
 455 481 422 512 378 512 c 0
 326 512 277 475 268 434 c 1
 115 434 l 1
 132 515 257 612 399 612 c 0xfc
222 325 m 0
 199 325 176 305 171 280 c 0
 170 277 170 273 170 270 c 0
 170 250 183 235 203 235 c 0
 226 235 249 255 254 280 c 0
 255 283 255 287 255 290 c 0
 255 310 242 325 222 325 c 0
473 169 m 0
 447 169 421 147 415 119 c 0
 414 115 414 111 414 107 c 0
 414 85 429 69 451 69 c 0
 477 69 502 91 508 119 c 0
 509 123 509 127 509 131 c 0xfa
 509 153 495 169 473 169 c 0
EndSplineSet
EndChar

StartChar: uni0E0A.alt
Encoding: 3681 3681 97
Width: 567
VWidth: 0
Flags: W
HStem: -12 110<298.536 388.538> 326 55<165.263 238.957> 471 52<192.247 247.431> 505 125<569.14 684> 551 55<206.065 326.327>
VStem: 109 55<383.659 459.168> 140 153<100.748 177.8> 249 53<391.708 469.502> 449 149<321.5 405.915>
LayerCount: 2
Fore
SplineSet
710 630 m 1xd580
 684 505 l 1
 618 505 557 500 502 460 c 1
 502 460 598 434 598 373 c 0
 598 369 598 364 597 360 c 2
 550 140 l 2
 542 102 460 -12 313 -12 c 0
 179 -12 140 82 140 128 c 0xd280
 140 133 140 137 141 140 c 2
 152 194 l 2
 178 318 318 347 339 444 c 0
 341 454 342 463 342 472 c 0
 342 518 316 551 271 551 c 0
 237 551 208 532 192 511 c 1
 192 511 211 523 231 523 c 0
 271 523 302 500 302 453 c 0
 302 445 301 436 299 426 c 0
 287 371 236 326 185 326 c 0
 141 326 109 364 109 415 c 0
 109 423 110 432 112 441 c 0
 133 540 214 606 290 606 c 0xed80
 359 606 402 560 411 502 c 1
 483 587 616 630 710 630 c 1xd580
216 471 m 0xe580
 194 471 170 450 165 426 c 0
 164 423 164 420 164 417 c 0
 164 397 178 381 197 381 c 0
 219 381 243 402 248 426 c 0
 249 429 249 432 249 435 c 0
 249 455 235 471 216 471 c 0xe580
403 420 m 1
 374 313 326 307 307 219 c 2
 295 165 l 2
 294 159 293 152 293 145 c 0xc280
 293 121 303 98 337 98 c 0
 381 98 401 137 407 165 c 2
 448 360 l 2
 449 363 449 365 449 368 c 0
 449 391 424 408 403 420 c 1
EndSplineSet
EndChar

StartChar: uni0E0B.alt
Encoding: 3682 3682 98
Width: 595
VWidth: 0
Flags: W
HStem: -12 110<322.742 417.239> 298 55<171.714 239.752> 433 50<178.353 245.877> 505 125<598.074 712> 551 55<199.879 271.492>
VStem: 104 67<355.158 427.188> 168 152<100.816 177.8> 247 47<361.324 431.876> 477 149<321.5 405.915>
LayerCount: 2
Fore
SplineSet
738 630 m 1xf580
 712 505 l 1
 646 505 585 500 530 460 c 1
 530 460 626 434 626 373 c 0
 626 369 626 364 625 360 c 2
 578 140 l 2
 570 102 488 -12 341 -12 c 0
 207 -12 168 82 168 128 c 0xf280
 168 133 168 137 169 140 c 2
 180 194 l 2
 201 291 357 347 378 444 c 0
 382 463 384 479 384 493 c 0
 384 519 377 536 367 556 c 1
 315 484 l 1
 276 484 l 1
 274 507 277 551 240 551 c 0
 205 551 174 492 165 449 c 1
 180 466 202 483 228 483 c 0
 267 483 294 454 294 414 c 0
 294 407 294 400 292 393 c 0
 281 343 235 298 189 298 c 0
 135 298 104 337 104 400 c 0
 104 415 105 431 109 448 c 1
 120 497 171 606 253 606 c 0
 309 606 309 543 309 543 c 1
 357 606 l 1
 383 606 l 1xed80
 417 594 443 561 450 514 c 1
 524 591 649 630 738 630 c 1xf580
217 433 m 0
 197 433 177 415 172 393 c 0
 171 390 171 387 171 384 c 0
 171 366 183 353 200 353 c 0
 220 353 241 371 246 393 c 0
 247 396 247 399 247 402 c 0xe580
 247 420 234 433 217 433 c 0
440 415 m 1
 408 309 348 282 335 219 c 2
 323 165 l 2
 321 158 320 150 320 142 c 0xe280
 320 119 330 98 365 98 c 0
 413 98 429 137 435 165 c 2
 476 360 l 2
 477 363 477 365 477 367 c 0
 477 388 458 403 440 415 c 1
EndSplineSet
EndChar

StartChar: uni0E28.alt
Encoding: 3683 3683 99
Width: 603
VWidth: 0
Flags: W
HStem: 0 21G<60 204.5 408 556.261> 227 55<310.481 386.114> 372 55<318.248 393.805> 502 110<313.588 465.672> 505 125<621.531 716>
VStem: 395 53<290.427 369.735> 489 146<316.376 478.625>
LayerCount: 2
Fore
SplineSet
742 630 m 1xee
 716 505 l 1xee
 683 505 650 504 620 497 c 1
 630 474 635 448 635 419 c 0
 635 398 632 376 627 352 c 2
 552 0 l 1
 408 0 l 1
 483 352 l 2
 487 372 489 390 489 405 c 0
 489 472 453 502 394 502 c 0
 321 502 258 451 237 352 c 0
 231 324 225 284 222 251 c 1
 239 293 253 347 279 377 c 0
 304 407 339 427 374 427 c 0
 418 427 448 394 448 350 c 0
 448 342 447 335 445 327 c 0
 433 272 382 227 331 227 c 0
 307 227 287 237 274 253 c 1
 234 171 213 79 196 0 c 1
 60 0 l 1
 73 38 80 69 86 96 c 0
 111 213 89 227 116 352 c 0
 146 495 262 612 417 612 c 0xf6
 471 612 512 601 547 581 c 1
 611 613 684 630 742 630 c 1xee
362 372 m 0
 339 372 315 352 310 327 c 0
 309 324 309 321 309 318 c 0
 309 297 323 282 343 282 c 0
 366 282 389 302 394 327 c 0
 395 330 395 334 395 337 c 0
 395 357 382 372 362 372 c 0
EndSplineSet
EndChar

StartChar: uni0E2A.alt
Encoding: 3684 3684 100
Width: 575
VWidth: 0
Flags: W
HStem: -6 70<209.141 283.199> 154 70<220.692 291.103> 310 95<262.52 383.177> 505 125<603.192 683> 517 95<332.104 450.903>
VStem: 80 127<65.0461 145.103> 293 67<74.6216 152.202> 461 149<370.691 499.202>
LayerCount: 2
Fore
SplineSet
710 630 m 1xf7
 683 505 l 1xf7
 655 505 627 504 601 500 c 1
 607 483 610 465 610 446 c 0
 610 431 608 417 605 402 c 2
 533 60 l 2
 519 -4 370 -6 370 -6 c 1
 403 150 l 2
 406 162 407 177 407 194 c 0
 407 246 391 310 335 310 c 0
 283 310 241 282 220 210 c 1
 237 219 255 224 274 224 c 0
 325 224 360 187 360 136 c 0
 360 127 359 118 357 109 c 0
 343 45 286 -6 226 -6 c 0
 141 -6 80 48 80 139 c 0
 80 155 82 172 86 190 c 0
 112 314 208 405 327 405 c 0
 411 405 439 347 439 320 c 1
 456 402 l 2
 459 418 461 433 461 447 c 0
 461 490 443 517 397 517 c 0
 337 517 309 475 300 434 c 1
 147 434 l 1
 164 515 275 612 417 612 c 0xef
 461 612 497 603 526 587 c 1
 588 615 656 630 710 630 c 1xf7
260 154 m 0
 237 154 213 134 208 109 c 0
 207 106 207 102 207 99 c 0
 207 79 220 64 240 64 c 0
 263 64 287 84 292 109 c 0
 293 112 293 116 293 119 c 0
 293 139 280 154 260 154 c 0
EndSplineSet
EndChar

StartChar: uni0E2E.alt
Encoding: 3686 3686 101
Width: 575
VWidth: 0
Flags: W
HStem: -12 100<245.691 377.686> 320 80<207.708 288.38> 505 125<603.192 683> 512 100<319.895 443.441>
VStem: 97 145<97.1801 152.026> 290 76<231.687 317.456> 459 151<366.048 497.117>
LayerCount: 2
Fore
SplineSet
710 630 m 1xee
 683 505 l 1xee
 655 505 627 504 601 500 c 1
 607 483 610 465 610 446 c 0
 610 431 608 417 605 402 c 2
 560 188 l 2
 526 26 409 -12 285 -12 c 0
 179 -12 97 16 97 126 c 0
 97 144 99 165 104 188 c 1
 121 270 l 2
 136 342 203 400 270 400 c 0
 328 400 366 357 366 299 c 0
 366 290 365 280 363 270 c 0
 350 209 300 158 244 144 c 1
 243 139 242 134 242 130 c 0
 242 95 277 88 306 88 c 0
 341 88 391 100 405 160 c 1
 456 402 l 2
 458 413 459 423 459 433 c 0
 459 483 431 512 387 512 c 0
 335 512 300 475 291 434 c 1
 138 434 l 1
 155 515 266 612 408 612 c 0xde
 452 612 497 603 526 587 c 1
 588 615 656 630 710 630 c 1xee
253 320 m 0
 227 320 202 298 196 270 c 0
 195 266 195 262 195 258 c 0
 195 236 210 220 232 220 c 0
 258 220 283 242 289 270 c 0
 290 274 290 278 290 282 c 0
 290 304 275 320 253 320 c 0
EndSplineSet
EndChar

StartChar: B
Encoding: 66 66 102
Width: 704
VWidth: 0
Flags: W
HStem: 0 120<220 486.028> 390 110<301 520.734> 750 110<354 568.19>
VStem: 558 161<191.301 353.847> 601 162<574.012 718.494>
LayerCount: 2
Fore
SplineSet
36 0 m 1xf0
 219 860 l 1
 507 860 l 2
 682 860 763 808 763 693 c 0xe8
 763 672 760 650 755 625 c 0
 743 569 700 492 625 450 c 1
 697 421 719 367 719 309 c 0
 719 288 716 266 712 245 c 0
 675 70 535 0 408 0 c 2
 36 0 l 1xf0
277 390 m 1
 220 120 l 1
 369 120 l 2
 442 120 530 139 553 245 c 0
 556 260 558 273 558 286 c 0xf0
 558 361 500 390 417 390 c 2
 277 390 l 1
301 500 m 1
 431 500 l 2
 512 500 580 543 597 625 c 0
 599 637 601 647 601 657 c 0xe8
 601 718 556 750 456 750 c 2
 354 750 l 1
 301 500 l 1
EndSplineSet
EndChar

StartChar: period
Encoding: 46 46 103
Width: 276
VWidth: 0
Flags: W
HStem: 0 200<104.055 197.439>
VStem: 55 192<49.8815 150.119>
LayerCount: 2
Fore
SplineSet
244 100 m 0
 232 44 181 0 129 0 c 0
 85 0 55 32 55 77 c 0
 55 84 56 92 58 100 c 0
 70 156 120 200 172 200 c 0
 217 200 247 168 247 123 c 0
 247 116 246 108 244 100 c 0
EndSplineSet
EndChar

StartChar: x
Encoding: 120 120 104
Width: 494
VWidth: 0
Flags: W
HStem: 0 21G<-18 157.217 346.217 513> 600 20G<141 298.737 451.737 618>
LayerCount: 2
Fore
SplineSet
242 335 m 1
 141 620 l 1
 294 620 l 1
 339 430 l 1
 465 620 l 1
 618 620 l 1
 395 335 l 1
 513 0 l 1
 351 0 l 1
 296 230 l 1
 144 0 l 1
 -18 0 l 1
 242 335 l 1
EndSplineSet
EndChar

StartChar: i
Encoding: 105 105 105
Width: 268
VWidth: 0
Flags: W
HStem: 0 21G<54 201.226> 600 20G<181.742 328> 720 200<255.944 343.52>
VStem: 208 184<770.334 870.119>
LayerCount: 2
Fore
SplineSet
389 820 m 0
 377 764 328 720 278 720 c 0
 236 720 208 752 208 795 c 0
 208 803 209 811 211 820 c 0
 223 876 271 920 321 920 c 0
 364 920 392 888 392 844 c 0
 392 836 391 828 389 820 c 0
186 620 m 1
 328 620 l 1
 197 0 l 1
 54 0 l 1
 186 620 l 1
EndSplineSet
EndChar

StartChar: o
Encoding: 111 111 106
Width: 591
VWidth: 0
Flags: W
HStem: -18 110<242.645 378.593> 528 110<326.554 462.593>
VStem: 75 144<115.614 348.454> 487 143<271.546 504.339>
LayerCount: 2
Fore
SplineSet
422 638 m 0
 547 638 630 553 630 427 c 0
 630 405 627 382 622 358 c 0
 611 306 613 314 602 262 c 0
 567 99 429 -18 283 -18 c 0
 158 -18 75 67 75 193 c 0
 75 215 78 238 83 262 c 0
 94 314 92 306 103 358 c 0
 138 521 276 638 422 638 c 0
399 528 m 0
 321 528 268 461 244 348 c 0
 233 296 239 324 228 272 c 0
 222 244 219 219 219 197 c 0
 219 130 247 92 306 92 c 0
 384 92 438 159 462 272 c 0
 473 324 467 296 478 348 c 0
 484 375 487 400 487 422 c 0
 487 490 458 528 399 528 c 0
EndSplineSet
EndChar

StartChar: O
Encoding: 79 79 107
Width: 779
VWidth: 0
Flags: W
HStem: -18 125<313.184 500.695> 753 125<443.305 630.996>
VStem: 92 166<163.065 425.625> 687 166<436.562 696.385>
LayerCount: 2
Fore
SplineSet
567 878 m 0
 742 878 853 770 853 602 c 0
 853 573 850 542 843 510 c 2
 808 350 l 2
 761 131 582 -18 377 -18 c 0
 202 -18 92 90 92 257 c 0
 92 287 95 318 102 350 c 2
 136 510 l 2
 183 729 362 878 567 878 c 0
541 753 m 0
 407 753 326 642 294 490 c 2
 269 370 l 2
 262 334 258 301 258 271 c 0
 258 172 300 107 403 107 c 0
 537 107 618 218 650 370 c 2
 676 490 l 2
 683 525 687 558 687 588 c 0
 687 687 644 753 541 753 c 0
EndSplineSet
EndChar

StartChar: I
Encoding: 73 73 108
Width: 249
VWidth: 0
Flags: W
HStem: 0 21G<36 198.256> 840 20G<214.744 377>
VStem: 36 341
LayerCount: 2
Fore
SplineSet
219 860 m 1
 377 860 l 1
 194 0 l 1
 36 0 l 1
 219 860 l 1
EndSplineSet
EndChar

StartChar: X
Encoding: 88 88 109
Width: 706
VWidth: 0
Flags: W
HStem: 0 21G<-9 182.882 515.118 707> 840 20G<202 385.321 669.151 862>
LayerCount: 2
Fore
SplineSet
202 860 m 1
 378 860 l 1
 475 595 l 1
 685 860 l 1
 862 860 l 1
 542 470 l 1
 707 0 l 1
 521 0 l 1
 421 340 l 1
 168 0 l 1
 -9 0 l 1
 356 470 l 1
 202 860 l 1
EndSplineSet
EndChar

StartChar: H
Encoding: 72 72 110
Width: 723
VWidth: 0
Flags: W
HStem: 0 21G<36 198.256 501 673.256> 390 120<303 584> 840 20G<214.744 377 679.771 852>
LayerCount: 2
Fore
SplineSet
219 860 m 1
 377 860 l 1
 303 510 l 1
 610 510 l 1
 684 860 l 1
 852 860 l 1
 669 0 l 1
 501 0 l 1
 584 390 l 1
 277 390 l 1
 194 0 l 1
 36 0 l 1
 219 860 l 1
EndSplineSet
EndChar

StartChar: P
Encoding: 80 80 111
Width: 658
VWidth: 0
Flags: W
HStem: 0 21G<46 208.235> 340 110<299 520.071> 750 110<363 571.934>
VStem: 614 163<550.277 709.391>
LayerCount: 2
Fore
SplineSet
228 860 m 1
 526 860 l 2
 698 860 777 797 777 677 c 0
 777 653 774 628 768 600 c 0
 741 471 600 340 462 340 c 2
 276 340 l 1
 204 0 l 1
 46 0 l 1
 228 860 l 1
363 750 m 1
 299 450 l 1
 439 450 l 2
 520 450 593 518 610 600 c 0
 613 613 614 625 614 637 c 0
 614 701 573 750 475 750 c 2
 363 750 l 1
EndSplineSet
EndChar

StartChar: p
Encoding: 112 112 112
Width: 600
VWidth: 0
Flags: W
HStem: -18 110<258.462 393.25> 528 110<370.533 474.943> 600 20G<163.75 293>
VStem: 497 144<280 507.393>
LayerCount: 2
Fore
SplineSet
314 -18 m 0xd0
 231 -18 186 53 182 100 c 1
 89 -340 l 1
 -36 -340 l 1
 168 620 l 1
 293 620 l 1xb0
 267 500 l 1
 288 537 356 638 453 638 c 0
 573 638 641 566 641 444 c 0
 641 418 638 389 631 358 c 2
 611 262 l 2
 574 89 460 -18 314 -18 c 0xd0
315 92 m 0
 393 92 444 149 468 262 c 2
 489 358 l 2
 495 385 497 408 497 428 c 0
 497 495 468 528 408 528 c 0xd0
 339 528 275 451 253 348 c 2
 237 272 l 2
 232 250 230 229 230 210 c 0
 230 140 261 92 315 92 c 0
EndSplineSet
EndChar

StartChar: K
Encoding: 75 75 113
Width: 687
VWidth: 0
Flags: W
HStem: 0 21G<46 208.205 492.872 706> 840 20G<223.767 386 619.514 823>
LayerCount: 2
Fore
SplineSet
228 860 m 1
 386 860 l 1
 312 510 l 1
 331 510 l 1
 637 860 l 1
 823 860 l 1
 462 470 l 1
 706 0 l 1
 502 0 l 1
 324 390 l 1
 286 390 l 1
 204 0 l 1
 46 0 l 1
 228 860 l 1
EndSplineSet
EndChar

StartChar: j
Encoding: 106 106 114
Width: 267
VWidth: 0
Flags: W
HStem: -340 120<-120 -38.0625> 600 20G<180.735 327> 720 200<254.48 342.056>
VStem: 206 184<769.881 869.666>
LayerCount: 2
Fore
SplineSet
387 820 m 0
 375 764 327 720 277 720 c 0
 234 720 206 752 206 796 c 0
 206 804 207 812 209 820 c 0
 221 876 270 920 320 920 c 0
 362 920 390 888 390 845 c 0
 390 837 389 829 387 820 c 0
185 620 m 1
 327 620 l 1
 327 620 231 167 183 -60 c 0
 141 -257 1 -340 -145 -340 c 1
 -120 -220 l 1
 -33 -220 18 -163 40 -60 c 0
 185 620 l 1
EndSplineSet
EndChar

StartChar: D
Encoding: 68 68 115
Width: 751
VWidth: 0
Flags: W
HStem: 0 125<221 441.816> 745 115<353 540.655>
VStem: 642 168<382.706 649.592>
LayerCount: 2
Fore
SplineSet
219 860 m 1
 470 860 l 2
 698 860 810 730 810 544 c 0
 810 508 805 470 797 430 c 0
 747 196 590 0 343 0 c 2
 36 0 l 1
 219 860 l 1
353 745 m 1
 221 125 l 1
 323 125 l 2
 490 125 590 241 630 430 c 0
 638 467 642 502 642 534 c 0
 642 664 574 745 418 745 c 2
 353 745 l 1
EndSplineSet
EndChar

StartChar: E
Encoding: 69 69 116
Width: 658
VWidth: 0
Flags: W
HStem: 0 130<222 613> 390 120<303 612> 740 120<352 752>
LayerCount: 2
Fore
SplineSet
219 860 m 1
 777 860 l 1
 752 740 l 1
 352 740 l 1
 303 510 l 1
 638 510 l 1
 612 390 l 1
 277 390 l 1
 222 130 l 1
 641 130 l 1
 613 0 l 1
 36 0 l 1
 219 860 l 1
EndSplineSet
EndChar

StartChar: L
Encoding: 76 76 117
Width: 575
VWidth: 0
Flags: W
HStem: 0 125<221 557> 840 20G<214.744 377>
LayerCount: 2
Fore
SplineSet
219 860 m 1
 377 860 l 1
 221 125 l 1
 584 125 l 1
 557 0 l 1
 36 0 l 1
 219 860 l 1
EndSplineSet
EndChar

StartChar: F
Encoding: 70 70 118
Width: 603
VWidth: 0
Flags: W
HStem: 0 21G<36 198.256> 390 120<303 603> 740 120<352 752>
LayerCount: 2
Fore
SplineSet
219 860 m 1
 777 860 l 1
 752 740 l 1
 352 740 l 1
 303 510 l 1
 628 510 l 1
 603 390 l 1
 277 390 l 1
 194 0 l 1
 36 0 l 1
 219 860 l 1
EndSplineSet
EndChar

StartChar: J
Encoding: 74 74 119
Width: 584
VWidth: 0
Flags: W
HStem: -18 120<247.604 373.095>
VStem: 67 159<123.252 270.735>
LayerCount: 2
Fore
SplineSet
571 850 m 1
 729 850 l 1
 600 242 l 2
 567 88 437 -18 279 -18 c 0
 147 -18 67 56 67 188 c 0
 67 214 70 242 76 272 c 1
 234 272 l 1
 229 248 226 224 226 202 c 0
 226 145 247 102 305 102 c 0
 385 102 428 179 448 272 c 2
 571 850 l 1
EndSplineSet
EndChar

StartChar: T
Encoding: 84 84 120
Width: 584
VWidth: 0
Flags: W
HStem: 0 21G<209 371.243> 740 120<201 366 524 715>
LayerCount: 2
Fore
SplineSet
201 860 m 1
 740 860 l 1
 715 740 l 1
 524 740 l 1
 367 0 l 1
 209 0 l 1
 366 740 l 1
 175 740 l 1
 201 860 l 1
EndSplineSet
EndChar

StartChar: N
Encoding: 78 78 121
Width: 723
VWidth: 0
Flags: W
HStem: 0 21G<36 198.273 478.515 673.256> 840 20G<214.744 409.485 688.758 852>
LayerCount: 2
Fore
SplineSet
219 860 m 1
 405 860 l 1
 553 200 l 1
 693 860 l 1
 852 860 l 1
 669 0 l 1
 483 0 l 1
 335 660 l 1
 194 0 l 1
 36 0 l 1
 219 860 l 1
EndSplineSet
EndChar

StartChar: M
Encoding: 77 77 122
Width: 872
VWidth: 0
Flags: W
HStem: 0 21G<36 198.281 365.875 496.656 660 822.233> 840 20G<214.744 433.941 776.559 1000>
LayerCount: 2
Fore
SplineSet
367 0 m 1
 331 640 l 1
 194 0 l 1
 36 0 l 1
 219 860 l 1
 433 860 l 1
 465 180 l 1
 786 860 l 1
 1000 860 l 1
 818 0 l 1
 660 0 l 1
 796 640 l 1
 487 0 l 1
 367 0 l 1
EndSplineSet
EndChar

StartChar: U
Encoding: 85 85 123
Width: 741
VWidth: 0
Flags: W
HStem: -18 120<302.534 477.337>
VStem: 95 166<143.853 393.75>
LayerCount: 2
Fore
SplineSet
217 850 m 1
 380 850 l 1
 278 370 l 2
 268 322 261 278 261 240 c 0
 261 156 292 102 384 102 c 0
 518 102 571 218 603 370 c 2
 705 850 l 1
 868 850 l 1
 758 330 l 2
 711 111 563 -18 358 -18 c 0
 188 -18 95 71 95 226 c 0
 95 258 99 293 107 330 c 2
 217 850 l 1
EndSplineSet
EndChar

StartChar: b
Encoding: 98 98 124
Width: 600
VWidth: 0
Flags: W
HStem: -18 110<259.125 393.25> 0 21G<36 165.333> 528 110<364.704 474.943> 940 20G<235.75 365>
VStem: 497 144<280 507.393>
LayerCount: 2
Fore
SplineSet
453 638 m 0x78
 573 638 641 566 641 444 c 0
 641 418 638 389 631 358 c 2
 611 262 l 2
 574 89 460 -18 314 -18 c 0xb8
 217 -18 193 83 187 120 c 1
 161 0 l 1
 36 0 l 1
 240 960 l 1
 365 960 l 1
 272 520 l 1
 296 567 370 638 453 638 c 0x78
408 528 m 0
 339 528 275 451 253 348 c 2
 237 272 l 2
 232 250 230 229 230 210 c 0
 230 140 261 92 315 92 c 0
 393 92 444 149 468 262 c 2
 489 358 l 2
 495 385 497 408 497 428 c 0
 497 495 468 528 408 528 c 0
EndSplineSet
EndChar

StartChar: R
Encoding: 82 82 125
Width: 668
VWidth: 0
Flags: W
HStem: 0 21G<36 198.27 484.812 660> 370 110<297 452.218> 750 110<354 557.233>
VStem: 469 161<1.80801 261.849> 492 161<74.225 331.719> 582 163<574.065 721.394>
LayerCount: 2
Fore
SplineSet
219 860 m 1xe8
 481 860 l 2
 638 860 745 821 745 693 c 0xe4
 745 674 743 653 738 630 c 0
 720 544 650 458 572 420 c 1
 621 405 653 359 653 276 c 0xe8
 653 248 650 216 642 180 c 0
 633 139 630 107 630 82 c 0xf0
 630 8 660 0 660 0 c 1
 492 0 l 1xe8
 492 0 469 1 469 64 c 0xf0
 469 91 473 128 484 180 c 0
 490 206 492 229 492 250 c 0
 492 330 450 370 357 370 c 2
 273 370 l 1
 194 0 l 1
 36 0 l 1
 219 860 l 1xe8
354 750 m 1
 297 480 l 1
 408 480 l 2
 489 480 560 538 577 620 c 0
 580 636 582 650 582 663 c 0
 582 719 550 750 456 750 c 2
 354 750 l 1
EndSplineSet
EndChar

StartChar: V
Encoding: 86 86 126
Width: 761
VWidth: 0
Flags: W
HStem: 0 21G<285.977 465.535> 840 20G<201 378.941 721.559 908>
LayerCount: 2
Fore
SplineSet
201 860 m 1
 378 860 l 1
 410 180 l 1
 731 860 l 1
 908 860 l 1
 455 0 l 1
 288 0 l 1
 201 860 l 1
EndSplineSet
EndChar

StartChar: Y
Encoding: 89 89 127
Width: 678
VWidth: 0
Flags: W
HStem: 0 21G<256 418.222> 840 20G<192 364.059 661.471 843>
LayerCount: 2
Fore
SplineSet
192 860 m 1
 359 860 l 1
 445 520 l 1
 675 860 l 1
 843 860 l 1
 490 360 l 1
 414 0 l 1
 256 0 l 1
 332 360 l 1
 192 860 l 1
EndSplineSet
EndChar

StartChar: A
Encoding: 65 65 128
Width: 780
VWidth: 0
Flags: W
HStem: 0 21G<18 197.333 592.143 762> 210 110<356 561> 840 20G<487.814 649.674>
LayerCount: 2
Fore
SplineSet
499 860 m 1
 647 860 l 1
 762 0 l 1
 595 0 l 1
 565 210 l 1
 305 210 l 1
 186 0 l 1
 18 0 l 1
 499 860 l 1
528 650 m 1
 356 320 l 1
 561 320 l 1
 528 650 l 1
EndSplineSet
EndChar

StartChar: Q
Encoding: 81 81 129
Width: 780
VWidth: 0
Flags: W
HStem: -18 125<313.184 466.631> 753 125<443.305 630.996>
VStem: 92 166<163.065 425.625> 687 166<436.562 696.385>
LayerCount: 2
Fore
SplineSet
567 878 m 0
 742 878 853 770 853 602 c 0
 853 573 850 542 843 510 c 2
 808 350 l 2
 787 251 739 167 674 104 c 1
 759 -14 l 1
 638 -120 l 1
 540 15 l 1
 489 -6 435 -18 377 -18 c 0
 202 -18 92 90 92 257 c 0
 92 287 95 318 102 350 c 2
 136 510 l 2
 183 729 362 878 567 878 c 0
541 753 m 0
 407 753 326 642 294 490 c 2
 269 370 l 2
 262 334 258 301 258 271 c 0
 258 172 300 107 403 107 c 0
 426 107 448 110 468 116 c 1
 384 234 l 1
 505 340 l 1
 592 218 l 1
 619 260 638 312 650 370 c 2
 676 490 l 2
 683 525 687 558 687 588 c 0
 687 687 644 753 541 753 c 0
EndSplineSet
EndChar

StartChar: Z
Encoding: 90 90 130
Width: 723
VWidth: 0
Flags: W
HStem: 0 130<241 669> 735 125<228 639>
LayerCount: 2
Fore
SplineSet
228 860 m 1
 833 860 l 1
 806 735 l 1
 241 130 l 1
 696 130 l 1
 669 0 l 1
 36 0 l 1
 64 130 l 1
 639 735 l 1
 202 735 l 1
 228 860 l 1
EndSplineSet
EndChar

StartChar: W
Encoding: 87 87 131
Width: 994
VWidth: 0
Flags: W
HStem: 0 21G<177 371.632 613.825 808.349> 840 20G<182.86 350 602.353 731.147 984.471 1159>
VStem: 177 140<180 353.091> 183 167<686.909 860> 611 120<180 570>
LayerCount: 2
Fore
SplineSet
611 860 m 1xe8
 731 860 l 1
 736 180 l 1
 992 860 l 1
 1159 860 l 1
 800 0 l 1
 614 0 l 1
 609 570 l 1
 363 0 l 1
 177 0 l 1xe8
 183 860 l 1
 350 860 l 1xd8
 317 180 l 1
 611 860 l 1xe8
EndSplineSet
EndChar

StartChar: S
Encoding: 83 83 132
Width: 723
VWidth: 0
Flags: W
HStem: -18 120<299.224 489.789> 768 110<429.203 599.029>
VStem: 87 165<147.229 270> 183 165<541.317 684.066> 582 165<192.412 343.716> 631 163<600 736.608>
LayerCount: 2
Fore
SplineSet
539 878 m 0xd8
 707 878 794 783 794 660 c 0
 794 641 791 620 787 600 c 1
 624 600 l 1
 628 621 631 641 631 659 c 0
 631 727 596 768 516 768 c 0
 416 768 364 685 352 630 c 0
 349 617 348 606 348 595 c 0xd4
 348 547 380 521 480 510 c 0
 608 495 747 449 747 306 c 0
 747 289 745 270 741 250 c 0
 701 63 538 -18 358 -18 c 0
 201 -18 87 62 87 205 c 0
 87 225 89 247 94 270 c 1
 257 270 l 1
 254 254 252 239 252 226 c 0xe8
 252 144 310 102 384 102 c 0
 478 102 556 148 578 250 c 0
 581 264 582 276 582 287 c 0
 582 346 538 370 417 390 c 0
 313 407 183 451 183 581 c 0
 183 596 185 612 189 630 c 0
 213 745 345 878 539 878 c 0xd8
EndSplineSet
EndChar

StartChar: u
Encoding: 117 117 133
Width: 573
VWidth: 0
Flags: W
HStem: -12 110<250.658 375.994> 600 20G<172.759 320 513.739 660>
VStem: 88 147<114.274 322.281>
LayerCount: 2
Fore
SplineSet
177 620 m 1
 320 620 l 1
 245 268 l 2
 238 237 235 210 235 187 c 0
 235 128 258 98 308 98 c 0
 377 98 419 155 443 268 c 2
 518 620 l 1
 660 620 l 1
 579 238 l 2
 546 85 430 -12 284 -12 c 0
 161 -12 88 57 88 170 c 0
 88 191 91 214 96 238 c 2
 177 620 l 1
EndSplineSet
EndChar

StartChar: C
Encoding: 67 67 134
Width: 751
VWidth: 0
Flags: W
HStem: -18 125<305.096 483.077> 753 125<435.251 604.163>
VStem: 91 165<158.65 420.312> 651 177<570 700.386>
LayerCount: 2
Fore
SplineSet
558 878 m 0
 723 878 828 776 828 605 c 0
 828 593 828 582 827 570 c 1
 651 570 l 1
 651 574 651 577 651 581 c 0
 651 677 625 753 531 753 c 0
 397 753 326 642 294 490 c 2
 269 370 l 2
 261 331 256 295 256 262 c 0
 256 168 294 107 394 107 c 0
 491 107 567 185 600 290 c 1
 777 290 l 1
 704 84 544 -18 368 -18 c 0
 195 -18 91 88 91 253 c 0
 91 283 95 316 102 350 c 2
 136 510 l 2
 183 729 353 878 558 878 c 0
EndSplineSet
EndChar

StartChar: d
Encoding: 100 100 135
Width: 600
VWidth: 0
Flags: W
HStem: -18 110<248.057 352.513> 0 21G<431 559.25> 528 110<329.75 464.741> 940 20G<630.727 759>
VStem: 82 144<112.607 340>
LayerCount: 2
Fore
SplineSet
409 638 m 0xb8
 492 638 537 567 541 520 c 1
 635 960 l 1
 759 960 l 1
 555 0 l 1
 431 0 l 1x78
 456 120 l 1
 435 83 367 -18 270 -18 c 0
 150 -18 82 54 82 176 c 0
 82 202 85 231 92 262 c 2
 112 358 l 2
 149 531 263 638 409 638 c 0xb8
408 528 m 0
 330 528 279 471 255 358 c 2
 234 262 l 2
 228 235 226 212 226 192 c 0
 226 125 255 92 315 92 c 0xb8
 384 92 449 169 471 272 c 2
 487 348 l 2
 492 370 494 390 494 409 c 0
 494 480 462 528 408 528 c 0
EndSplineSet
EndChar

StartChar: G
Encoding: 71 71 136
Width: 751
VWidth: 0
Flags: W
HStem: -18 120<306.287 515.636> 340 120<469 620> 758 120<436.058 605.075>
VStem: 91 165<153.771 420.312> 651 178<570 709.924>
LayerCount: 2
Fore
SplineSet
558 878 m 0
 723 878 829 781 829 607 c 0
 829 595 828 583 827 570 c 1
 651 570 l 1
 651 661 639 758 533 758 c 0
 399 758 326 642 294 490 c 2
 269 370 l 2
 261 330 256 293 256 260 c 0
 256 166 294 102 393 102 c 0
 482 102 523 126 585 175 c 1
 620 340 l 1
 444 340 l 1
 469 460 l 1
 804 460 l 1
 734 130 l 1
 618 25 524 -18 368 -18 c 0
 195 -18 91 88 91 253 c 0
 91 283 95 316 102 350 c 2
 136 510 l 2
 183 729 353 878 558 878 c 0
EndSplineSet
EndChar

StartChar: g
Encoding: 103 103 137
Width: 600
VWidth: 0
Flags: W
HStem: -340 110<189.348 334.051> -18 110<252.644 361.301> 528 110<334.753 470.218> 600 20G<557.818 687>
VStem: 27 143<-211.905 -90> 83 144<116.985 344.5>
LayerCount: 2
Fore
SplineSet
409 638 m 0xe4
 524 638 533 547 539 510 c 1
 562 620 l 1
 687 620 l 1
 536 -90 l 2
 503 -243 387 -340 232 -340 c 0
 101 -340 27 -271 27 -157 c 0
 27 -136 30 -114 35 -90 c 1
 177 -90 l 1
 173 -110 170 -128 170 -144 c 0xd8
 170 -197 195 -230 256 -230 c 0
 335 -230 375 -173 393 -90 c 2
 432 90 l 1
 407 43 362 -18 270 -18 c 0
 150 -18 83 62 83 181 c 0
 83 206 86 233 92 262 c 2
 112 358 l 2
 147 521 263 638 409 638 c 0xe4
408 528 m 0xe4
 339 528 279 471 255 358 c 2
 234 262 l 2
 229 238 227 217 227 198 c 0
 227 128 260 92 315 92 c 0
 384 92 446 159 468 262 c 2
 489 358 l 2
 494 380 496 400 496 418 c 0
 496 486 464 528 408 528 c 0xe4
EndSplineSet
EndChar

StartChar: l
Encoding: 108 108 138
Width: 251
VWidth: 0
Flags: W
HStem: 0 21G<46 192.25> 940 20G<245.75 392>
VStem: 46 346
LayerCount: 2
Fore
SplineSet
250 960 m 1
 392 960 l 1
 188 0 l 1
 46 0 l 1
 250 960 l 1
EndSplineSet
EndChar

StartChar: n
Encoding: 110 110 139
Width: 573
VWidth: 0
Flags: W
HStem: 0 21G<36 183.242 377 523.25> 522 110<364.921 461.264> 600 20G<163.742 293>
VStem: 467 145<317.75 516.055>
LayerCount: 2
Fore
SplineSet
168 620 m 1xb0
 293 620 l 1xb0
 265 490 l 1
 287 526 341 632 457 632 c 0
 543 632 612 582 612 471 c 0
 612 450 610 426 604 400 c 2
 519 0 l 1
 377 0 l 1
 454 362 l 2
 463 404 467 436 467 459 c 0
 467 506 450 522 416 522 c 0xd0
 332 522 271 434 249 330 c 2
 179 0 l 1
 36 0 l 1
 168 620 l 1xb0
EndSplineSet
EndChar

StartChar: m
Encoding: 109 109 140
Width: 833
VWidth: 0
Flags: W
HStem: 0 21G<36 183.235 341 487.235 636 783.244> 522 110<353.152 475 643.777 770.5> 600 20G<163.742 284>
VStem: 726 148<326.484 517.304>
LayerCount: 2
Fore
SplineSet
434 632 m 0xd0
 516 632 539 562 543 490 c 1
 568 545 637 632 730 632 c 0
 811 632 874 590 874 484 c 0
 874 462 872 437 866 410 c 2
 779 0 l 1
 636 0 l 1
 713 360 l 2
 722 403 726 435 726 458 c 0
 726 510 707 522 675 522 c 0
 610 522 576 440 555 340 c 1
 483 0 l 1
 341 0 l 1
 417 360 l 2
 424 394 427 421 427 443 c 0
 427 501 404 522 371 522 c 0xd0
 298 522 269 423 251 340 c 2
 179 0 l 1
 36 0 l 1
 168 620 l 1
 284 620 l 1xb0
 254 480 l 1
 266 510 327 632 434 632 c 0xd0
EndSplineSet
EndChar

StartChar: q
Encoding: 113 113 141
Width: 600
VWidth: 0
Flags: W
HStem: -18 110<248.057 358.516> 528 110<329.75 465.713> 600 20G<557.833 687>
VStem: 82 144<112.607 340>
LayerCount: 2
Fore
SplineSet
270 -18 m 0xb0
 150 -18 82 54 82 176 c 0
 82 202 85 231 92 262 c 2
 112 358 l 2
 149 531 263 638 409 638 c 0xd0
 506 638 531 537 537 500 c 1
 562 620 l 1
 687 620 l 1
 483 -340 l 1
 358 -340 l 1
 452 100 l 1
 428 53 353 -18 270 -18 c 0xb0
315 92 m 0
 384 92 449 169 471 272 c 2
 487 348 l 2
 492 370 494 390 494 409 c 0
 494 480 462 528 408 528 c 0
 330 528 279 471 255 358 c 2
 234 262 l 2
 228 235 226 212 226 192 c 0
 226 125 255 92 315 92 c 0
EndSplineSet
EndChar

StartChar: a
Encoding: 97 97 142
Width: 572
VWidth: 0
Flags: W
HStem: -18 110<150 310.61> 0 21G<417.8 564> 280 100<251.641 427> 528 110<330.579 445.759>
VStem: 58 149<104.599 233.864> 409 131<0.0379333 115> 460 144<392 512.458>
LayerCount: 2
Fore
SplineSet
418 638 m 0xba
 536 638 604 566 604 469 c 0xba
 604 453 603 437 599 420 c 2
 544 160 l 2
 541 145 540 130 540 115 c 0
 540 52 564 0 564 0 c 1
 421 0 l 1
 421 0 409 38 409 75 c 0x7c
 409 83 409 92 411 100 c 1
 411 100 338 -18 211 -18 c 0
 89 -18 58 43 58 111 c 0
 58 136 62 161 67 185 c 0
 93 309 222 380 341 380 c 2
 448 380 l 1
 457 420 l 2
 459 431 460 442 460 452 c 0
 460 495 439 528 394 528 c 0
 337 528 298 478 286 420 c 1
 134 420 l 1
 157 530 281 638 418 638 c 0xba
319 280 m 2
 255 280 220 236 209 185 c 0
 208 178 207 171 207 165 c 0
 207 125 232 92 270 92 c 0
 328 92 397 141 422 258 c 2
 427 280 l 1
 319 280 l 2
EndSplineSet
EndChar

StartChar: h
Encoding: 104 104 143
Width: 573
VWidth: 0
Flags: W
HStem: 0 21G<36 183.242 377 523.25> 522 110<364.921 461.264> 939 20G<235.746 365>
VStem: 467 145<317.75 516.055>
LayerCount: 2
Fore
SplineSet
240 959 m 1
 365 959 l 1
 265 490 l 1
 287 526 341 632 457 632 c 0
 543 632 612 582 612 471 c 0
 612 450 610 426 604 400 c 2
 519 0 l 1
 377 0 l 1
 454 362 l 2
 463 404 467 436 467 459 c 0
 467 506 450 522 416 522 c 0
 332 522 271 434 249 330 c 2
 179 0 l 1
 36 0 l 1
 240 959 l 1
EndSplineSet
EndChar

StartChar: e
Encoding: 101 101 144
Width: 584
VWidth: 0
Flags: W
HStem: -18 110<242.882 373.561> 270 110<250 490.931> 528 110<324.794 463.1>
VStem: 75 143<117.447 269.688> 491 129<380.787 500.615>
LayerCount: 2
Fore
SplineSet
423 638 m 0
 552 638 620 542 620 419 c 0
 620 393 617 367 611 340 c 2
 596 270 l 1
 227 270 l 1
 225 262 l 2
 220 238 218 217 218 198 c 0
 218 128 251 92 306 92 c 0
 363 92 397 131 437 200 c 1
 581 200 l 1
 529 81 416 -18 284 -18 c 0
 153 -18 75 65 75 190 c 0
 75 213 78 237 83 262 c 2
 103 358 l 2
 134 506 268 638 423 638 c 0
399 528 m 0
 321 528 276 463 250 380 c 1
 489 380 l 1
 490 390 491 401 491 411 c 0
 491 475 467 528 399 528 c 0
EndSplineSet
EndChar

StartChar: c
Encoding: 99 99 145
Width: 555
VWidth: 0
Flags: W
HStem: -18 110<238.835 369.844> 528 110<323.082 449.252>
VStem: 75 142<113.976 346> 467 147<420 510.566>
LayerCount: 2
Fore
SplineSet
418 638 m 0
 532 638 614 551 614 442 c 0
 614 435 614 428 613 420 c 1
 466 420 l 1
 467 427 467 433 467 439 c 0
 467 496 438 528 394 528 c 0
 316 528 268 461 246 358 c 2
 225 262 l 2
 220 236 217 213 217 192 c 0
 217 130 243 92 302 92 c 0
 356 92 392 126 419 200 c 1
 571 200 l 1
 527 71 400 -18 278 -18 c 0
 154 -18 75 66 75 191 c 0
 75 213 78 237 83 262 c 2
 103 358 l 2
 138 521 272 638 418 638 c 0
EndSplineSet
EndChar

StartChar: w
Encoding: 119 119 146
Width: 711
VWidth: 0
Flags: W
HStem: 0 21G<134.903 278.095 432 575.613> 600 20G<132 276 412.045 546 682.864 834>
VStem: 432 101<180 420> 440 106<335.692 420>
LayerCount: 2
Fore
SplineSet
132 620 m 1xd0
 276 620 l 1
 245 180 l 1
 420 620 l 1
 546 620 l 1xd0
 533 180 l 1
 690 620 l 1
 834 620 l 1
 567 0 l 1
 432 0 l 1xe0
 440 420 l 1
 270 0 l 1
 135 0 l 1
 132 620 l 1xd0
EndSplineSet
EndChar

StartChar: v
Encoding: 118 118 147
Width: 567
VWidth: 0
Flags: W
HStem: 0 21G<209.419 357.097> 600 20G<132 281 531.56 690>
VStem: 132 148<554.9 620>
LayerCount: 2
Fore
SplineSet
132 620 m 1
 280 620 l 1
 305 120 l 1
 541 620 l 1
 690 620 l 1
 346 0 l 1
 212 0 l 1
 132 620 l 1
EndSplineSet
EndChar

StartChar: z
Encoding: 122 122 148
Width: 504
VWidth: 0
Flags: W
HStem: 0 120<179 477> 500 120<159 421>
LayerCount: 2
Fore
SplineSet
159 620 m 1
 591 620 l 1
 565 500 l 1
 179 120 l 1
 503 120 l 1
 477 0 l 1
 9 0 l 1
 35 120 l 1
 421 500 l 1
 133 500 l 1
 159 620 l 1
EndSplineSet
EndChar

StartChar: y
Encoding: 121 121 149
Width: 567
VWidth: 0
Flags: W
HStem: 600 20G<132 286.556 535.956 699>
LayerCount: 2
Fore
SplineSet
132 620 m 1
 285 620 l 1
 320 170 l 1
 546 620 l 1
 699 620 l 1
 180 -340 l 1
 18 -340 l 1
 225 0 l 1
 132 620 l 1
EndSplineSet
EndChar

StartChar: r
Encoding: 114 114 150
Width: 376
VWidth: 0
Flags: W
HStem: 0 21G<27 174.231> 502 130<398.166 456> 600 20G<154.742 301>
LayerCount: 2
Fore
SplineSet
456 502 m 1xc0
 332 502 251 382 225 260 c 2
 170 0 l 1
 27 0 l 1
 159 620 l 1
 301 620 l 1xa0
 270 470 l 1
 294 525 382 632 484 632 c 1
 456 502 l 1xc0
EndSplineSet
EndChar

StartChar: numbersign
Encoding: 35 35 151
Width: 862
VWidth: 0
Flags: W
HStem: 270 110<117 222 417 478 672 866> 510 110<168 346 540 601 796 917> 940 20G<562.588 718 818.588 973>
LayerCount: 2
Fore
SplineSet
573 960 m 1
 718 960 l 1
 540 620 l 1
 652 620 l 1
 829 960 l 1
 973 960 l 1
 796 620 l 1
 940 620 l 1
 917 510 l 1
 746 510 l 1
 672 380 l 1
 889 380 l 1
 866 270 l 1
 622 270 l 1
 408 -140 l 1
 264 -140 l 1
 478 270 l 1
 366 270 l 1
 153 -140 l 1
 9 -140 l 1
 222 270 l 1
 94 270 l 1
 117 380 l 1
 272 380 l 1
 346 510 l 1
 145 510 l 1
 168 620 l 1
 396 620 l 1
 573 960 l 1
490 510 m 1
 417 380 l 1
 528 380 l 1
 601 510 l 1
 490 510 l 1
EndSplineSet
EndChar

StartChar: asterisk
Encoding: 42 42 152
Width: 427
VWidth: 0
Flags: W
HStem: 855 20G<326.775 428>
LayerCount: 2
Fore
SplineSet
331 875 m 1
 428 875 l 1
 398 733 l 1
 533 777 l 1
 540 678 l 1
 407 634 l 1
 459 520 l 1
 369 459 l 1
 316 574 l 1
 213 459 l 1
 149 520 l 1
 250 634 l 1
 135 678 l 1
 185 777 l 1
 301 733 l 1
 331 875 l 1
EndSplineSet
EndChar

StartChar: s
Encoding: 115 115 153
Width: 555
VWidth: 0
Flags: W
HStem: -18 110<232.706 360.585> 533 105<308.951 432.991>
VStem: 64 153<105.651 199.298> 127 142<383.238 493.24> 399 153<132.158 251.839> 444 142<420 522.417>
LayerCount: 2
Fore
SplineSet
395 638 m 0xd8
 514 638 586 564 586 466 c 0
 586 451 584 436 581 420 c 1
 439 420 l 1
 442 436 444 451 444 464 c 0
 444 507 425 533 373 533 c 0
 312 533 281 483 273 445 c 0
 271 435 269 426 269 418 c 0xd4
 269 393 285 378 347 370 c 0
 429 360 552 325 552 215 c 0
 552 204 551 193 548 180 c 0
 519 43 392 -18 265 -18 c 0
 154 -18 64 39 64 149 c 0
 64 165 66 182 70 200 c 1
 221 200 l 1
 218 188 217 177 217 167 c 0xe8
 217 121 242 92 288 92 c 0
 344 92 385 124 397 180 c 0
 399 188 399 195 399 201 c 0
 399 245 366 265 310 275 c 0
 241 287 127 309 127 411 c 0
 127 421 128 433 131 445 c 0
 151 539 258 638 395 638 c 0xd8
EndSplineSet
EndChar

StartChar: f
Encoding: 102 102 154
Width: 394
VWidth: 0
Flags: W
HStem: 0 21G<108 255.231> 520 100<159 219 382 496> 842 130<477.13 574>
LayerCount: 2
Fore
SplineSet
601 972 m 1
 574 842 l 1
 487 842 420 795 398 692 c 2
 382 620 l 1
 517 620 l 1
 496 520 l 1
 361 520 l 1
 251 0 l 1
 108 0 l 1
 219 520 l 1
 138 520 l 1
 159 620 l 1
 240 620 l 1
 255 692 l 2
 293 870 455 972 601 972 c 1
EndSplineSet
EndChar

StartChar: t
Encoding: 116 116 155
Width: 340
VWidth: 0
Flags: W
HStem: 0 21G<104 241.269> 520 100<132 214 369 451> 840 20G<281.75 420>
VStem: 104 368
LayerCount: 2
Fore
SplineSet
420 860 m 1
 369 620 l 1
 472 620 l 1
 451 520 l 1
 348 520 l 1
 237 0 l 1
 104 0 l 1
 214 520 l 1
 111 520 l 1
 132 620 l 1
 235 620 l 1
 286 860 l 1
 420 860 l 1
EndSplineSet
EndChar

StartChar: k
Encoding: 107 107 156
Width: 520
VWidth: 0
Flags: W
HStem: 0 21G<46 192.267 372.63 530> 600 20G<465.231 644> 940 20G<245.75 392>
LayerCount: 2
Fore
SplineSet
250 960 m 1
 392 960 l 1
 264 360 l 1
 482 620 l 1
 644 620 l 1
 412 365 l 1
 530 0 l 1
 377 0 l 1
 318 270 l 1
 220 150 l 1
 188 0 l 1
 46 0 l 1
 250 960 l 1
EndSplineSet
EndChar

StartChar: hyphen
Encoding: 45 45 157
Width: 593
VWidth: 0
Flags: W
HStem: 270 110<117 596>
LayerCount: 2
Fore
SplineSet
117 380 m 1
 619 380 l 1
 596 270 l 1
 94 270 l 1
 117 380 l 1
EndSplineSet
EndChar

StartChar: bar
Encoding: 124 124 158
Width: 257
VWidth: 0
Flags: W
HStem: 940 20G<245.738 398>
LayerCount: 2
Fore
SplineSet
250 960 m 1
 398 960 l 1
 122 -340 l 1
 -27 -340 l 1
 250 960 l 1
EndSplineSet
EndChar

StartChar: slash
Encoding: 47 47 159
Width: 398
VWidth: 0
Flags: W
HStem: 940 20G<502.738 666>
LayerCount: 2
Fore
SplineSet
513 960 m 1
 666 960 l 1
 -1 -340 l 1
 -154 -340 l 1
 513 960 l 1
EndSplineSet
EndChar

StartChar: colon
Encoding: 58 58 160
Width: 295
VWidth: 0
Flags: W
HStem: 0 200<122.561 215.439> 410 200<209.561 302.439>
VStem: 73 192<49.8815 150.119> 160 192<459.881 560.119>
LayerCount: 2
Fore
SplineSet
262 100 m 0xe0
 250 44 200 0 148 0 c 0
 103 0 73 32 73 77 c 0
 73 84 74 92 76 100 c 0
 88 156 138 200 190 200 c 0
 235 200 265 168 265 123 c 0
 265 116 264 108 262 100 c 0xe0
349 510 m 0
 337 454 287 410 235 410 c 0
 190 410 160 442 160 487 c 0
 160 494 161 502 163 510 c 0
 175 566 225 610 277 610 c 0
 322 610 352 578 352 533 c 0xd0
 352 526 351 518 349 510 c 0
EndSplineSet
EndChar

StartChar: backslash
Encoding: 92 92 161
Width: 398
VWidth: 0
Flags: W
HStem: 940 20G<122 277.754>
VStem: 122 268
LayerCount: 2
Fore
SplineSet
276 960 m 1
 390 -340 l 1
 236 -340 l 1
 122 960 l 1
 276 960 l 1
EndSplineSet
EndChar

StartChar: seven
Encoding: 55 55 162
Width: 611
Flags: W
HStem: 0 21G<176 347.333> 740 120<219 556>
LayerCount: 2
Fore
SplineSet
176 0 m 1
 214 180 l 2
 278 480 556 740 556 740 c 1
 194 740 l 1
 219 860 l 1
 740 860 l 1
 714 740 l 1
 714 740 447 486 382 180 c 2
 343 0 l 1
 176 0 l 1
EndSplineSet
EndChar

StartChar: exclam
Encoding: 33 33 163
Width: 276
VWidth: 0
Flags: W
HStem: 0 200<104.055 197.439> 940 20G<245.754 417>
VStem: 55 192<49.8815 150.119>
LayerCount: 2
Fore
SplineSet
244 100 m 0
 232 44 181 0 129 0 c 0
 85 0 55 32 55 77 c 0
 55 84 56 92 58 100 c 0
 70 156 120 200 172 200 c 0
 217 200 247 168 247 123 c 0
 247 116 246 108 244 100 c 0
250 960 m 1
 417 960 l 1
 296 390 l 1
 229 270 l 1
 145 270 l 1
 129 390 l 1
 250 960 l 1
EndSplineSet
EndChar

StartChar: quotedbl
Encoding: 34 34 164
Width: 389
VWidth: 0
Flags: W
HStem: 680 280<222 274 445 498>
VStem: 181 395
LayerCount: 2
Fore
SplineSet
222 960 m 1
 352 960 l 1
 318 800 l 1
 274 680 l 1
 181 680 l 1
 188 800 l 1
 222 960 l 1
445 960 m 1
 576 960 l 1
 542 800 l 1
 498 680 l 1
 405 680 l 1
 411 800 l 1
 445 960 l 1
EndSplineSet
EndChar

StartChar: dollar
Encoding: 36 36 165
Width: 594
Flags: W
HStem: -10 114<242.128 244 328 386.279> 748 114<382.757 433>
VStem: 64 151<132.228 250> 176 150<534.004 689.184> 460 149<170.513 325.449> 524 157<600 733.563>
LayerCount: 2
Fore
SplineSet
456 220 m 0xe8
 459 232 460 244 460 254 c 0xe8
 460 317 417 352 367 370 c 0
 266 406 176 484 176 590 c 0
 176 604 177 618 180 632 c 0
 208 763 327 847 433 862 c 1
 471 1040 l 1
 555 1040 l 1
 517 862 l 1
 625 843 681 752 681 652 c 0
 681 635 679 617 676 600 c 1
 518 600 l 1
 522 621 524 641 524 658 c 0
 524 714 502 748 456 748 c 0
 396 748 345 706 329 632 c 0
 327 623 326 615 326 607 c 0xd4
 326 546 375 499 427 480 c 0
 526 444 609 368 609 264 c 0
 609 250 607 235 604 220 c 0
 573 80 438 3 328 -10 c 1
 291 -180 l 1
 208 -180 l 1
 244 -10 l 1
 131 4 64 83 64 190 c 0
 64 209 67 229 71 250 c 1
 220 250 l 1
 216 234 215 219 215 205 c 0
 215 135 260 104 310 104 c 0
 370 104 442 152 456 220 c 0xe8
EndSplineSet
EndChar

StartChar: percent
Encoding: 37 37 166
Width: 909
VWidth: 0
Flags: W
HStem: 0 105<637.307 754.547> 295 105<668.357 785.672> 460 105<288.328 405.643> 755 105<319.453 436.693>
VStem: 172 100<583.744 709.054> 453 101<610.946 736.256> 520 101<123.744 249.054> 802 100<150.946 276.256>
LayerCount: 2
Fore
SplineSet
405 860 m 0xfd
 493 860 554 793 554 704 c 0
 554 690 552 675 549 660 c 0
 526 550 422 460 320 460 c 0
 232 460 172 527 172 616 c 0
 172 630 174 645 177 660 c 0
 200 770 303 860 405 860 c 0xfd
786 860 m 1
 926 860 l 1
 288 0 l 1
 148 0 l 1
 786 860 l 1
383 755 m 0
 335 755 285 712 274 660 c 0
 272 653 272 646 272 639 c 0
 272 597 301 565 342 565 c 0
 390 565 440 608 451 660 c 0
 453 667 453 674 453 681 c 0
 453 723 424 755 383 755 c 0
754 400 m 0
 842 400 902 333 902 244 c 0
 902 230 900 215 897 200 c 0
 874 90 771 0 669 0 c 0
 581 0 520 67 520 156 c 0xfb
 520 170 522 185 525 200 c 0
 548 310 652 400 754 400 c 0
732 295 m 0
 684 295 634 252 623 200 c 0
 621 193 621 186 621 179 c 0
 621 137 650 105 691 105 c 0
 739 105 789 148 800 200 c 0
 802 207 802 214 802 221 c 0
 802 263 773 295 732 295 c 0
EndSplineSet
EndChar

StartChar: ampersand
Encoding: 38 38 167
Width: 746
VWidth: 0
Flags: W
HStem: -18 120<263.112 422.163> 0 21G<530.259 710> 773 105<426.775 531.722>
VStem: 77 153<134.814 279.063> 244 140<561.372 724.825> 538 140<647.321 765.063> 648 149<336.906 410>
LayerCount: 2
Fore
SplineSet
509 878 m 0xba
 601 878 678 817 678 730 c 0xbc
 678 719 677 708 675 697 c 0
 650 581 547 522 457 465 c 1
 569 251 l 1
 613 308 635 348 648 410 c 1
 797 410 l 1
 776 313 700 211 631 142 c 1
 710 0 l 1
 541 0 l 1x7a
 512 54 l 1
 439 6 381 -18 309 -18 c 0
 144 -18 77 53 77 159 c 0
 77 179 79 201 84 224 c 0
 107 334 219 430 300 480 c 1
 271 529 244 578 244 633 c 0
 244 646 245 659 248 672 c 0
 276 806 406 878 509 878 c 0xba
489 773 m 0
 443 773 402 741 388 673 c 0
 385 660 384 648 384 637 c 0
 384 609 393 587 407 560 c 1
 476 603 523 642 535 697 c 0
 537 706 538 714 538 721 c 0
 538 755 519 773 489 773 c 0
340 376 m 1
 281 333 248 294 233 224 c 0
 231 216 230 207 230 199 c 0
 230 146 269 102 334 102 c 0
 405 102 461 155 461 155 c 1
 340 376 l 1
EndSplineSet
EndChar

StartChar: quotesingle
Encoding: 39 39 168
Width: 221
VWidth: 0
Flags: W
HStem: 680 280<240 293>
VStem: 200 171
LayerCount: 2
Fore
SplineSet
240 960 m 1
 371 960 l 1
 337 800 l 1
 293 680 l 1
 200 680 l 1
 206 800 l 1
 240 960 l 1
EndSplineSet
EndChar

StartChar: parenleft
Encoding: 40 40 169
Width: 454
VWidth: 0
Flags: W
HStem: -340 70<326.433 346.8>
VStem: 68 135<-130.104 202.428>
LayerCount: 2
Fore
SplineSet
641 1050 m 1
 626 980 l 1
 371 859 331 684 279 440 c 2
 243 270 l 2
 222 169 203 80 203 2 c 0
 203 -109 240 -199 360 -270 c 1
 345 -340 l 1
 143 -310 68 -157 68 43 c 0
 68 114 77 191 94 270 c 2
 130 440 l 2
 194 743 351 1010 641 1050 c 1
EndSplineSet
EndChar

StartChar: parenright
Encoding: 41 41 170
Width: 454
VWidth: 0
Flags: W
HStem: 980 70<258.2 278.567>
VStem: 402 135<507.572 840.104>
LayerCount: 2
Fore
SplineSet
260 1050 m 1
 462 1020 537 867 537 667 c 0
 537 596 528 519 511 440 c 2
 475 270 l 2
 411 -33 254 -300 -36 -340 c 1
 -21 -270 l 1
 234 -149 274 26 326 270 c 2
 362 440 l 2
 383 541 402 630 402 708 c 0
 402 819 365 909 245 980 c 1
 260 1050 l 1
EndSplineSet
EndChar

StartChar: plus
Encoding: 43 43 171
Width: 593
VWidth: 0
Flags: W
HStem: 270 110<117 270 443 596>
LayerCount: 2
Fore
SplineSet
335 575 m 1
 484 575 l 1
 443 380 l 1
 619 380 l 1
 596 270 l 1
 419 270 l 1
 378 75 l 1
 229 75 l 1
 270 270 l 1
 94 270 l 1
 117 380 l 1
 294 380 l 1
 335 575 l 1
EndSplineSet
EndChar

StartChar: comma
Encoding: 44 44 172
Width: 277
VWidth: 0
Flags: W
HStem: -150 350
VStem: 74 191<32.8283 150.119>
LayerCount: 2
Fore
SplineSet
191 200 m 0
 235 200 265 168 265 123 c 0
 265 116 264 108 262 100 c 0
 239 -8 154 -96 79 -150 c 1
 -5 -150 l 1
 32 -121 97 -51 125 3 c 1
 94 13 74 41 74 78 c 0
 74 85 74 92 76 100 c 0
 88 156 139 200 191 200 c 0
EndSplineSet
EndChar

StartChar: zero
Encoding: 48 48 173
Width: 593
Flags: W
HStem: -18 120<248.285 380.316> 758 120<377.684 509.715>
VStem: 76 156<116.705 341.438> 526 156<518.562 743.295>
LayerCount: 2
Fore
SplineSet
474 878 m 0
 599 878 682 786 682 662 c 0
 682 641 680 620 675 598 c 2
 604 262 l 2
 571 107 430 -18 284 -18 c 0
 159 -18 76 74 76 198 c 0
 76 219 78 240 83 262 c 2
 154 598 l 2
 187 753 328 878 474 878 c 0
449 758 m 0
 359 758 329 677 308 578 c 2
 245 282 l 2
 238 247 232 215 232 187 c 0
 232 136 251 102 309 102 c 0
 399 102 429 183 450 282 c 2
 513 578 l 2
 520 613 526 645 526 673 c 0
 526 724 507 758 449 758 c 0
EndSplineSet
EndChar

StartChar: one
Encoding: 49 49 174
Width: 590
Flags: W
HStem: 0 21G<310 476.256> 570 110<236 340.718> 840 20G<468 655>
LayerCount: 2
Fore
SplineSet
478 860 m 1
 655 860 l 1
 472 0 l 1
 310 0 l 1
 450 663 l 1
 380 582 312 570 212 570 c 1
 236 680 l 1
 344 680 458 766 478 860 c 1
EndSplineSet
EndChar

StartChar: two
Encoding: 50 50 175
Width: 593
Flags: W
HStem: 0 120<267 557> 758 120<385.167 504.1>
VStem: 154 159<598 672.002> 522 158<562.393 741.255>
LayerCount: 2
Fore
SplineSet
474 878 m 0
 599 878 680 794 680 672 c 0
 680 652 678 630 673 608 c 0
 649 496 553 398 505 352 c 1
 267 120 l 1
 583 120 l 1
 557 0 l 1
 37 0 l 1
 62 120 l 1
 319 364 l 1
 370 413 497 523 515 608 c 0
 520 631 522 652 522 670 c 0
 522 728 497 758 449 758 c 0
 386 758 334 697 313 598 c 1
 154 598 l 1
 187 753 328 878 474 878 c 0
EndSplineSet
EndChar

StartChar: three
Encoding: 51 51 176
Width: 594
Flags: W
HStem: -18 110<241.881 383.104> 375 110<270 428.582> 628 21G<161 328.5> 768 110<382.129 509.961>
VStem: 62 159<112.41 232> 161 158<628 697.759> 454 157<173.693 349.635> 530 158<571.212 746.464>
LayerCount: 2
Fore
SplineSet
475 878 m 0xf5
 596 878 688 797 688 680 c 0xf5
 688 663 686 646 682 628 c 0
 660 526 576 454 514 430 c 1
 558 408 611 354 611 273 c 0
 611 260 610 246 607 232 c 0
 576 88 438 -18 284 -18 c 0
 150 -18 62 62 62 178 c 0
 62 195 64 213 68 232 c 1
 226 232 l 1
 222 215 221 199 221 184 c 0
 221 124 252 92 307 92 c 0
 375 92 430 141 449 232 c 0
 452 247 454 262 454 276 c 0xfa
 454 333 425 375 368 375 c 2
 247 375 l 1
 270 485 l 1
 391 485 l 2
 464 485 503 530 524 628 c 0
 528 647 530 663 530 678 c 0
 530 737 501 768 451 768 c 0
 388 768 338 719 319 628 c 1
 161 628 l 1
 192 772 337 878 475 878 c 0xf5
EndSplineSet
EndChar

StartChar: four
Encoding: 52 52 177
Width: 594
Flags: W
HStem: 0 21G<335 487.316> 190 110<208 375 547 626> 840 20G<493.2 666>
LayerCount: 2
Fore
SplineSet
547 300 m 1
 649 300 l 1
 626 190 l 1
 524 190 l 1
 483 0 l 1
 335 0 l 1
 375 190 l 1
 49 190 l 1
 64 260 l 1
 508 860 l 1
 666 860 l 1
 547 300 l 1
208 300 m 1
 398 300 l 1
 479 680 l 1
 208 300 l 1
EndSplineSet
EndChar

StartChar: five
Encoding: 53 53 178
Width: 593
Flags: W
HStem: -18 120<249.539 377.477> 422 120<316.561 434.966> 750 110<359 671>
VStem: 64 161<126.285 230> 454 158<205.467 404.094>
LayerCount: 2
Fore
SplineSet
275 860 m 1
 694 860 l 1
 671 750 l 1
 359 750 l 1
 266 473 l 1
 291 507 345 542 422 542 c 0
 544 542 612 455 612 336 c 0
 612 312 609 288 604 262 c 0
 571 107 430 -18 284 -18 c 0
 136 -18 64 73 64 188 c 0
 64 202 65 216 67 230 c 1
 225 230 l 1
 225 225 225 220 225 216 c 0
 225 132 259 102 310 102 c 0
 377 102 425 163 446 262 c 0
 451 287 454 310 454 330 c 0
 454 388 430 422 378 422 c 0
 322 422 296 393 269 350 c 1
 113 380 l 1
 275 860 l 1
EndSplineSet
EndChar

StartChar: six
Encoding: 54 54 179
Width: 593
Flags: W
HStem: -18 120<249.985 378.454> 422 120<332.958 435.091> 758 120<380.144 508.015>
VStem: 76 157<121.847 298.185> 454 158<205.467 404.094> 525 157<598 740.175>
LayerCount: 2
Fore
SplineSet
284 -18 m 0xf8
 159 -18 76 74 76 198 c 0
 76 219 78 240 83 262 c 2
 154 598 l 2
 187 753 328 878 474 878 c 0
 599 878 682 786 682 662 c 0
 682 641 680 620 675 598 c 1
 517 598 l 1
 522 624 525 647 525 667 c 0xf4
 525 725 502 758 449 758 c 0
 378 758 334 697 313 598 c 2
 286 475 l 1
 323 515 359 542 422 542 c 0
 544 542 612 455 612 336 c 0
 612 312 609 288 604 262 c 0
 571 107 430 -18 284 -18 c 0xf8
309 102 m 0
 382 102 425 163 446 262 c 0
 451 287 454 310 454 330 c 0xf8
 454 388 431 422 377 422 c 0
 304 422 262 361 241 262 c 0
 236 237 233 214 233 194 c 0
 233 136 256 102 309 102 c 0
EndSplineSet
EndChar

StartChar: eight
Encoding: 56 56 180
Width: 594
Flags: W
HStem: -18 115<236.7 394.436> 387 106<330.03 435.183> 768 110<378.285 510.04>
VStem: 52 160<121.601 288.959> 158 151<512.397 688.199> 463 159<173.693 357.9> 534 154<577.152 743.163>
LayerCount: 2
Fore
SplineSet
475 878 m 0xe8
 596 878 688 798 688 682 c 0xea
 688 665 686 648 682 630 c 0
 664 547 584 470 522 445 c 1
 565 424 622 380 622 288 c 0
 622 271 620 252 616 232 c 0
 585 88 449 -18 284 -18 c 0
 140 -18 52 62 52 178 c 0xf4
 52 195 54 213 58 232 c 0
 83 351 181 420 243 445 c 1
 199 466 158 526 158 594 c 0
 158 606 159 618 162 630 c 0
 193 774 337 878 475 878 c 0xe8
451 768 m 0
 393 768 335 725 315 630 c 0
 311 613 309 597 309 582 c 0
 309 526 337 493 393 493 c 0
 462 493 510 540 529 630 c 0
 532 646 534 660 534 673 c 0
 534 735 499 768 451 768 c 0
370 387 m 0
 296 387 236 321 217 232 c 0
 214 216 212 202 212 189 c 0xf4
 212 127 248 97 309 97 c 0
 384 97 439 141 458 232 c 0
 462 249 463 265 463 280 c 0xec
 463 345 430 387 370 387 c 0
EndSplineSet
EndChar

StartChar: nine
Encoding: 57 57 181
Width: 593
Flags: W
HStem: -18 120<249.985 378.014> 318 120<323.851 425.223> 758 120<379.705 508.015>
VStem: 76 157<119.825 262> 146 159<456.412 654.533> 525 157<561.815 738.153>
LayerCount: 2
Fore
SplineSet
474 878 m 0xec
 599 878 682 786 682 662 c 0
 682 641 680 620 675 598 c 2
 604 262 l 2
 571 107 430 -18 284 -18 c 0
 159 -18 76 74 76 198 c 0
 76 219 78 240 83 262 c 1
 241 262 l 1
 236 236 233 213 233 193 c 0xf4
 233 135 256 102 309 102 c 0
 380 102 425 163 446 262 c 2
 472 385 l 1
 435 345 400 318 337 318 c 0
 215 318 146 405 146 525 c 0
 146 548 149 573 154 598 c 0
 187 753 328 878 474 878 c 0xec
449 758 m 0
 376 758 334 697 313 598 c 0
 308 572 305 549 305 529 c 0xec
 305 471 328 438 381 438 c 0
 454 438 496 499 517 598 c 0
 522 623 525 646 525 666 c 0
 525 724 502 758 449 758 c 0
EndSplineSet
EndChar

StartChar: semicolon
Encoding: 59 59 182
Width: 295
VWidth: 0
Flags: W
HStem: 410 200<219.055 312.439>
VStem: 84 191<32.6784 150.466> 170 192<459.881 560.119>
LayerCount: 2
Fore
SplineSet
200 200 m 0xc0
 245 200 275 168 275 123 c 0
 275 116 274 108 272 100 c 0
 249 -8 163 -96 88 -150 c 1
 5 -150 l 1
 42 -121 106 -51 134 3 c 1
 103 13 84 41 84 77 c 0
 84 84 84 92 86 100 c 0
 98 156 148 200 200 200 c 0xc0
359 510 m 0
 347 454 296 410 244 410 c 0
 200 410 170 442 170 487 c 0
 170 494 171 502 173 510 c 0
 185 566 235 610 287 610 c 0
 332 610 362 578 362 533 c 0xa0
 362 526 361 518 359 510 c 0
EndSplineSet
EndChar

StartChar: less
Encoding: 60 60 183
Width: 519
VWidth: 0
Flags: W
LayerCount: 2
Fore
SplineSet
79 285 m 1
 96 365 l 1
 613 610 l 1
 583 470 l 1
 264 325 l 1
 521 180 l 1
 492 40 l 1
 79 285 l 1
EndSplineSet
EndChar

StartChar: equal
Encoding: 61 61 184
Width: 593
VWidth: 0
Flags: W
HStem: 150 110<92 570> 390 110<143 621>
LayerCount: 2
Fore
SplineSet
92 260 m 1
 594 260 l 1
 570 150 l 1
 68 150 l 1
 92 260 l 1
143 500 m 1
 645 500 l 1
 621 390 l 1
 119 390 l 1
 143 500 l 1
EndSplineSet
EndChar

StartChar: greater
Encoding: 62 62 185
Width: 519
VWidth: 0
Flags: W
LayerCount: 2
Fore
SplineSet
544 285 m 1
 27 40 l 1
 56 180 l 1
 376 325 l 1
 118 470 l 1
 148 610 l 1
 561 365 l 1
 544 285 l 1
EndSplineSet
EndChar

StartChar: question
Encoding: 63 63 186
Width: 584
VWidth: 0
Flags: W
HStem: 0 200<271.561 364.945> 768 110<378.466 508.166>
VStem: 141 159<580 658.286> 222 192<49.8815 150.119> 529 158<575.013 746.576>
LayerCount: 2
Fore
SplineSet
411 100 m 0xd8
 399 44 349 0 297 0 c 0
 252 0 222 32 222 77 c 0
 222 84 223 92 225 100 c 0
 237 156 288 200 340 200 c 0
 384 200 414 168 414 123 c 0
 414 116 413 108 411 100 c 0xd8
475 878 m 0
 619 878 687 778 687 677 c 0
 687 661 685 645 682 630 c 0
 642 442 434 427 401 270 c 1
 299 270 l 1
 348 500 492 478 524 630 c 0
 527 645 529 660 529 674 c 0
 529 724 508 768 451 768 c 0
 378 768 327 709 300 580 c 1
 141 580 l 1xe8
 178 756 309 878 475 878 c 0
EndSplineSet
EndChar

StartChar: at
Encoding: 64 64 187
Width: 1151
VWidth: 0
Flags: W
HStem: -340 130<393.727 727> -18 100<871.08 955.48> -18 90<498.283 620.803> 548 90<587.418 728.95> 600 20G<833.778 968> 830 130<594.828 882.871>
VStem: 58 142<-18.859 266.25> 307 166<95.141 340> 1065 142<351.562 648.514>
LayerCount: 2
Fore
SplineSet
771 960 m 0xcf80
 1052 960 1207 781 1207 540 c 0
 1207 498 1202 455 1193 410 c 2
 1157 240 l 2
 1129 108 1029 -18 893 -18 c 0xcf80
 798 -18 743 47 739 110 c 1
 717 73 631 -18 512 -18 c 0
 384 -18 307 65 307 189 c 0
 307 212 310 236 315 262 c 2
 336 358 l 2
 371 521 499 638 651 638 c 0xb780
 747 638 813 577 819 530 c 1
 838 620 l 1
 968 620 l 1
 875 180 l 2
 871 160 868 143 868 129 c 0
 868 96 882 82 914 82 c 0
 959 82 1003 168 1018 240 c 2
 1054 410 l 2
 1062 446 1065 480 1065 512 c 0
 1065 702 940 830 743 830 c 0
 512 830 306 654 254 410 c 2
 211 210 l 2
 204 176 200 144 200 113 c 0
 200 -79 333 -210 522 -210 c 2
 755 -210 l 1
 727 -340 l 1
 494 -340 l 2
 210 -340 58 -162 58 78 c 0
 58 120 62 165 72 210 c 2
 114 410 l 2
 178 713 441 960 771 960 c 0xcf80
665 548 m 0xb780
 575 548 527 471 503 358 c 2
 483 262 l 2
 476 231 473 202 473 177 c 0
 473 112 498 72 563 72 c 0
 653 72 703 159 725 262 c 2
 745 358 l 2
 751 386 755 413 755 438 c 0
 755 502 730 548 665 548 c 0xb780
EndSplineSet
EndChar

StartChar: bracketleft
Encoding: 91 91 188
Width: 407
VWidth: 0
Flags: W
HStem: -340 100<134 280> 950 100<387 555>
LayerCount: 2
Fore
SplineSet
260 1050 m 1
 576 1050 l 1
 555 950 l 1
 387 950 l 1
 134 -240 l 1
 302 -240 l 1
 280 -340 l 1
 -36 -340 l 1
 260 1050 l 1
EndSplineSet
EndChar

StartChar: bracketright
Encoding: 93 93 189
Width: 407
VWidth: 0
Flags: W
HStem: -340 100<-15 153> 950 100<260 406>
LayerCount: 2
Fore
SplineSet
576 1050 m 1
 280 -340 l 1
 -36 -340 l 1
 -15 -240 l 1
 153 -240 l 1
 406 950 l 1
 238 950 l 1
 260 1050 l 1
 576 1050 l 1
EndSplineSet
EndChar

StartChar: asciicircum
Encoding: 94 94 190
Width: 501
VWidth: 0
Flags: W
HStem: 840 20G<356.652 483.87>
LayerCount: 2
Fore
SplineSet
369 860 m 1
 480 860 l 1
 569 400 l 1
 438 400 l 1
 388 690 l 1
 215 400 l 1
 85 400 l 1
 369 860 l 1
EndSplineSet
EndChar

StartChar: underscore
Encoding: 95 95 191
Width: 799
VWidth: 0
Flags: W
HStem: -110 110<9 758>
LayerCount: 2
Fore
SplineSet
9 0 m 1
 781 0 l 1
 758 -110 l 1
 -14 -110 l 1
 9 0 l 1
EndSplineSet
EndChar

StartChar: grave
Encoding: 96 96 192
Width: 223
VWidth: 0
Flags: W
HStem: 780 180<278 316>
VStem: 186 203
LayerCount: 2
Fore
SplineSet
186 960 m 1
 316 960 l 1
 389 780 l 1
 278 780 l 1
 186 960 l 1
EndSplineSet
EndChar

StartChar: braceleft
Encoding: 123 123 193
Width: 464
VWidth: 0
Flags: W
HStem: -340 100<227.719 356> 950 100<472.269 630>
VStem: 68 154<-235.242 -151.818> 158 151<109.531 293.649>
LayerCount: 2
Fore
SplineSet
502 1050 m 2xd0
 651 1050 l 1
 630 950 l 1
 518 950 l 2
 485 950 454 912 447 880 c 2
 367 500 l 2
 342 383 224 355 224 355 c 1
 224 355 309 333 309 244 c 0xd0
 309 234 308 222 305 210 c 2
 224 -170 l 2
 223 -175 222 -180 222 -186 c 0
 222 -213 237 -240 265 -240 c 2
 377 -240 l 1
 356 -340 l 1
 207 -340 l 2
 127 -340 68 -290 68 -219 c 0xe0
 68 -210 69 -200 71 -190 c 2
 156 210 l 2
 157 216 158 223 158 229 c 0
 158 286 102 327 73 345 c 1
 78 365 l 1
 119 385 204 433 218 500 c 2
 303 900 l 2
 321 986 411 1050 502 1050 c 2xd0
EndSplineSet
EndChar

StartChar: braceright
Encoding: 125 125 194
Width: 464
VWidth: 0
Flags: W
HStem: -340 100<-33 124.731> 950 100<241 369.281>
VStem: 288 151<416.351 600.469> 375 154<861.818 945.242>
LayerCount: 2
Fore
SplineSet
390 1050 m 2xd0
 470 1050 529 1000 529 929 c 0xd0
 529 920 528 910 526 900 c 2
 441 500 l 2
 440 494 439 487 439 481 c 0
 439 424 495 383 524 365 c 1
 519 345 l 1
 478 325 393 277 379 210 c 2
 294 -190 l 2
 276 -276 186 -340 95 -340 c 2
 -54 -340 l 1
 -33 -240 l 1
 79 -240 l 2
 112 -240 142 -202 149 -170 c 2
 230 210 l 2
 255 327 373 355 373 355 c 1
 373 355 288 377 288 466 c 0xe0
 288 476 289 488 292 500 c 2
 373 880 l 2
 374 885 375 890 375 896 c 0
 375 923 360 950 332 950 c 2
 220 950 l 1
 241 1050 l 1
 390 1050 l 2xd0
EndSplineSet
EndChar

StartChar: asciitilde
Encoding: 126 126 195
Width: 592
VWidth: 0
Flags: W
HStem: 240 110<405.064 526.19> 320 110<186.579 323.385>
LayerCount: 2
Fore
SplineSet
131 360 m 1x80
 179 407 223 430 279 430 c 0x40
 378 430 401 350 471 350 c 0x80
 522 350 567 389 611 430 c 1x40
 585 308 l 1
 533 264 487 240 438 240 c 0x80
 349 240 336 320 246 320 c 0x40
 190 320 151 278 106 240 c 0
 131 360 l 1x80
EndSplineSet
EndChar

StartChar: quotedblleft
Encoding: 8220 8220 196
Width: 464
VWidth: 0
Flags: W
HStem: 650 350
VStem: 166 191<699.881 817.172> 389 191<699.881 817.322>
LayerCount: 2
Fore
SplineSet
240 650 m 0
 196 650 166 682 166 727 c 0
 166 734 167 742 169 750 c 0
 192 858 277 946 352 1000 c 1
 436 1000 l 1
 399 971 334 901 306 847 c 1
 337 837 357 809 357 772 c 0
 357 765 357 758 355 750 c 0
 343 694 292 650 240 650 c 0
463 650 m 0
 419 650 389 682 389 727 c 0
 389 734 390 742 392 750 c 0
 415 858 500 946 575 1000 c 1
 659 1000 l 1
 622 971 558 901 530 847 c 1
 561 837 580 809 580 773 c 0
 580 766 580 758 578 750 c 0
 566 694 515 650 463 650 c 0
EndSplineSet
EndChar

StartChar: quotedblright
Encoding: 8221 8221 197
Width: 464
VWidth: 0
Flags: W
HStem: 650 350
VStem: 226 191<832.828 950.119> 450 191<832.678 950.466>
LayerCount: 2
Fore
SplineSet
343 1000 m 0
 387 1000 417 968 417 923 c 0
 417 916 416 908 414 900 c 0
 391 792 306 704 231 650 c 1
 147 650 l 1
 184 679 249 749 277 803 c 1
 246 813 226 841 226 878 c 0
 226 885 226 892 228 900 c 0
 240 956 291 1000 343 1000 c 0
566 1000 m 0
 611 1000 641 968 641 923 c 0
 641 916 640 908 638 900 c 0
 615 792 529 704 454 650 c 1
 370 650 l 1
 407 679 472 749 500 803 c 1
 469 813 450 841 450 877 c 0
 450 884 450 892 452 900 c 0
 464 956 514 1000 566 1000 c 0
EndSplineSet
EndChar

StartChar: quoteleft
Encoding: 8216 8216 198
Width: 277
VWidth: 0
Flags: W
HStem: 650 350
VStem: 184 191<699.881 817.322>
LayerCount: 2
Fore
SplineSet
258 650 m 0
 214 650 184 682 184 727 c 0
 184 734 185 742 187 750 c 0
 210 858 295 946 370 1000 c 1
 454 1000 l 1
 417 971 353 901 325 847 c 1
 356 837 375 809 375 773 c 0
 375 766 375 758 373 750 c 0
 361 694 310 650 258 650 c 0
EndSplineSet
EndChar

StartChar: quoteright
Encoding: 8217 8217 199
Width: 277
VWidth: 0
Flags: W
HStem: 650 350
VStem: 244 191<832.828 950.119>
LayerCount: 2
Fore
SplineSet
361 1000 m 0
 405 1000 435 968 435 923 c 0
 435 916 434 908 432 900 c 0
 409 792 324 704 249 650 c 1
 165 650 l 1
 202 679 267 749 295 803 c 1
 264 813 244 841 244 878 c 0
 244 885 244 892 246 900 c 0
 258 956 309 1000 361 1000 c 0
EndSplineSet
EndChar

StartChar: afii57929
Encoding: 700 700 200
Width: 277
VWidth: 0
Flags: W
HStem: 650 350
VStem: 244 191<832.828 950.119>
LayerCount: 2
Fore
SplineSet
361 1000 m 0
 405 1000 435 968 435 923 c 0
 435 916 434 908 432 900 c 0
 409 792 324 704 249 650 c 1
 165 650 l 1
 202 679 267 749 295 803 c 1
 264 813 244 841 244 878 c 0
 244 885 244 892 246 900 c 0
 258 956 309 1000 361 1000 c 0
EndSplineSet
EndChar

StartChar: Euro
Encoding: 8364 8364 201
Width: 593
Flags: W
HStem: -18 110<460.262 535> 310 80<119 189 366 567> 470 80<153 220 404 601> 768 110<590.828 702>
VStem: 188 165<196.085 310>
LayerCount: 2
Fore
SplineSet
725 878 m 1
 702 768 l 1
 583 768 457 679 404 550 c 1
 618 550 l 1
 601 470 l 1
 383 470 l 1
 366 390 l 1
 584 390 l 1
 567 310 l 1
 353 310 l 1
 353 309 353 307 353 306 c 0
 353 179 440 92 558 92 c 1
 535 -18 l 1
 355 -18 188 104 188 283 c 0
 188 292 188 301 189 310 c 1
 102 310 l 1
 119 390 l 1
 203 390 l 1
 220 470 l 1
 136 470 l 1
 153 550 l 1
 240 550 l 1
 304 743 536 878 725 878 c 1
EndSplineSet
EndChar

StartChar: yen
Encoding: 165 165 202
Width: 595
Flags: W
HStem: 0 21G<214 385.333> 180 80<92 252 437 596> 360 80<131 290 480 635> 840 20G<183 353.875 598.562 778>
LayerCount: 2
Fore
SplineSet
183 860 m 1
 350 860 l 1
 412 540 l 1
 611 860 l 1
 778 860 l 1
 480 440 l 1
 652 440 l 1
 635 360 l 1
 458 360 l 1
 437 260 l 1
 613 260 l 1
 596 180 l 1
 420 180 l 1
 381 0 l 1
 214 0 l 1
 252 180 l 1
 75 180 l 1
 92 260 l 1
 269 260 l 1
 290 360 l 1
 114 360 l 1
 131 440 l 1
 302 440 l 1
 183 860 l 1
EndSplineSet
EndChar

StartChar: sterling
Encoding: 163 163 203
Width: 594
Flags: W
HStem: 0 110<232 576> 370 80<114 185 356 553> 768 110<438.876 529.61>
VStem: 536 155<650 762.277>
LayerCount: 2
Fore
SplineSet
343 370 m 1
 322 269 290 179 232 110 c 1
 600 110 l 1
 576 0 l 1
 18 0 l 1
 42 110 l 1
 143 174 164 283 185 370 c 1
 97 370 l 1
 114 450 l 1
 198 450 l 1
 234 620 l 1
 269 779 376 878 512 878 c 0
 628 878 691 797 691 700 c 0
 691 684 690 667 686 650 c 1
 528 650 l 1
 533 672 536 693 536 711 c 0
 536 745 524 768 488 768 c 0
 432 768 408 691 392 620 c 1
 356 450 l 1
 570 450 l 1
 553 370 l 1
 343 370 l 1
EndSplineSet
EndChar

StartChar: cent
Encoding: 162 162 204
Width: 593
Flags: W
HStem: -15 107<340 385.986>
VStem: 93 147<109.279 340> 480 153<420 514.234>
LayerCount: 2
Fore
SplineSet
429 800 m 1
 513 800 l 1
 478 634 l 1
 574 616 633 538 633 442 c 0
 633 435 633 428 632 420 c 1
 479 420 l 1
 480 428 480 436 480 443 c 0
 480 498 457 528 413 528 c 0
 332 528 292 461 270 358 c 2
 250 262 l 2
 244 233 240 206 240 183 c 0
 240 126 262 92 321 92 c 0
 377 92 404 126 432 200 c 1
 590 200 l 1
 550 85 451 3 340 -15 c 1
 305 -180 l 1
 221 -180 l 1
 256 -15 l 1
 153 2 93 79 93 190 c 0
 93 212 96 237 101 262 c 2
 122 358 l 2
 153 506 261 615 394 635 c 1
 429 800 l 1
EndSplineSet
EndChar

StartChar: copyright
Encoding: 169 169 205
Width: 909
Flags: W
HStem: -18 90<350.328 587.058> 180 85<456.32 570.027> 600 85<516.38 627.716> 788 90<486.942 723.672>
VStem: 117 95<214.325 483.629> 328 115<276.658 485.91> 640 116<515 590.344> 862 95<376.371 645.675>
LayerCount: 2
Fore
SplineSet
632 878 m 0
 841 878 957 726 957 536 c 0
 957 502 954 466 946 430 c 0
 896 193 689 -18 442 -18 c 0
 233 -18 117 134 117 324 c 0
 117 358 120 394 128 430 c 0
 178 667 385 878 632 878 c 0
613 788 m 0
 426 788 261 618 221 430 c 0
 215 401 212 373 212 345 c 0
 212 194 303 72 461 72 c 0
 648 72 813 242 853 430 c 0
 859 459 862 487 862 515 c 0
 862 666 771 788 613 788 c 0
601 685 m 0
 693 685 756 616 756 530 c 0
 756 525 755 520 755 515 c 1
 639 515 l 1
 640 520 640 526 640 531 c 0
 640 574 617 600 582 600 c 0
 520 600 482 549 465 470 c 2
 449 395 l 2
 445 376 443 358 443 342 c 0
 443 294 463 265 511 265 c 0
 554 265 583 293 604 350 c 1
 725 350 l 1
 690 251 591 180 493 180 c 0
 394 180 328 246 328 343 c 0
 328 360 330 377 334 395 c 2
 350 470 l 2
 377 595 485 685 601 685 c 0
EndSplineSet
EndChar

StartChar: registered
Encoding: 174 174 206
Width: 909
Flags: W
HStem: -18 90<350.328 587.058> 400 70<480 579.542> 615 70<511 632.297> 788 90<486.942 723.672>
VStem: 117 95<214.325 483.629> 573 97<190.004 346.366> 587 96<241.706 390.615> 638 95<499.156 606.307> 862 95<376.371 645.675>
LayerCount: 2
Fore
SplineSet
632 878 m 0xf880
 841 878 957 726 957 536 c 0
 957 502 954 466 946 430 c 0
 896 193 689 -18 442 -18 c 0
 233 -18 117 134 117 324 c 0
 117 358 120 394 128 430 c 0
 178 667 385 878 632 878 c 0xf880
613 788 m 0
 426 788 261 618 221 430 c 0
 215 401 212 373 212 345 c 0
 212 194 303 72 461 72 c 0
 648 72 813 242 853 430 c 0
 859 459 862 487 862 515 c 0
 862 666 771 788 613 788 c 0
433 685 m 1
 577 685 l 2
 668 685 733 656 733 580 c 0xf980
 733 569 732 558 729 545 c 0
 719 496 680 452 635 430 c 1
 664 421 683 399 683 352 c 0xfa80
 683 337 681 320 677 300 c 0
 672 275 670 256 670 241 c 0
 670 198 686 190 686 190 c 1
 585 190 l 1
 585 190 573 193 573 230 c 0xfc80
 573 246 575 269 582 300 c 0
 586 316 587 330 587 342 c 0xfa80
 587 384 565 400 512 400 c 2
 466 400 l 1
 421 190 l 1
 328 190 l 1
 433 685 l 1
511 615 m 1
 480 470 l 1
 541 470 l 2
 587 470 626 498 636 545 c 0
 638 552 638 559 638 565 c 0
 638 599 615 615 558 615 c 2
 511 615 l 1
EndSplineSet
EndChar

StartChar: guillemotleft
Encoding: 171 171 207
Width: 547
Flags: W
LayerCount: 2
Fore
SplineSet
216 320 m 1
 316 90 l 1
 214 90 l 1
 94 315 l 1
 96 325 l 1
 312 550 l 1
 414 550 l 1
 216 320 l 1
439 320 m 1
 539 90 l 1
 437 90 l 1
 317 315 l 1
 320 325 l 1
 535 550 l 1
 637 550 l 1
 439 320 l 1
EndSplineSet
EndChar

StartChar: guillemotright
Encoding: 187 187 208
Width: 547
Flags: W
LayerCount: 2
Fore
SplineSet
244 320 m 1
 144 550 l 1
 247 550 l 1
 366 325 l 1
 364 315 l 1
 149 90 l 1
 46 90 l 1
 244 320 l 1
467 320 m 1
 367 550 l 1
 470 550 l 1
 589 325 l 1
 587 315 l 1
 372 90 l 1
 270 90 l 1
 467 320 l 1
EndSplineSet
EndChar

StartChar: acute
Encoding: 180 180 209
Width: 223
VWidth: 0
Flags: W
HStem: 780 180
VStem: 148 280
LayerCount: 2
Fore
SplineSet
428 960 m 1
 259 780 l 1
 148 780 l 1
 297 960 l 1
 428 960 l 1
EndSplineSet
EndChar

StartChar: exclamdown
Encoding: 161 161 210
Width: 276
VWidth: 0
Flags: W
HStem: 418 200<193.055 286.439>
VStem: 144 192<467.881 568.119>
LayerCount: 2
Fore
SplineSet
-27 -342 m 1
 94 228 l 1
 162 348 l 1
 245 348 l 1
 262 228 l 1
 140 -342 l 1
 -27 -342 l 1
333 518 m 0
 321 462 270 418 218 418 c 0
 174 418 144 450 144 495 c 0
 144 502 145 510 147 518 c 0
 159 574 209 618 261 618 c 0
 306 618 336 586 336 541 c 0
 336 534 335 526 333 518 c 0
EndSplineSet
EndChar

StartChar: brokenbar
Encoding: 166 166 211
Width: 257
Flags: W
HStem: 940 20G<245.719 398>
LayerCount: 2
Fore
SplineSet
-27 -340 m 1
 94 230 l 1
 243 230 l 1
 122 -340 l 1
 -27 -340 l 1
277 390 m 1
 128 390 l 1
 250 960 l 1
 398 960 l 1
 277 390 l 1
EndSplineSet
EndChar

StartChar: section
Encoding: 167 167 212
Width: 723
Flags: W
HStem: -340 120<221.559 412.211> 768 110<420.203 590.029>
VStem: 9 165<-174.771 -52> 105 165<219.317 361.317> 175 164<540.69 684.066> 504 165<-129.588 22.2533> 573 164<191.384 344.46> 622 163<600 736.608>
LayerCount: 2
Fore
SplineSet
530 878 m 0xc8
 698 878 785 783 785 660 c 0
 785 641 782 620 778 600 c 1
 615 600 l 1
 619 621 622 641 622 659 c 0xc9
 622 727 587 768 507 768 c 0
 407 768 355 685 343 630 c 0
 340 617 339 606 339 595 c 0
 339 547 371 521 471 510 c 0
 599 495 737 449 737 307 c 0xca
 737 289 735 270 731 250 c 0
 716 180 684 124 640 83 c 1
 658 56 669 24 669 -17 c 0
 669 -34 667 -52 663 -72 c 0
 623 -259 461 -340 281 -340 c 0
 123 -340 9 -260 9 -117 c 0
 9 -96 11 -75 16 -52 c 1
 179 -52 l 1
 176 -68 174 -83 174 -96 c 0
 174 -178 232 -220 306 -220 c 0
 400 -220 478 -174 500 -72 c 0
 503 -58 504 -46 504 -35 c 0
 504 24 460 48 339 68 c 0xec
 235 85 105 129 105 259 c 0xd0
 105 274 107 290 111 308 c 0
 123 364 161 424 218 471 c 1
 191 498 175 534 175 581 c 0
 175 596 176 613 180 630 c 0
 204 745 336 878 530 878 c 0xc8
333 407 m 1
 300 378 281 339 274 308 c 0
 271 295 270 284 270 273 c 0
 270 225 302 199 402 188 c 0
 444 183 487 175 526 161 c 1
 546 184 561 213 569 250 c 0
 572 264 573 276 573 287 c 0xd2
 573 346 529 370 408 390 c 0
 384 394 357 399 333 407 c 1
EndSplineSet
EndChar

StartChar: endash
Encoding: 8211 8211 214
Width: 593
VWidth: 0
Flags: W
HStem: 270 110<117 596>
LayerCount: 2
Fore
SplineSet
117 380 m 1
 619 380 l 1
 596 270 l 1
 94 270 l 1
 117 380 l 1
EndSplineSet
EndChar

StartChar: guilsinglleft
Encoding: 8249 8249 215
Width: 333
Flags: W
VStem: 103 320
LayerCount: 2
Fore
SplineSet
225 320 m 1
 325 90 l 1
 223 90 l 1
 103 315 l 1
 105 325 l 1
 321 550 l 1
 423 550 l 1
 225 320 l 1
EndSplineSet
EndChar

StartChar: guilsinglright
Encoding: 8250 8250 216
Width: 333
Flags: W
VStem: 46 320
LayerCount: 2
Fore
SplineSet
244 320 m 1
 144 550 l 1
 247 550 l 1
 366 325 l 1
 364 315 l 1
 149 90 l 1
 46 90 l 1
 244 320 l 1
EndSplineSet
EndChar

StartChar: ellipsis
Encoding: 8230 8230 217
Width: 687
VWidth: 0
Flags: W
HStem: 0 200<76.5605 169.945 309.561 402.439 541.561 634.945>
VStem: 27 192<49.8815 150.119> 260 192<49.8815 150.119> 492 192<49.8815 150.119>
LayerCount: 2
Fore
SplineSet
216 100 m 0
 204 44 154 0 102 0 c 0
 57 0 27 32 27 77 c 0
 27 84 28 92 30 100 c 0
 42 156 93 200 145 200 c 0
 189 200 219 168 219 123 c 0
 219 116 218 108 216 100 c 0
449 100 m 0
 437 44 387 0 335 0 c 0
 290 0 260 32 260 77 c 0
 260 84 261 92 263 100 c 0
 275 156 325 200 377 200 c 0
 422 200 452 168 452 123 c 0
 452 116 451 108 449 100 c 0
681 100 m 0
 669 44 619 0 567 0 c 0
 522 0 492 32 492 77 c 0
 492 84 493 92 495 100 c 0
 507 156 558 200 610 200 c 0
 654 200 684 168 684 123 c 0
 684 116 683 108 681 100 c 0
EndSplineSet
EndChar

StartChar: trademark
Encoding: 8482 8482 218
Width: 648
Flags: W
HStem: 810 50<228 292 357 432>
LayerCount: 2
Fore
SplineSet
228 860 m 1
 442 860 l 1
 432 810 l 1
 357 810 l 1
 300 540 l 1
 235 540 l 1
 292 810 l 1
 218 810 l 1
 228 860 l 1
470 860 m 1
 563 860 l 1
 573 620 l 1
 684 860 l 1
 777 860 l 1
 709 540 l 1
 644 540 l 1
 695 780 l 1
 579 540 l 1
 532 540 l 1
 518 780 l 1
 467 540 l 1
 402 540 l 1
 470 860 l 1
EndSplineSet
EndChar

StartChar: emdash
Encoding: 8212 8212 219
Width: 862
VWidth: 0
Flags: W
HStem: 270 110<117 866>
LayerCount: 2
Fore
SplineSet
117 380 m 1
 889 380 l 1
 866 270 l 1
 94 270 l 1
 117 380 l 1
EndSplineSet
EndChar

StartChar: ordfeminine
Encoding: 170 170 220
Width: 331
VWidth: 0
Flags: W
HStem: 540 55<205.019 304.999> 689 50<245.7 344> 813 55<284.064 358.658>
VStem: 159 75<595.54 680.721> 334 66<549.018 643.382> 361 72<739 811.057>
LayerCount: 2
Fore
SplineSet
339 868 m 0xf4
 398 868 433 832 433 783 c 0xf4
 433 775 432 767 430 759 c 2
 402 629 l 2
 400 621 400 613 400 606 c 0
 400 574 412 549 412 549 c 1
 341 549 l 1
 341 549 334 569 334 588 c 0xf8
 334 592 334 596 335 599 c 1
 335 599 300 540 236 540 c 0
 175 540 159 571 159 605 c 0
 159 618 161 630 164 642 c 0
 177 704 242 739 301 739 c 2
 354 739 l 1
 359 759 l 2
 360 765 361 770 361 775 c 0
 361 797 350 813 327 813 c 0
 299 813 279 788 273 759 c 1
 198 759 l 1
 210 814 271 868 339 868 c 0xf4
290 689 m 2
 258 689 240 667 235 642 c 0
 234 638 234 635 234 631 c 0
 234 611 246 595 265 595 c 0
 294 595 329 620 341 678 c 2
 344 689 l 1
 290 689 l 2
EndSplineSet
EndChar

StartChar: uni00AD
Encoding: 173 173 221
Width: 593
VWidth: 0
Flags: W
HStem: 270 110<117 596>
LayerCount: 2
Fore
SplineSet
117 380 m 1
 619 380 l 1
 596 270 l 1
 94 270 l 1
 117 380 l 1
EndSplineSet
EndChar

StartChar: degree
Encoding: 176 176 222
Width: 305
VWidth: 0
Flags: W
HStem: 670 80<271.471 345.381> 840 80<280.051 353.214>
VStem: 193 77<751.667 829.208> 355 77<760.792 838.333>
LayerCount: 2
Fore
SplineSet
340 920 m 0
 394 920 432 879 432 823 c 0
 432 814 431 805 429 795 c 0
 414 726 350 670 287 670 c 0
 231 670 193 711 193 767 c 0
 193 776 194 785 196 795 c 0
 211 864 275 920 340 920 c 0
323 840 m 0
 300 840 276 820 271 795 c 0
 270 792 270 789 270 786 c 0
 270 765 284 750 304 750 c 0
 326 750 349 770 354 795 c 0
 355 798 355 802 355 805 c 0
 355 825 342 840 323 840 c 0
EndSplineSet
EndChar

StartChar: plusminus
Encoding: 177 177 223
Width: 593
VWidth: 0
Flags: W
HStem: 90 110<79 558> 460 110<158 311 483 636>
LayerCount: 2
Fore
SplineSet
376 765 m 1
 525 765 l 1
 483 570 l 1
 660 570 l 1
 636 460 l 1
 460 460 l 1
 418 265 l 1
 269 265 l 1
 311 460 l 1
 134 460 l 1
 158 570 l 1
 334 570 l 1
 376 765 l 1
79 200 m 1
 581 200 l 1
 558 90 l 1
 56 90 l 1
 79 200 l 1
EndSplineSet
EndChar

StartChar: uni00B2
Encoding: 178 178 224
Width: 336
Flags: W
HStem: 590 60<271 417> 970 60<318.597 398.125>
VStem: 216 79<890 947.478> 400 79<852.129 968.828>
LayerCount: 2
Fore
SplineSet
376 1030 m 0
 438 1030 479 988 479 927 c 0
 479 917 478 905 475 894 c 0
 463 838 415 790 391 766 c 1
 271 650 l 1
 430 650 l 1
 417 590 l 1
 156 590 l 1
 169 650 l 1
 297 772 l 1
 323 797 387 852 396 894 c 0
 399 907 400 918 400 927 c 0
 400 955 388 970 364 970 c 0
 332 970 305 939 295 890 c 1
 216 890 l 1
 232 967 303 1030 376 1030 c 0
EndSplineSet
EndChar

StartChar: uni00B3
Encoding: 179 179 225
Width: 342
Flags: W
HStem: 590 55<258.185 350.056> 786 56<281 367.712> 983 55<324.464 407.718>
VStem: 176 79<648.516 715> 226 79<913 965.716> 372 79<667.944 782.262> 410 79<862.557 981.171>
CounterMasks: 1 e0
LayerCount: 2
Fore
SplineSet
383 1038 m 0xea
 444 1038 489 997 489 939 c 0xea
 489 930 488 922 486 913 c 0
 475 862 433 826 403 814 c 1
 425 804 451 776 451 735 c 0
 451 729 451 722 449 715 c 0
 434 643 365 590 288 590 c 0
 221 590 176 631 176 689 c 0
 176 697 177 706 179 715 c 1
 258 715 l 1
 256 706 255 698 255 691 c 0
 255 661 272 645 299 645 c 0
 333 645 360 670 370 715 c 0
 371 722 372 729 372 736 c 0xf4
 372 765 358 786 329 786 c 2
 269 786 l 1
 281 842 l 1
 341 842 l 2
 377 842 397 864 407 913 c 0
 409 923 410 931 410 939 c 0
 410 968 396 983 371 983 c 0
 339 983 315 958 305 913 c 1
 226 913 l 1
 241 985 314 1038 383 1038 c 0xea
EndSplineSet
EndChar

StartChar: periodcentered
Encoding: 183 183 226
Width: 276
VWidth: 0
Flags: W
HStem: 225 200<151.561 244.945>
VStem: 102 192<274.881 375.119>
LayerCount: 2
Fore
SplineSet
291 325 m 0
 279 269 229 225 177 225 c 0
 132 225 102 257 102 302 c 0
 102 309 103 317 105 325 c 0
 117 381 168 425 220 425 c 0
 264 425 294 393 294 348 c 0
 294 341 293 333 291 325 c 0
EndSplineSet
EndChar

StartChar: uni00B9
Encoding: 185 185 227
Width: 262
Flags: W
HStem: 875 55<225 299.898>
VStem: 213 221
LayerCount: 2
Fore
SplineSet
346 1020 m 1
 434 1020 l 1
 342 590 l 1
 262 590 l 1
 332 922 l 1
 296 881 263 875 213 875 c 1
 225 930 l 1
 279 930 336 973 346 1020 c 1
EndSplineSet
EndChar

StartChar: ordmasculine
Encoding: 186 186 228
Width: 332
VWidth: 0
Flags: W
HStem: 540 55<244.309 333.804> 813 55<279.196 368.691>
VStem: 168 72<598.102 764.55> 373 72<643.45 809.898>
LayerCount: 2
Fore
SplineSet
341 868 m 0
 403 868 445 825 445 762 c 0
 445 751 443 740 441 728 c 0
 435 702 437 706 431 680 c 0
 414 598 344 540 272 540 c 0
 210 540 168 583 168 646 c 0
 168 657 170 668 172 680 c 0
 178 706 176 702 182 728 c 0
 199 810 269 868 341 868 c 0
330 813 m 0
 291 813 264 780 252 723 c 0
 246 697 250 711 244 685 c 0
 241 671 240 658 240 647 c 0
 240 614 254 595 283 595 c 0
 322 595 349 628 361 685 c 0
 367 711 363 697 369 723 c 0
 372 737 373 750 373 761 c 0
 373 794 359 813 330 813 c 0
EndSplineSet
EndChar

StartChar: questiondown
Encoding: 191 191 229
Width: 584
VWidth: 0
Flags: W
HStem: -18 110<241.325 371.139> 660 200<384.561 477.439>
VStem: 62 158<113.873 284.987> 335 192<709.881 810.119> 450 158<201.714 280>
LayerCount: 2
Fore
SplineSet
338 760 m 0xf0
 350 816 400 860 452 860 c 0
 497 860 527 828 527 783 c 0
 527 776 526 768 524 760 c 0
 512 704 462 660 410 660 c 0
 365 660 335 692 335 737 c 0
 335 744 336 752 338 760 c 0xf0
275 -18 m 0
 131 -18 62 82 62 184 c 0
 62 199 64 215 67 230 c 0
 107 418 315 433 348 590 c 1
 451 590 l 1
 402 360 257 382 225 230 c 0
 222 215 220 200 220 186 c 0
 220 136 241 92 298 92 c 0
 371 92 423 151 450 280 c 1
 608 280 l 1xe8
 571 104 441 -18 275 -18 c 0
EndSplineSet
EndChar

StartChar: dagger
Encoding: 8224 8224 230
Width: 537
VWidth: 0
Flags: W
HStem: 530 90<168 325 456 614> 840 20G<390.75 507>
LayerCount: 2
Fore
SplineSet
507 860 m 1
 456 620 l 1
 633 620 l 1
 614 530 l 1
 437 530 l 1
 252 -340 l 1
 140 -340 l 1
 325 530 l 1
 149 530 l 1
 168 620 l 1
 344 620 l 1
 395 860 l 1
 507 860 l 1
EndSplineSet
EndChar

StartChar: bullet
Encoding: 8226 8226 231
Width: 332
VWidth: 0
Flags: W
HStem: 200 250<181.606 281.744>
VStem: 112 238<271.013 378.653>
LayerCount: 2
Fore
SplineSet
347 325 m 0
 332 255 269 200 204 200 c 0
 148 200 112 240 112 296 c 0
 112 305 113 315 115 325 c 0
 130 395 192 450 257 450 c 0
 313 450 350 409 350 354 c 0
 350 345 349 335 347 325 c 0
EndSplineSet
EndChar

StartChar: uni2010
Encoding: 8208 8208 232
Width: 593
VWidth: 0
Flags: W
HStem: 270 110<117 596>
LayerCount: 2
Fore
SplineSet
94 270 m 1
 117 380 l 1
 619 380 l 1
 596 270 l 1
 94 270 l 1
EndSplineSet
EndChar

StartChar: uni2011
Encoding: 8209 8209 233
Width: 593
VWidth: 0
Flags: W
HStem: 270 110<117 596>
LayerCount: 2
Fore
SplineSet
94 270 m 1
 117 380 l 1
 619 380 l 1
 596 270 l 1
 94 270 l 1
EndSplineSet
EndChar

StartChar: perthousand
Encoding: 8240 8240 234
Width: 1337
VWidth: 0
Flags: W
HStem: 0 105<637.307 754.547 1065.31 1182.32> 295 105<668.357 785.672 1096.08 1213.17> 460 105<288.328 405.643> 755 105<319.453 436.693>
VStem: 172 100<583.744 709.054> 453 101<610.946 736.256> 520 101<123.744 249.054> 802 100<150.946 276.256> 948 101<123.744 249.054> 1229 101<150.946 276.256>
LayerCount: 2
Fore
SplineSet
405 860 m 0xfdc0
 493 860 554 793 554 704 c 0
 554 690 552 675 549 660 c 0
 526 550 422 460 320 460 c 0
 232 460 172 527 172 616 c 0
 172 630 174 645 177 660 c 0
 200 770 303 860 405 860 c 0xfdc0
786 860 m 1
 926 860 l 1
 288 0 l 1
 148 0 l 1
 786 860 l 1
383 755 m 0
 335 755 285 712 274 660 c 0
 272 653 272 646 272 639 c 0
 272 597 301 565 342 565 c 0
 390 565 440 608 451 660 c 0
 453 667 453 674 453 681 c 0
 453 723 424 755 383 755 c 0
754 400 m 0
 842 400 902 333 902 244 c 0
 902 230 900 215 897 200 c 0
 874 90 771 0 669 0 c 0
 581 0 520 67 520 156 c 0xfbc0
 520 170 522 185 525 200 c 0
 548 310 652 400 754 400 c 0
732 295 m 0
 684 295 634 252 623 200 c 0
 621 193 621 186 621 179 c 0
 621 137 650 105 691 105 c 0
 739 105 789 148 800 200 c 0
 802 207 802 214 802 221 c 0
 802 263 773 295 732 295 c 0
1182 400 m 0
 1270 400 1330 333 1330 244 c 0
 1330 230 1328 215 1325 200 c 0
 1302 90 1199 0 1097 0 c 0
 1009 0 948 67 948 156 c 0
 948 170 950 185 953 200 c 0
 976 310 1080 400 1182 400 c 0
1159 295 m 0
 1111 295 1062 252 1051 200 c 0
 1049 193 1049 186 1049 179 c 0
 1049 137 1078 105 1119 105 c 0
 1167 105 1216 148 1227 200 c 0
 1229 207 1229 214 1229 221 c 0
 1229 263 1200 295 1159 295 c 0
EndSplineSet
EndChar
